<svg width="344" height="102" viewBox="0 0 344 102" xmlns="http://www.w3.org/2000/svg"><title>Artboard Copy 5</title><path d="M71.806 24.408c4.59 0 7.31-1.632 9.758-4.25l-3.332-3.366c-1.87 1.7-3.536 2.788-6.256 2.788-4.08 0-6.902-3.4-6.902-7.48v-.068c0-4.08 2.89-7.412 6.902-7.412 2.38 0 4.25 1.02 6.086 2.686l3.332-3.842c-2.21-2.176-4.896-3.672-9.384-3.672C64.7-.208 59.6 5.334 59.6 12.1v.068c0 6.834 5.202 12.24 12.206 12.24zm32.82 0c-7.344 0-12.614-5.474-12.614-12.24V12.1c0-6.766 5.338-12.308 12.682-12.308s12.614 5.474 12.614 12.24v.068c0 6.766-5.338 12.308-12.682 12.308zm.068-4.828c4.216 0 7.14-3.332 7.14-7.412V12.1c0-4.08-2.992-7.48-7.208-7.48s-7.14 3.332-7.14 7.412v.068c0 4.08 2.992 7.48 7.208 7.48zM129.966 24h5.168V8.87L146.66 24h4.454V.2h-5.168v14.654L134.794.2h-4.828V24zm40.402 0h5.236V5.028h7.242V.2h-19.72v4.828h7.242V24zm19.39 0l10.2-23.97h4.828l10.2 23.97h-5.474l-2.176-5.338h-10.064L195.096 24h-5.338zm9.384-9.962h6.324l-3.162-7.718-3.162 7.718zm37.138 10.37c4.59 0 7.31-1.632 9.758-4.25l-3.332-3.366c-1.87 1.7-3.536 2.788-6.256 2.788-4.08 0-6.902-3.4-6.902-7.48v-.068c0-4.08 2.89-7.412 6.902-7.412 2.38 0 4.25 1.02 6.086 2.686l3.332-3.842c-2.21-2.176-4.896-3.672-9.384-3.672-7.31 0-12.41 5.542-12.41 12.308v.068c0 6.834 5.202 12.24 12.206 12.24zM263.762 24h5.236V5.028h7.242V.2h-19.72v4.828h7.242V24zM142.21 72h5.134V56.564l6.63 10.064h.136l6.698-10.166V72h5.202V48.2h-5.644l-6.256 10.064-6.256-10.064h-5.644V72zm37.512 0h18.122v-4.658h-12.92v-4.998h11.22v-4.658h-11.22v-4.828h12.75V48.2h-17.952V72zM142 96h56v6h-56z" fill="#2C2C2C" fill-rule="evenodd"/></svg>