<svg width="344" height="102" viewBox="0 0 344 102" xmlns="http://www.w3.org/2000/svg"><title>Artboard</title><path d="M10.786 24.548c2.584 0 4.726-.748 6.188-2.21 1.428-1.428 2.244-3.536 2.244-6.358V.408h-5.372v15.334c0 2.754-1.224 3.944-3.196 3.944-1.666 0-2.992-.884-4.352-2.38L3 20.978c1.632 1.938 4.08 3.57 7.786 3.57zm33.33.068c-7.344 0-12.614-5.474-12.614-12.24v-.068C31.502 5.542 36.84 0 44.184 0s12.614 5.474 12.614 12.24v.068c0 6.766-5.338 12.308-12.682 12.308zm.068-4.828c4.216 0 7.14-3.332 7.14-7.412v-.068c0-4.08-2.992-7.48-7.208-7.48s-7.14 3.332-7.14 7.412v.068c0 4.08 2.992 7.48 7.208 7.48zm25.272 4.42h5.236v-9.554h9.656v9.554h5.236V.408h-5.236v9.418h-9.656V.408h-5.236v23.8zm31.8 0l10.2-23.97h4.828l10.2 23.97h-5.474l-2.176-5.338H108.77l-2.176 5.338h-5.338zm9.384-9.962h6.324l-3.162-7.718-3.162 7.718zm27.516 9.962h5.168V9.078l11.526 15.13h4.454V.408h-5.168v14.654L142.984.408h-4.828v23.8zm34.86 0h5.168V9.078l11.526 15.13h4.454V.408h-5.168v14.654L177.844.408h-4.828v23.8zm34.86 0h18.122V19.55h-12.92v-4.998h11.22V9.894h-11.22V5.066h12.75V.408h-17.952v23.8zm39.246.34c5.134 0 8.738-2.652 8.738-7.378v-.068c0-4.148-2.72-5.882-7.548-7.14-4.114-1.054-5.134-1.564-5.134-3.128v-.068c0-1.156 1.054-2.074 3.06-2.074 2.006 0 4.08.884 6.188 2.346l2.72-3.944c-2.414-1.938-5.372-3.026-8.84-3.026-4.862 0-8.33 2.856-8.33 7.174v.068c0 4.726 3.094 6.052 7.888 7.276 3.978 1.02 4.794 1.7 4.794 3.026v.068c0 1.394-1.292 2.244-3.434 2.244-2.72 0-4.964-1.122-7.106-2.89l-3.094 3.706c2.856 2.55 6.494 3.808 10.098 3.808zM76 72.208h17.102v-4.76H81.236v-19.04H76v23.8zm38.194.374c6.392 0 10.438-3.536 10.438-10.744v-13.43h-5.236v13.634c0 3.774-1.938 5.712-5.134 5.712-3.196 0-5.134-2.006-5.134-5.882V48.408h-5.236v13.6c0 7.004 3.91 10.574 10.302 10.574zm23.676-.374h5.168v-15.13l11.526 15.13h4.454v-23.8h-5.168v14.654l-11.152-14.654h-4.828v23.8zm34.76 0v-23.8h9.282c7.48 0 12.648 5.134 12.648 11.832v.068c0 6.698-5.168 11.9-12.648 11.9h-9.282zm9.282-19.074h-4.046v14.348h4.046c4.284 0 7.174-2.89 7.174-7.106v-.068c0-4.216-2.89-7.174-7.174-7.174zM231.7 69.216l-3.332 3.706-2.618-2.346c-2.006 1.292-4.42 2.04-7.072 2.04-7.344 0-12.614-5.474-12.614-12.24v-.068c0-6.766 5.338-12.308 12.682-12.308s12.614 5.474 12.614 12.24v.068c0 2.516-.782 4.862-2.108 6.834l2.448 2.074zm-12.954-1.428c1.156 0 2.21-.204 3.128-.646l-3.876-3.298 3.332-3.74 3.91 3.536a8.34 8.34 0 0 0 .646-3.264v-.068c0-4.08-2.992-7.48-7.208-7.48s-7.14 3.332-7.14 7.412v.068c0 4.08 2.992 7.48 7.208 7.48zm31.224 4.59h4.624l9.622-23.97h-5.644L252.35 65.17l-6.222-16.762h-5.78l9.622 23.97zm26.056-.17h5.236v-23.8h-5.236v23.8zm27.552.34c5.134 0 8.738-2.652 8.738-7.378v-.068c0-4.148-2.72-5.882-7.548-7.14-4.114-1.054-5.134-1.564-5.134-3.128v-.068c0-1.156 1.054-2.074 3.06-2.074 2.006 0 4.08.884 6.188 2.346l2.72-3.944c-2.414-1.938-5.372-3.026-8.84-3.026-4.862 0-8.33 2.856-8.33 7.174v.068c0 4.726 3.094 6.052 7.888 7.276 3.978 1.02 4.794 1.7 4.794 3.026v.068c0 1.394-1.292 2.244-3.434 2.244-2.72 0-4.964-1.122-7.106-2.89l-3.094 3.706c2.856 2.55 6.494 3.808 10.098 3.808zm26.736-.34h5.236V53.236h7.242v-4.828h-19.72v4.828h7.242v18.972zM138 96h56v6h-56z" fill="#2C2C2C" fill-rule="evenodd"/></svg>