<svg width="44" height="44" viewBox="0 0 44 44" xmlns="http://www.w3.org/2000/svg"><title>Combined Shape</title><path d="M22 44C9.85 44 0 34.15 0 22S9.85 0 22 0s22 9.85 22 22-9.85 22-22 22zm10.542-21.294c0-4.175-2.23-6.117-5.204-6.117-2.4 0-3.473 1.32-4.073 2.246v.044h-.03l.03-.044v-1.927h-4.52c.06 1.276 0 13.592 0 13.592h4.52v-7.59c0-.407.03-.812.15-1.102.327-.813 1.07-1.653 2.319-1.653 1.635 0 2.289 1.247 2.289 3.073V30.5h4.519v-7.794zm-18.526-12.35c-1.546 0-2.558 1.015-2.558 2.348 0 1.305.983 2.35 2.498 2.35h.03c1.577 0 2.557-1.045 2.557-2.35-.03-1.333-.98-2.348-2.527-2.348zM11.726 30.5h4.52V16.908h-4.52V30.5z" fill="#2C2C2C" fill-rule="evenodd"/></svg>