<svg width="49" height="56" viewBox="0 0 49 56" xmlns="http://www.w3.org/2000/svg"><title>Page 1 Copy</title><g stroke="#323232" stroke-width="2" fill="none" fill-rule="evenodd" stroke-linejoin="round"><path d="M36.21 21.215L24.505 28m23.409.028L36.21 21.215m0 13.375l11.704-6.562M24.504 28l11.707 6.59" stroke-linecap="round"/><path d="M36.21 48.34l-11.706-6.727M36.21 7.715l-11.706 6.683M35 21.215v-13.5m0 40.625V34.59"/><path d="M12.797 21.22L24.504 28m-23.41.033l11.703-6.812m0 13.374L1.094 28.033" stroke-linecap="round"/><path d="M12.797 34.595L24.504 28v13.613l-11.707 6.733"/><path d="M24.502 1.094L1.094 14.346V41.72l23.41 13.247 23.41-13.253V14.34z"/><path d="M24.504 28V14.397L12.797 7.72M12 21.22V7.72m.797 26.875v13.75z"/></g></svg>