<svg width="344" height="102" viewBox="0 0 344 102" xmlns="http://www.w3.org/2000/svg"><title>Artboard Copy 3</title><path d="M137.928 24h5.134V8.564l6.63 10.064h.136l6.698-10.166V24h5.202V.2h-5.644l-6.256 10.064L143.572.2h-5.644V24zm44.21 0h5.236v-9.486L196.52.2h-5.95l-5.78 9.554L179.112.2h-6.12l9.146 14.416V24zm-81.537 48.17h4.556l5.372-15.572 5.372 15.572h4.556l8.126-23.97h-5.474l-4.93 16.116-5.338-16.184h-4.488l-5.338 16.184-4.93-16.116h-5.61l8.126 23.97zm50.058.238c-7.344 0-12.614-5.474-12.614-12.24V60.1c0-6.766 5.338-12.308 12.682-12.308s12.614 5.474 12.614 12.24v.068c0 6.766-5.338 12.308-12.682 12.308zm.068-4.828c4.216 0 7.14-3.332 7.14-7.412V60.1c0-4.08-2.992-7.48-7.208-7.48s-7.14 3.332-7.14 7.412v.068c0 4.08 2.992 7.48 7.208 7.48zM173.999 72V48.2h10.88c3.026 0 5.372.85 6.936 2.414 1.326 1.326 2.04 3.196 2.04 5.44v.068c0 3.842-2.074 6.256-5.1 7.378l5.814 8.5h-6.12l-5.1-7.616h-4.114V72h-5.236zm5.236-12.24h5.304c2.55 0 4.012-1.36 4.012-3.366v-.068c0-2.244-1.564-3.4-4.114-3.4h-5.202v6.834zM208.581 72h5.236v-7.276l2.754-2.856L223.949 72h6.29l-10.132-13.702 9.69-10.098h-6.324l-9.656 10.404V48.2h-5.236V72zM138 96h56v6h-56z" fill="#2C2C2C" fill-rule="evenodd"/></svg>