<svg width="344" height="104" viewBox="0 0 344 104" xmlns="http://www.w3.org/2000/svg"><title>Artboard Copy 6</title><path d="M104.614 24.616C97.27 24.616 92 19.142 92 12.376v-.068C92 5.542 97.338 0 104.682 0s12.614 5.474 12.614 12.24v.068c0 6.766-5.338 12.308-12.682 12.308zm.068-4.828c4.216 0 7.14-3.332 7.14-7.412v-.068c0-4.08-2.992-7.48-7.208-7.48s-7.14 3.332-7.14 7.412v.068c0 4.08 2.992 7.48 7.208 7.48zm29.794 4.42h5.236V5.236h7.242V.408h-19.72v4.828h7.242v18.972zm24.49 0h5.236v-9.554h9.656v9.554h5.236V.408h-5.236v9.418h-9.656V.408h-5.236v23.8zm33.84 0h18.122V19.55h-12.92v-4.998h11.22V9.894h-11.22V5.066h12.75V.408h-17.952v23.8zm30.78 0V.408h10.88c3.026 0 5.372.85 6.936 2.414 1.326 1.326 2.04 3.196 2.04 5.44v.068c0 3.842-2.074 6.256-5.1 7.378l5.814 8.5h-6.12l-5.1-7.616h-4.114v7.616h-5.236zm5.236-12.24h5.304c2.55 0 4.012-1.36 4.012-3.366v-.068c0-2.244-1.564-3.4-4.114-3.4h-5.202v6.834zM49 72.208v-23.8h9.724c5.678 0 9.112 3.366 9.112 8.228v.068c0 5.508-4.284 8.364-9.622 8.364h-3.978v7.14H49zm5.236-11.798h4.148c2.618 0 4.148-1.564 4.148-3.604v-.068c0-2.346-1.632-3.604-4.25-3.604h-4.046v7.276zm25.476 11.798v-23.8h10.88c3.026 0 5.372.85 6.936 2.414 1.326 1.326 2.04 3.196 2.04 5.44v.068c0 3.842-2.074 6.256-5.1 7.378l5.814 8.5h-6.12l-5.1-7.616h-4.114v7.616h-5.236zm5.236-12.24h5.304c2.55 0 4.012-1.36 4.012-3.366v-.068c0-2.244-1.564-3.4-4.114-3.4h-5.202v6.834zm38.906 12.648c-7.344 0-12.614-5.474-12.614-12.24v-.068c0-6.766 5.338-12.308 12.682-12.308s12.614 5.474 12.614 12.24v.068c0 6.766-5.338 12.308-12.682 12.308zm.068-4.828c4.216 0 7.14-3.332 7.14-7.412v-.068c0-4.08-2.992-7.48-7.208-7.48s-7.14 3.332-7.14 7.412v.068c0 4.08 2.992 7.48 7.208 7.48zm29.658 4.76c2.584 0 4.726-.748 6.188-2.21 1.428-1.428 2.244-3.536 2.244-6.358V48.408h-5.372v15.334c0 2.754-1.224 3.944-3.196 3.944-1.666 0-2.992-.884-4.352-2.38l-3.298 3.672c1.632 1.938 4.08 3.57 7.786 3.57zm21.77-.34h18.122V67.55h-12.92v-4.998h11.22v-4.658h-11.22v-4.828h12.75v-4.658H175.35v23.8zm41.932.408c4.59 0 7.31-1.632 9.758-4.25L223.708 65c-1.87 1.7-3.536 2.788-6.256 2.788-4.08 0-6.902-3.4-6.902-7.48v-.068c0-4.08 2.89-7.412 6.902-7.412 2.38 0 4.25 1.02 6.086 2.686l3.332-3.842c-2.21-2.176-4.896-3.672-9.384-3.672-7.31 0-12.41 5.542-12.41 12.308v.068c0 6.834 5.202 12.24 12.206 12.24zm27.482-.408H250V53.236h7.242v-4.828h-19.72v4.828h7.242v18.972zm32.446.34c5.134 0 8.738-2.652 8.738-7.378v-.068c0-4.148-2.72-5.882-7.548-7.14-4.114-1.054-5.134-1.564-5.134-3.128v-.068c0-1.156 1.054-2.074 3.06-2.074 2.006 0 4.08.884 6.188 2.346l2.72-3.944c-2.414-1.938-5.372-3.026-8.84-3.026-4.862 0-8.33 2.856-8.33 7.174v.068c0 4.726 3.094 6.052 7.888 7.276 3.978 1.02 4.794 1.7 4.794 3.026v.068c0 1.394-1.292 2.244-3.434 2.244-2.72 0-4.964-1.122-7.106-2.89l-3.094 3.706c2.856 2.55 6.494 3.808 10.098 3.808zM142 96h56v6h-56z" fill="#2C2C2C" fill-rule="evenodd"/></svg>