<svg width="344" height="104" viewBox="0 0 344 104" xmlns="http://www.w3.org/2000/svg"><title>Artboard Copy 8</title><path d="M142 48h56v6h-56zM59.233 24V.2h9.724c5.678 0 9.112 3.366 9.112 8.228v.068c0 5.508-4.284 8.364-9.622 8.364h-3.978V24h-5.236zm5.236-11.798h4.148c2.618 0 4.148-1.564 4.148-3.604V8.53c0-2.346-1.632-3.604-4.25-3.604h-4.046v7.276zM89.945 24V.2h10.88c3.026 0 5.372.85 6.936 2.414 1.326 1.326 2.04 3.196 2.04 5.44v.068c0 3.842-2.074 6.256-5.1 7.378l5.814 8.5h-6.12l-5.1-7.616h-4.114V24h-5.236zm5.236-12.24h5.304c2.55 0 4.012-1.36 4.012-3.366v-.068c0-2.244-1.564-3.4-4.114-3.4h-5.202v6.834zm38.906 12.648c-7.344 0-12.614-5.474-12.614-12.24V12.1c0-6.766 5.338-12.308 12.682-12.308s12.614 5.474 12.614 12.24v.068c0 6.766-5.338 12.308-12.682 12.308zm.068-4.828c4.216 0 7.14-3.332 7.14-7.412V12.1c0-4.08-2.992-7.48-7.208-7.48s-7.14 3.332-7.14 7.412v.068c0 4.08 2.992 7.48 7.208 7.48zm36.424 4.828c4.59 0 7.31-1.632 9.758-4.25l-3.332-3.366c-1.87 1.7-3.536 2.788-6.256 2.788-4.08 0-6.902-3.4-6.902-7.48v-.068c0-4.08 2.89-7.412 6.902-7.412 2.38 0 4.25 1.02 6.086 2.686l3.332-3.842c-2.21-2.176-4.896-3.672-9.384-3.672-7.31 0-12.41 5.542-12.41 12.308v.068c0 6.834 5.202 12.24 12.206 12.24zm21.94-.408h18.122v-4.658h-12.92v-4.998h11.22V9.686h-11.22V4.858h12.75V.2h-17.952V24zm39.246.34c5.134 0 8.738-2.652 8.738-7.378v-.068c0-4.148-2.72-5.882-7.548-7.14-4.114-1.054-5.134-1.564-5.134-3.128v-.068c0-1.156 1.054-2.074 3.06-2.074 2.006 0 4.08.884 6.188 2.346l2.72-3.944c-2.414-1.938-5.372-3.026-8.84-3.026-4.862 0-8.33 2.856-8.33 7.174v.068c0 4.726 3.094 6.052 7.888 7.276 3.978 1.02 4.794 1.7 4.794 3.026v.068c0 1.394-1.292 2.244-3.434 2.244-2.72 0-4.964-1.122-7.106-2.89l-3.094 3.706c2.856 2.55 6.494 3.808 10.098 3.808zm29.42 0c5.134 0 8.738-2.652 8.738-7.378v-.068c0-4.148-2.72-5.882-7.548-7.14-4.114-1.054-5.134-1.564-5.134-3.128v-.068c0-1.156 1.054-2.074 3.06-2.074 2.006 0 4.08.884 6.188 2.346l2.72-3.944c-2.414-1.938-5.372-3.026-8.84-3.026-4.862 0-8.33 2.856-8.33 7.174v.068c0 4.726 3.094 6.052 7.888 7.276 3.978 1.02 4.794 1.7 4.794 3.026v.068c0 1.394-1.292 2.244-3.434 2.244-2.72 0-4.964-1.122-7.106-2.89l-3.094 3.706c2.856 2.55 6.494 3.808 10.098 3.808z" fill="#2C2C2C" fill-rule="evenodd"/></svg>