<svg width="1486" height="573" viewBox="0 0 1486 573" xmlns="http://www.w3.org/2000/svg" xmlns:xlink="http://www.w3.org/1999/xlink"><title>Artboard 4</title><defs><circle id="a" cx="290" cy="283" r="18"/><path d="M22.466 57.108C7.45 65.745-1.36 73.241.172 77.035c2.69 6.657 36.211-.61 74.872-16.23 38.662-15.62 67.822-33.679 65.133-40.336-1.643-4.065-14.782-2.938-33.57 2.113a46.328 46.328 0 0 1 2.968 5.853c4.239-.41 6.916.008 7.47 1.38 1.74 4.307-18.106 16.388-44.328 26.982-26.223 10.595-48.89 15.691-50.631 11.384-.435-1.075.476-2.635 2.495-4.535a46.378 46.378 0 0 1-2.115-6.538z" id="b"/></defs><g fill="none" fill-rule="evenodd"><path d="M.5 283.5h1485.001" stroke="#BCBCBC" stroke-linecap="square"/><circle fill="#2C2C2C" cx="1262.5" cy="283.5" r="31.5"/><circle fill="#2C2C2C" cx="420.5" cy="283.5" r="23.5"/><use fill="#FFF" xlink:href="#a"/><circle stroke="#2C2C2C" stroke-width="3" cx="290" cy="283" r="16.5"/><circle fill="#2C2C2C" cx="1004.5" cy="283.5" r="71.5"/><ellipse stroke="#979797" stroke-dasharray="2" cx="846.5" cy="283" rx="450.5" ry="282"/><ellipse stroke="#979797" stroke-dasharray="2,2" cx="483" cy="283.5" rx="327" ry="126.5"/><ellipse stroke="#979797" stroke-dasharray="2,2" cx="301.5" cy="283.742" rx="145.5" ry="63"/><g transform="translate(698 240.742)"><circle fill="#2C2C2C" cx="66" cy="43" r="43"/><use fill="#2C2C2C" xlink:href="#b"/><path stroke="#FFF" stroke-width="2" d="M21.968 56.241C5.922 65.471-2.558 72.947-.755 77.41c3.059 7.571 36.664.287 76.174-15.676 39.51-15.963 68.744-34.068 65.685-41.638-1.919-4.75-14.741-3.86-34.756 1.521l-1.28.344.682 1.136a45.328 45.328 0 0 1 2.903 5.727l.285.678.733-.07c3.893-.377 6.15.023 6.447.758.547 1.353-3.556 5.209-11.27 9.905-8.21 4.997-19.79 10.638-32.506 15.776-12.716 5.138-24.964 9.124-34.34 11.232-8.813 1.981-14.442 2.057-14.989.704-.213-.527.475-1.758 2.254-3.431l.501-.473-.262-.637-.045-.11a45.378 45.378 0 0 1-2.023-6.283l-.315-1.295-1.155.664z"/></g><circle fill="#FFF" cx="1046" cy="244.742" r="3"/><circle fill="#322C2F" cx="721" cy="229.742" r="3"/><circle fill="#322C2F" cx="649" cy="233.742" r="3"/><circle fill="#322C2F" cx="694.5" cy="229.242" r="4.5"/><circle fill="#322C2F" cx="919.5" cy="342.242" r="4.5"/><circle fill="#322C2F" cx="1072" cy="352.742" r="3"/><circle fill="#322C2F" cx="1222" cy="256" r="4"/><circle fill="#322C2F" cx="923" cy="313.742" r="3"/><circle fill="#322C2F" cx="686.5" cy="247.242" r="2.5"/><circle fill="#322C2F" cx="808.5" cy="329.242" r="2.5"/><circle fill="#322C2F" cx="826" cy="333.742" r="1"/><circle fill="#322C2F" cx="399.5" cy="257.242" r="2.5"/><circle fill="#322C2F" transform="matrix(1 0 0 -1 0 601.484)" cx="449" cy="300.742" r="1"/><ellipse stroke="#979797" stroke-dasharray="2,2" cx="674.5" cy="283.205" rx="404.5" ry="168.205"/><path d="M199.413 262.813C205.826 267.445 210 274.985 210 283.5a25.38 25.38 0 0 1-3.753 13.324 39.348 39.348 0 0 1-4.746.867c-7.806.974-15.376-.49-22.08-3.304a39.842 39.842 0 0 1-2.818-1.307 25.433 25.433 0 0 1-.986-.536.5.5 0 0 0-.513.858 26.426 26.426 0 0 0 1.042.567c.836.431 1.803.885 2.888 1.34 6.853 2.876 14.59 4.372 22.59 3.374a42.65 42.65 0 0 0 3.829-.645 25.644 25.644 0 0 1-4.593 5.023 27.56 27.56 0 0 1-5.625 1.018c-3.59.257-7.27-.226-10.488-1.044a20.37 20.37 0 0 1-.982-.271.5.5 0 1 0-.3.954l.276.081c.219.063.473.132.76.205 3.312.842 7.092 1.338 10.806 1.073.478-.035.95-.082 1.414-.142a31.804 31.804 0 0 0 2.123-.35A25.382 25.382 0 0 1 184.5 309c-14.083 0-25.5-11.417-25.5-25.5 0-4.514 1.173-8.755 3.231-12.433 1.145 2.555 3.47 5.61 7.227 9.202a36.252 36.252 0 0 0 3.476 2.928 37.275 37.275 0 0 0 11.345 5.704 32.99 32.99 0 0 0 3.745.916c.398.071.752.126 1.058.166.186.024.316.038.387.044a.5.5 0 1 0 .086-.996 9.07 9.07 0 0 1-.344-.04c-.29-.038-.628-.09-1.01-.159a31.996 31.996 0 0 1-3.63-.888 36.283 36.283 0 0 1-11.042-5.551 35.252 35.252 0 0 1-3.38-2.847c-4.078-3.897-6.368-7.04-7.298-9.527C167.355 262.802 175.367 258 184.5 258c4.746 0 9.19 1.297 12.995 3.555 1.024.974 1.222 1.814.525 2.491-1.418 1.379-6.841-.124-8.034-1.537a.5.5 0 0 0-.764.644c1.519 1.802 7.573 3.478 9.495 1.61.614-.596.823-1.263.696-1.95zM1219 411.6h10.66v-2.74h-7.6v-2.94h6.6v-2.74h-6.6v-2.84h7.5v-2.74H1219v14zm16.504.08h2.76l4.22-10.8h-3.16l-2.42 7.18-2.4-7.18h-3.22l4.22 10.8zm11.643.12c-2.02 0-3.68-1.16-3.68-3.28v-.04c0-2.34 1.78-3.42 4.32-3.42 1.08 0 1.86.18 2.62.44v-.18c0-1.26-.78-1.96-2.3-1.96-1.16 0-1.98.22-2.96.58l-.76-2.32c1.18-.52 2.34-.86 4.16-.86 1.66 0 2.86.44 3.62 1.2.8.8 1.16 1.98 1.16 3.42v6.22h-2.94v-1.16c-.74.82-1.76 1.36-3.24 1.36zm.92-2.1c1.42 0 2.38-.78 2.38-1.88v-.54c-.52-.24-1.2-.4-1.94-.4-1.3 0-2.1.52-2.1 1.48v.04c0 .82.68 1.3 1.66 1.3zm8.384 1.9h3.04V397h-3.04v14.6zm9.824.2c1.54 0 2.44-.82 3.14-1.72v1.52h3.04v-10.72h-3.04v5.98c0 1.44-.74 2.18-1.9 2.18s-1.84-.74-1.84-2.18v-5.98h-3.04v6.94c0 2.46 1.34 3.98 3.64 3.98zm12.303 0c-2.02 0-3.68-1.16-3.68-3.28v-.04c0-2.34 1.78-3.42 4.32-3.42 1.08 0 1.86.18 2.62.44v-.18c0-1.26-.78-1.96-2.3-1.96-1.16 0-1.98.22-2.96.58l-.76-2.32c1.18-.52 2.34-.86 4.16-.86 1.66 0 2.86.44 3.62 1.2.8.8 1.16 1.98 1.16 3.42v6.22h-2.94v-1.16c-.74.82-1.76 1.36-3.24 1.36zm.92-2.1c1.42 0 2.38-.78 2.38-1.88v-.54c-.52-.24-1.2-.4-1.94-.4-1.3 0-2.1.52-2.1 1.48v.04c0 .82.68 1.3 1.66 1.3zm11.764 2.08c1.02 0 1.76-.24 2.4-.62v-2.44c-.44.24-.94.38-1.5.38-.68 0-.98-.34-.98-1.04v-4.58h2.52v-2.6h-2.52v-2.74h-3.04v2.74h-1.28v2.6h1.28v5.08c0 2.48 1.26 3.22 3.12 3.22zm9.823.06c-3.22 0-5.6-2.26-5.6-5.54v-.04c0-3.06 2.18-5.58 5.3-5.58 3.58 0 5.22 2.78 5.22 5.82 0 .24-.02.52-.04.8h-7.46c.3 1.38 1.26 2.1 2.62 2.1 1.02 0 1.76-.32 2.6-1.1l1.74 1.54c-1 1.24-2.44 2-4.38 2zm-2.62-6.44h4.58c-.18-1.36-.98-2.28-2.26-2.28-1.26 0-2.08.9-2.32 2.28zM258 411.74v-14h5.46c4.4 0 7.44 3.02 7.44 6.96v.04c0 3.94-3.04 7-7.44 7H258zm5.46-11.22h-2.38v8.44h2.38c2.52 0 4.22-1.7 4.22-4.18v-.04c0-2.48-1.7-4.22-4.22-4.22zm15.304 11.46c-3.22 0-5.6-2.26-5.6-5.54v-.04c0-3.06 2.18-5.58 5.3-5.58 3.58 0 5.22 2.78 5.22 5.82 0 .24-.02.52-.04.8h-7.46c.3 1.38 1.26 2.1 2.62 2.1 1.02 0 1.76-.32 2.6-1.1l1.74 1.54c-1 1.24-2.44 2-4.38 2zm-2.62-6.44h4.58c-.18-1.36-.98-2.28-2.26-2.28-1.26 0-2.08.9-2.32 2.28zm10.683 6.2h3.04v-8.12h2.42v-2.48h-2.46v-.42c0-.8.4-1.16 1.1-1.16.52 0 .94.1 1.38.26v-2.52c-.56-.18-1.2-.3-2.16-.3-1.08 0-1.9.28-2.46.84-.56.56-.86 1.42-.86 2.6v.68h-1.26v2.5h1.26v8.12zm7.26 0h3.04v-10.72h-3.04v10.72zm-.08-11.9h3.2v-2.7h-3.2v2.7zm6.344 11.9h3.04v-5.98c0-1.44.74-2.18 1.9-2.18s1.84.74 1.84 2.18v5.98h3.04v-6.94c0-2.46-1.34-3.98-3.64-3.98-1.54 0-2.44.82-3.14 1.72v-1.52h-3.04v10.72zm17.904.24c-3.22 0-5.6-2.26-5.6-5.54v-.04c0-3.06 2.18-5.58 5.3-5.58 3.58 0 5.22 2.78 5.22 5.82 0 .24-.02.52-.04.8h-7.46c.3 1.38 1.26 2.1 2.62 2.1 1.02 0 1.76-.32 2.6-1.1l1.74 1.54c-1 1.24-2.44 2-4.38 2zm-2.62-6.44h4.58c-.18-1.36-.98-2.28-2.26-2.28-1.26 0-2.08.9-2.32 2.28zM139 411.6v-14h6.4c1.78 0 3.16.5 4.08 1.42.78.78 1.2 1.88 1.2 3.2v.04c0 2.26-1.22 3.68-3 4.34l3.42 5h-3.6l-3-4.48h-2.42v4.48H139zm3.08-7.2h3.12c1.5 0 2.36-.8 2.36-1.98v-.04c0-1.32-.92-2-2.42-2h-3.06v4.02zm16.304 7.44c-3.22 0-5.6-2.26-5.6-5.54v-.04c0-3.06 2.18-5.58 5.3-5.58 3.58 0 5.22 2.78 5.22 5.82 0 .24-.02.52-.04.8h-7.46c.3 1.38 1.26 2.1 2.62 2.1 1.02 0 1.76-.32 2.6-1.1l1.74 1.54c-1 1.24-2.44 2-4.38 2zm-2.62-6.44h4.58c-.18-1.36-.98-2.28-2.26-2.28-1.26 0-2.08.9-2.32 2.28zm13.923 6.4c2.32 0 4.1-1.08 4.1-3.46v-.04c0-1.96-1.74-2.68-3.24-3.18-1.16-.4-2.18-.68-2.18-1.28v-.04c0-.42.38-.74 1.12-.74.78 0 1.84.38 2.9 1l1.16-2.1c-1.16-.78-2.64-1.24-4-1.24-2.16 0-3.92 1.22-3.92 3.4v.04c0 2.08 1.7 2.78 3.2 3.22 1.18.36 2.22.58 2.22 1.24v.04c0 .48-.4.8-1.28.8-1 0-2.22-.44-3.38-1.28l-1.3 2a7.51 7.51 0 0 0 4.6 1.62zm11.724.04c-3.22 0-5.6-2.26-5.6-5.54v-.04c0-3.06 2.18-5.58 5.3-5.58 3.58 0 5.22 2.78 5.22 5.82 0 .24-.02.52-.04.8h-7.46c.3 1.38 1.26 2.1 2.62 2.1 1.02 0 1.76-.32 2.6-1.1l1.74 1.54c-1 1.24-2.44 2-4.38 2zm-2.62-6.44h4.58c-.18-1.36-.98-2.28-2.26-2.28-1.26 0-2.08.9-2.32 2.28zm13.204 6.4c-2.02 0-3.68-1.16-3.68-3.28v-.04c0-2.34 1.78-3.42 4.32-3.42 1.08 0 1.86.18 2.62.44v-.18c0-1.26-.78-1.96-2.3-1.96-1.16 0-1.98.22-2.96.58l-.76-2.32c1.18-.52 2.34-.86 4.16-.86 1.66 0 2.86.44 3.62 1.2.8.8 1.16 1.98 1.16 3.42v6.22h-2.94v-1.16c-.74.82-1.76 1.36-3.24 1.36zm.92-2.1c1.42 0 2.38-.78 2.38-1.88v-.54c-.52-.24-1.2-.4-1.94-.4-1.3 0-2.1.52-2.1 1.48v.04c0 .82.68 1.3 1.66 1.3zm8.243 1.9h3.04v-3.96c0-2.56 1.24-3.78 3.26-3.78h.16v-3.18c-1.8-.08-2.8.88-3.42 2.36v-2.16h-3.04v10.72zm13.484.24c2.14 0 3.34-.82 4.38-1.96l-1.78-1.8c-.74.7-1.44 1.14-2.46 1.14-1.66 0-2.72-1.32-2.72-2.96v-.04c0-1.58 1.08-2.92 2.6-2.92 1.08 0 1.76.46 2.44 1.18l1.86-2c-1-1.12-2.26-1.8-4.28-1.8-3.28 0-5.62 2.52-5.62 5.58v.04c0 3.06 2.36 5.54 5.58 5.54zm6.723-.24h3.04v-5.98c0-1.44.74-2.18 1.9-2.18s1.84.74 1.84 2.18v5.98h3.04v-6.94c0-2.46-1.34-3.98-3.64-3.98-1.54 0-2.44.82-3.14 1.72V397h-3.04v14.6zm158.635 0l6-14.1h2.84l6 14.1h-3.22l-1.28-3.14h-5.92l-1.28 3.14H380zm5.52-5.86h3.72l-1.86-4.54-1.86 4.54zm11.524 5.86h3.04v-5.98c0-1.44.74-2.18 1.9-2.18s1.84.74 1.84 2.18v5.98h3.04v-6.94c0-2.46-1.34-3.98-3.64-3.98-1.54 0-2.44.82-3.14 1.72v-1.52h-3.04v10.72zm15.863.2c-2.02 0-3.68-1.16-3.68-3.28v-.04c0-2.34 1.78-3.42 4.32-3.42 1.08 0 1.86.18 2.62.44v-.18c0-1.26-.78-1.96-2.3-1.96-1.16 0-1.98.22-2.96.58l-.76-2.32c1.18-.52 2.34-.86 4.16-.86 1.66 0 2.86.44 3.62 1.2.8.8 1.16 1.98 1.16 3.42v6.22h-2.94v-1.16c-.74.82-1.76 1.36-3.24 1.36zm.92-2.1c1.42 0 2.38-.78 2.38-1.88v-.54c-.52-.24-1.2-.4-1.94-.4-1.3 0-2.1.52-2.1 1.48v.04c0 .82.68 1.3 1.66 1.3zm8.384 1.9h3.04V397h-3.04v14.6zm10.964-3.42l-2.44-7.3h-3.22l4.2 10.76c-.26.54-.54.7-1.06.7-.4 0-.9-.18-1.3-.42l-1.02 2.2c.78.46 1.6.74 2.7.74 1.82 0 2.7-.82 3.52-3l4.12-10.98h-3.16l-2.34 7.3zm11.023 3.62c2.32 0 4.1-1.08 4.1-3.46v-.04c0-1.96-1.74-2.68-3.24-3.18-1.16-.4-2.18-.68-2.18-1.28v-.04c0-.42.38-.74 1.12-.74.78 0 1.84.38 2.9 1l1.16-2.1c-1.16-.78-2.64-1.24-4-1.24-2.16 0-3.92 1.22-3.92 3.4v.04c0 2.08 1.7 2.78 3.2 3.22 1.18.36 2.22.58 2.22 1.24v.04c0 .48-.4.8-1.28.8-1 0-2.22-.44-3.38-1.28l-1.3 2a7.51 7.51 0 0 0 4.6 1.62zm11.724.04c-3.22 0-5.6-2.26-5.6-5.54v-.04c0-3.06 2.18-5.58 5.3-5.58 3.58 0 5.22 2.78 5.22 5.82 0 .24-.02.52-.04.8h-7.46c.3 1.38 1.26 2.1 2.62 2.1 1.02 0 1.76-.32 2.6-1.1l1.74 1.54c-1 1.24-2.44 2-4.38 2zm-2.62-6.44h4.58c-.18-1.36-.98-2.28-2.26-2.28-1.26 0-2.08.9-2.32 2.28zM953 412v-14h5.72c3.34 0 5.36 1.98 5.36 4.84v.04c0 3.24-2.52 4.92-5.66 4.92h-2.34v4.2H953zm3.08-6.94h2.44c1.54 0 2.44-.92 2.44-2.12v-.04c0-1.38-.96-2.12-2.5-2.12h-2.38v4.28zm10.324 6.94h3.04v-3.96c0-2.56 1.24-3.78 3.26-3.78h.16v-3.18c-1.8-.08-2.8.88-3.42 2.36v-2.16h-3.04V412zm13.683.24c-3.32 0-5.78-2.46-5.78-5.54v-.04c0-3.08 2.48-5.58 5.82-5.58 3.32 0 5.78 2.46 5.78 5.54v.04c0 3.08-2.48 5.58-5.82 5.58zm.04-2.62c1.74 0 2.78-1.34 2.78-2.92v-.04c0-1.58-1.14-2.96-2.82-2.96-1.74 0-2.78 1.34-2.78 2.92v.04c0 1.58 1.14 2.96 2.82 2.96zm11.964 2.56c1.02 0 1.76-.24 2.4-.62v-2.44c-.44.24-.94.38-1.5.38-.68 0-.98-.34-.98-1.04v-4.58h2.52v-2.6h-2.52v-2.74h-3.04v2.74h-1.28v2.6h1.28v5.08c0 2.48 1.26 3.22 3.12 3.22zm10.004.06c-3.32 0-5.78-2.46-5.78-5.54v-.04c0-3.08 2.48-5.58 5.82-5.58 3.32 0 5.78 2.46 5.78 5.54v.04c0 3.08-2.48 5.58-5.82 5.58zm.04-2.62c1.74 0 2.78-1.34 2.78-2.92v-.04c0-1.58-1.14-2.96-2.82-2.96-1.74 0-2.78 1.34-2.78 2.92v.04c0 1.58 1.14 2.96 2.82 2.96zm11.963 2.56c1.02 0 1.76-.24 2.4-.62v-2.44c-.44.24-.94.38-1.5.38-.68 0-.98-.34-.98-1.04v-4.58h2.52v-2.6h-2.52v-2.74h-3.04v2.74h-1.28v2.6h1.28v5.08c0 2.48 1.26 3.22 3.12 3.22zm9.744-3.6l-2.44-7.3h-3.22l4.2 10.76c-.26.54-.54.7-1.06.7-.4 0-.9-.18-1.3-.42l-1.02 2.2c.78.46 1.6.74 2.7.74 1.82 0 2.7-.82 3.52-3l4.12-10.98h-3.16l-2.34 7.3zm7.663 6.62v-13.92h3.04v1.54c.74-1 1.76-1.74 3.34-1.74 2.5 0 4.88 1.96 4.88 5.54v.04c0 3.58-2.34 5.54-4.88 5.54-1.62 0-2.62-.74-3.34-1.6v4.6h-3.04zm5.6-5.58c1.42 0 2.62-1.16 2.62-2.96v-.04c0-1.78-1.2-2.96-2.62-2.96-1.42 0-2.6 1.18-2.6 2.96v.04c0 1.78 1.18 2.96 2.6 2.96zm13.344 2.62c-3.22 0-5.6-2.26-5.6-5.54v-.04c0-3.06 2.18-5.58 5.3-5.58 3.58 0 5.22 2.78 5.22 5.82 0 .24-.02.52-.04.8h-7.46c.3 1.38 1.26 2.1 2.62 2.1 1.02 0 1.76-.32 2.6-1.1l1.74 1.54c-1 1.24-2.44 2-4.38 2zm-2.62-6.44h4.58c-.18-1.36-.98-2.28-2.26-2.28-1.26 0-2.08.9-2.32 2.28zM732 411.6h3.08v-14H732v14zm11.024.2c-2.5 0-4.88-1.96-4.88-5.54v-.04c0-3.58 2.34-5.54 4.88-5.54 1.62 0 2.62.74 3.34 1.6V397h3.04v14.6h-3.04v-1.54c-.74 1-1.76 1.74-3.34 1.74zm.78-2.58c1.42 0 2.6-1.18 2.6-2.96v-.04c0-1.78-1.18-2.96-2.6-2.96-1.42 0-2.62 1.16-2.62 2.96v.04c0 1.78 1.2 2.96 2.62 2.96zm13.763 2.62c-3.22 0-5.6-2.26-5.6-5.54v-.04c0-3.06 2.18-5.58 5.3-5.58 3.58 0 5.22 2.78 5.22 5.82 0 .24-.02.52-.04.8h-7.46c.3 1.38 1.26 2.1 2.62 2.1 1.02 0 1.76-.32 2.6-1.1l1.74 1.54c-1 1.24-2.44 2-4.38 2zm-2.62-6.44h4.58c-.18-1.36-.98-2.28-2.26-2.28-1.26 0-2.08.9-2.32 2.28zm13.204 6.4c-2.02 0-3.68-1.16-3.68-3.28v-.04c0-2.34 1.78-3.42 4.32-3.42 1.08 0 1.86.18 2.62.44v-.18c0-1.26-.78-1.96-2.3-1.96-1.16 0-1.98.22-2.96.58l-.76-2.32c1.18-.52 2.34-.86 4.16-.86 1.66 0 2.86.44 3.62 1.2.8.8 1.16 1.98 1.16 3.42v6.22h-2.94v-1.16c-.74.82-1.76 1.36-3.24 1.36zm.92-2.1c1.42 0 2.38-.78 2.38-1.88v-.54c-.52-.24-1.2-.4-1.94-.4-1.3 0-2.1.52-2.1 1.48v.04c0 .82.68 1.3 1.66 1.3zm11.764 2.08c1.02 0 1.76-.24 2.4-.62v-2.44c-.44.24-.94.38-1.5.38-.68 0-.98-.34-.98-1.04v-4.58h2.52v-2.6h-2.52v-2.74h-3.04v2.74h-1.28v2.6h1.28v5.08c0 2.48 1.26 3.22 3.12 3.22zm9.823.06c-3.22 0-5.6-2.26-5.6-5.54v-.04c0-3.06 2.18-5.58 5.3-5.58 3.58 0 5.22 2.78 5.22 5.82 0 .24-.02.52-.04.8h-7.46c.3 1.38 1.26 2.1 2.62 2.1 1.02 0 1.76-.32 2.6-1.1l1.74 1.54c-1 1.24-2.44 2-4.38 2zm-2.62-6.44h4.58c-.18-1.36-.98-2.28-2.26-2.28-1.26 0-2.08.9-2.32 2.28z" fill="#2C2C2C"/><path fill="#FFF" d="M814 556h75v17h-75z"/><path d="M818.82 568h3.08v-14h-3.08v14zm10.244.18c1.02 0 1.76-.24 2.4-.62v-2.44c-.44.24-.94.38-1.5.38-.68 0-.98-.34-.98-1.04v-4.58h2.52v-2.6h-2.52v-2.74h-3.04v2.74h-1.28v2.6h1.28v5.08c0 2.48 1.26 3.22 3.12 3.22zm9.823.06c-3.22 0-5.6-2.26-5.6-5.54v-.04c0-3.06 2.18-5.58 5.3-5.58 3.58 0 5.22 2.78 5.22 5.82 0 .24-.02.52-.04.8h-7.46c.3 1.38 1.26 2.1 2.62 2.1 1.02 0 1.76-.32 2.6-1.1l1.74 1.54c-1 1.24-2.44 2-4.38 2zm-2.62-6.44h4.58c-.18-1.36-.98-2.28-2.26-2.28-1.26 0-2.08.9-2.32 2.28zm10.164 6.2h3.04v-3.96c0-2.56 1.24-3.78 3.26-3.78h.16v-3.18c-1.8-.08-2.8.88-3.42 2.36v-2.16h-3.04V568zm11.264.2c-2.02 0-3.68-1.16-3.68-3.28v-.04c0-2.34 1.78-3.42 4.32-3.42 1.08 0 1.86.18 2.62.44v-.18c0-1.26-.78-1.96-2.3-1.96-1.16 0-1.98.22-2.96.58l-.76-2.32c1.18-.52 2.34-.86 4.16-.86 1.66 0 2.86.44 3.62 1.2.8.8 1.16 1.98 1.16 3.42V568h-2.94v-1.16c-.74.82-1.76 1.36-3.24 1.36zm.92-2.1c1.42 0 2.38-.78 2.38-1.88v-.54c-.52-.24-1.2-.4-1.94-.4-1.3 0-2.1.52-2.1 1.48v.04c0 .82.68 1.3 1.66 1.3zm11.763 2.08c1.02 0 1.76-.24 2.4-.62v-2.44c-.44.24-.94.38-1.5.38-.68 0-.98-.34-.98-1.04v-4.58h2.52v-2.6h-2.52v-2.74h-3.04v2.74h-1.28v2.6h1.28v5.08c0 2.48 1.26 3.22 3.12 3.22zm9.824.06c-3.22 0-5.6-2.26-5.6-5.54v-.04c0-3.06 2.18-5.58 5.3-5.58 3.58 0 5.22 2.78 5.22 5.82 0 .24-.02.52-.04.8h-7.46c.3 1.38 1.26 2.1 2.62 2.1 1.02 0 1.76-.32 2.6-1.1l1.74 1.54c-1 1.24-2.44 2-4.38 2zm-2.62-6.44h4.58c-.18-1.36-.98-2.28-2.26-2.28-1.26 0-2.08.9-2.32 2.28z" fill="#A7A7A7"/></g></svg>