<svg width="357" height="720" viewBox="0 0 357 720" xmlns="http://www.w3.org/2000/svg" xmlns:xlink="http://www.w3.org/1999/xlink"><title>Artboard 5</title><defs><path d="M14.996 36.375C5.326 41.937-.348 46.765.64 49.208c1.732 4.287 23.317-.391 48.212-10.45C73.747 28.7 92.524 17.072 90.792 12.785c-1.058-2.618-9.519-1.893-21.615 1.359a29.842 29.842 0 0 1 1.91 3.77c2.73-.264 4.453.005 4.81.889 1.121 2.774-11.658 10.553-28.544 17.375C30.468 43 15.871 46.281 14.75 43.507c-.28-.693.307-1.698 1.608-2.921l-.03-.074a29.874 29.874 0 0 1-1.332-4.137z" id="a"/></defs><g fill="none" fill-rule="evenodd"><ellipse fill="#2C2C2C" transform="rotate(90 177.795 696.791)" cx="177.795" cy="696.791" rx="19.791" ry="19.795"/><ellipse stroke="#2C2C2C" stroke-width="2" transform="rotate(90 178.311 84.31)" cx="178.311" cy="84.309" rx="10.309" ry="10.311"/><ellipse fill="#2C2C2C" transform="rotate(90 177.93 534.923)" cx="177.93" cy="534.923" rx="44.923" ry="44.93"/><ellipse stroke="#979797" stroke-dasharray="2" transform="rotate(90 178 436.208)" cx="178" cy="436.208" rx="282" ry="177.208"/><ellipse stroke="#979797" stroke-dasharray="2,2" transform="rotate(90 177.954 204.492)" cx="177.954" cy="204.492" rx="204.954" ry="79.492"/><ellipse stroke="#979797" stroke-dasharray="2,2" transform="rotate(90 177.834 90.589)" cx="177.834" cy="90.589" rx="90.834" ry="39.589"/><ellipse fill="#FFF" transform="rotate(90 200.885 507.885)" cx="200.885" cy="507.885" rx="1.885" ry="1.885"/><ellipse fill="#322C2F" transform="rotate(90 140.828 479.827)" cx="140.828" cy="479.827" rx="2.827" ry="2.828"/><ellipse fill="#322C2F" transform="rotate(90 133.885 575.885)" cx="133.885" cy="575.885" rx="1.885" ry="1.885"/><ellipse fill="#322C2F" transform="rotate(90 153 685)" cx="153" cy="685" rx="1" ry="1"/><ellipse fill="#322C2F" transform="rotate(90 146.514 705.513)" cx="146.514" cy="705.513" rx="2.513" ry="2.514"/><ellipse fill="#322C2F" transform="rotate(90 158.885 481.885)" cx="158.885" cy="481.885" rx="1.885" ry="1.885"/><ellipse fill="#2C2C2C" cx="177.765" cy="169.767" rx="14.765" ry="14.767"/><ellipse fill="#322C2F" cx="157.571" cy="160.571" rx="1.571" ry="1.571"/><ellipse fill="#322C2F" transform="matrix(1 0 0 -1 0 361.257)" cx="195.628" cy="180.628" rx="1" ry="1"/><ellipse stroke="#979797" stroke-dasharray="2,2" transform="rotate(90 177.688 326.7)" cx="177.688" cy="326.699" rx="254.688" ry="105.699"/><path d="M187.391 4.025c4.03 2.91 6.652 7.648 6.652 13 0 3.068-.863 5.935-2.358 8.371-.889.225-1.881.408-2.982.545-4.904.613-9.66-.307-13.873-2.075a25.03 25.03 0 0 1-1.77-.821 15.978 15.978 0 0 1-.62-.337.314.314 0 1 0-.322.539l.17.098c.138.076.3.163.484.258.526.271 1.133.556 1.815.842 4.306 1.807 9.167 2.747 14.193 2.12a26.793 26.793 0 0 0 2.406-.406 16.114 16.114 0 0 1-2.886 3.157 17.313 17.313 0 0 1-3.534.64c-2.256.162-4.568-.142-6.59-.656a12.796 12.796 0 0 1-.617-.17.314.314 0 0 0-.188.6l.173.05c.138.04.298.083.478.129 2.08.53 4.456.84 6.789.674.3-.022.597-.051.889-.09.464-.06.91-.134 1.334-.219a15.945 15.945 0 0 1-9.013 2.774c-8.848 0-16.021-7.174-16.021-16.024 0-2.837.737-5.501 2.03-7.813.72 1.606 2.18 3.525 4.54 5.783a22.778 22.778 0 0 0 2.185 1.84 23.418 23.418 0 0 0 7.127 3.584c.852.26 1.643.447 2.354.575a13.933 13.933 0 0 0 .907.133.314.314 0 0 0 .055-.626 13.31 13.31 0 0 1-.85-.125 20.1 20.1 0 0 1-2.282-.558 22.795 22.795 0 0 1-6.937-3.488 22.15 22.15 0 0 1-2.124-1.79c-2.562-2.449-4.001-4.423-4.585-5.987C167.25 4.017 172.283 1 178.02 1c2.982 0 5.774.815 8.165 2.234.643.612.768 1.14.33 1.565-.891.867-4.298-.077-5.048-.966a.314.314 0 1 0-.48.405c.955 1.132 4.758 2.186 5.966 1.012.385-.374.517-.794.437-1.225z" fill="#2C2C2C"/><g transform="translate(134 354)"><ellipse fill="#2C2C2C" cx="43.017" cy="27.021" rx="27.017" ry="27.021"/><use fill="#2C2C2C" xlink:href="#a"/><path stroke="#FFF" stroke-width="2" d="M14.497 35.508C3.957 41.571-1.559 46.435-.288 49.582c2.102 5.201 23.771.505 49.515-9.896C74.97 29.285 93.82 17.61 91.719 12.409c-1.349-3.339-9.67-2.762-22.802.768l-1.28.344.682 1.136a28.842 28.842 0 0 1 1.847 3.644l.285.678.732-.071c1.295-.125 2.319-.121 3.024.004.307.054.534.128.676.21.072.04.089.058.087.054.245.607-2.338 3.035-7.112 5.941-5.269 3.207-12.708 6.831-20.88 10.133-8.171 3.302-16.04 5.862-22.057 7.215-5.453 1.226-8.998 1.274-9.243.667-.062-.152.32-.834 1.365-1.818l.502-.472-.262-.637-.028-.068a28.874 28.874 0 0 1-1.287-3.998l-.315-1.296-1.156.665z"/></g><ellipse fill="#322C2F" transform="matrix(-1 0 0 1 393.77 0)" cx="196.885" cy="340.885" rx="1.885" ry="1.885"/><ellipse fill="#322C2F" transform="matrix(-1 0 0 1 483.77 0)" cx="241.885" cy="342.885" rx="1.885" ry="1.885"/><ellipse fill="#322C2F" transform="matrix(-1 0 0 1 427.655 0)" cx="213.827" cy="339.828" rx="2.827" ry="2.828"/><ellipse fill="#322C2F" transform="matrix(-1 0 0 1 437.141 0)" cx="218.571" cy="351.571" rx="1.571" ry="1.571"/><ellipse fill="#322C2F" transform="matrix(-1 0 0 1 305.141 0)" cx="152.571" cy="415.571" rx="1.571" ry="1.571"/><ellipse fill="#322C2F" transform="matrix(-1 0 0 1 283.257 0)" cx="141.628" cy="418.628" rx="1" ry="1"/><path d="M237.26 23V12.5h4.8c1.335 0 2.37.375 3.06 1.065.585.585.9 1.41.9 2.4v.03c0 1.695-.915 2.76-2.25 3.255l2.565 3.75h-2.7l-2.25-3.36h-1.815V23h-2.31zm2.31-5.4h2.34c1.125 0 1.77-.6 1.77-1.485v-.03c0-.99-.69-1.5-1.815-1.5h-2.295V17.6zm12.228 5.58c-2.415 0-4.2-1.695-4.2-4.155v-.03c0-2.295 1.635-4.185 3.975-4.185 2.685 0 3.915 2.085 3.915 4.365 0 .18-.015.39-.03.6h-5.595c.225 1.035.945 1.575 1.965 1.575.765 0 1.32-.24 1.95-.825l1.305 1.155c-.75.93-1.83 1.5-3.285 1.5zm-1.965-4.83h3.435c-.135-1.02-.735-1.71-1.695-1.71-.945 0-1.56.675-1.74 1.71zm10.442 4.8c1.74 0 3.075-.81 3.075-2.595v-.03c0-1.47-1.305-2.01-2.43-2.385-.87-.3-1.635-.51-1.635-.96v-.03c0-.315.285-.555.84-.555.585 0 1.38.285 2.175.75l.87-1.575c-.87-.585-1.98-.93-3-.93-1.62 0-2.94.915-2.94 2.55v.03c0 1.56 1.275 2.085 2.4 2.415.885.27 1.665.435 1.665.93v.03c0 .36-.3.6-.96.6-.75 0-1.665-.33-2.535-.96l-.975 1.5a5.632 5.632 0 0 0 3.45 1.215zm8.793.03c-2.415 0-4.2-1.695-4.2-4.155v-.03c0-2.295 1.635-4.185 3.975-4.185 2.685 0 3.915 2.085 3.915 4.365 0 .18-.015.39-.03.6h-5.595c.225 1.035.945 1.575 1.965 1.575.765 0 1.32-.24 1.95-.825l1.305 1.155c-.75.93-1.83 1.5-3.285 1.5zm-1.965-4.83h3.435c-.135-1.02-.735-1.71-1.695-1.71-.945 0-1.56.675-1.74 1.71zm9.903 4.8c-1.515 0-2.76-.87-2.76-2.46v-.03c0-1.755 1.335-2.565 3.24-2.565.81 0 1.395.135 1.965.33v-.135c0-.945-.585-1.47-1.725-1.47-.87 0-1.485.165-2.22.435l-.57-1.74c.885-.39 1.755-.645 3.12-.645 1.245 0 2.145.33 2.715.9.6.6.87 1.485.87 2.565V23h-2.205v-.87c-.555.615-1.32 1.02-2.43 1.02zm.69-1.575c1.065 0 1.785-.585 1.785-1.41v-.405c-.39-.18-.9-.3-1.455-.3-.975 0-1.575.39-1.575 1.11v.03c0 .615.51.975 1.245.975zM283.879 23h2.28v-2.97c0-1.92.93-2.835 2.445-2.835h.12V14.81c-1.35-.06-2.1.66-2.565 1.77v-1.62h-2.28V23zm10.112.18c1.605 0 2.505-.615 3.285-1.47l-1.335-1.35c-.555.525-1.08.855-1.845.855-1.245 0-2.04-.99-2.04-2.22v-.03c0-1.185.81-2.19 1.95-2.19.81 0 1.32.345 1.83.885l1.395-1.5c-.75-.84-1.695-1.35-3.21-1.35-2.46 0-4.215 1.89-4.215 4.185v.03c0 2.295 1.77 4.155 4.185 4.155zm5.043-.18h2.28v-4.485c0-1.08.555-1.635 1.425-1.635s1.38.555 1.38 1.635V23h2.28v-5.205c0-1.845-1.005-2.985-2.73-2.985-1.155 0-1.83.615-2.355 1.29v-4.05h-2.28V23z" fill="#2C2C2C"/><path fill="#FFF" d="M236 76h82v16h-82z"/><path d="M237.26 90V79.5h4.095c3.3 0 5.58 2.265 5.58 5.22v.03c0 2.955-2.28 5.25-5.58 5.25h-4.095zm4.095-8.415h-1.785v6.33h1.785c1.89 0 3.165-1.275 3.165-3.135v-.03c0-1.86-1.275-3.165-3.165-3.165zm11.478 8.595c-2.415 0-4.2-1.695-4.2-4.155v-.03c0-2.295 1.635-4.185 3.975-4.185 2.685 0 3.915 2.085 3.915 4.365 0 .18-.015.39-.03.6h-5.595c.225 1.035.945 1.575 1.965 1.575.765 0 1.32-.24 1.95-.825l1.305 1.155c-.75.93-1.83 1.5-3.285 1.5zm-1.965-4.83h3.435c-.135-1.02-.735-1.71-1.695-1.71-.945 0-1.56.675-1.74 1.71zM258.88 90h2.28v-6.09h1.815v-1.86h-1.845v-.315c0-.6.3-.87.825-.87.39 0 .705.075 1.035.195v-1.89c-.42-.135-.9-.225-1.62-.225-.81 0-1.425.21-1.845.63-.42.42-.645 1.065-.645 1.95v.51h-.945v1.875h.945V90zm5.445 0h2.28v-8.04h-2.28V90zm-.06-8.925h2.4V79.05h-2.4v2.025zM269.023 90h2.28v-4.485c0-1.08.555-1.635 1.425-1.635s1.38.555 1.38 1.635V90h2.28v-5.205c0-1.845-1.005-2.985-2.73-2.985-1.155 0-1.83.615-2.355 1.29v-1.14h-2.28V90zm13.428.18c-2.415 0-4.2-1.695-4.2-4.155v-.03c0-2.295 1.635-4.185 3.975-4.185 2.685 0 3.915 2.085 3.915 4.365 0 .18-.015.39-.03.6h-5.595c.225 1.035.945 1.575 1.965 1.575.765 0 1.32-.24 1.95-.825l1.305 1.155c-.75.93-1.83 1.5-3.285 1.5zm-1.965-4.83h3.435c-.135-1.02-.735-1.71-1.695-1.71-.945 0-1.56.675-1.74 1.71z" fill="#2C2C2C"/><path fill="#FFF" d="M234 375h84v15h-84zm2-212h82v15h-82z"/><path d="M237.365 387h2.31v-10.5h-2.31V387zm8.268.15c-1.875 0-3.66-1.47-3.66-4.155v-.03c0-2.685 1.755-4.155 3.66-4.155 1.215 0 1.965.555 2.505 1.2v-3.96h2.28V387h-2.28v-1.155c-.555.75-1.32 1.305-2.505 1.305zm.585-1.935c1.065 0 1.95-.885 1.95-2.22v-.03c0-1.335-.885-2.22-1.95-2.22s-1.965.87-1.965 2.22v.03c0 1.335.9 2.22 1.965 2.22zm10.322 1.965c-2.415 0-4.2-1.695-4.2-4.155v-.03c0-2.295 1.635-4.185 3.975-4.185 2.685 0 3.915 2.085 3.915 4.365 0 .18-.015.39-.03.6h-5.595c.225 1.035.945 1.575 1.965 1.575.765 0 1.32-.24 1.95-.825l1.305 1.155c-.75.93-1.83 1.5-3.285 1.5zm-1.965-4.83h3.435c-.135-1.02-.735-1.71-1.695-1.71-.945 0-1.56.675-1.74 1.71zm9.903 4.8c-1.515 0-2.76-.87-2.76-2.46v-.03c0-1.755 1.335-2.565 3.24-2.565.81 0 1.395.135 1.965.33v-.135c0-.945-.585-1.47-1.725-1.47-.87 0-1.485.165-2.22.435l-.57-1.74c.885-.39 1.755-.645 3.12-.645 1.245 0 2.145.33 2.715.9.6.6.87 1.485.87 2.565V387h-2.205v-.87c-.555.615-1.32 1.02-2.43 1.02zm.69-1.575c1.065 0 1.785-.585 1.785-1.41v-.405c-.39-.18-.9-.3-1.455-.3-.975 0-1.575.39-1.575 1.11v.03c0 .615.51.975 1.245.975zm8.823 1.56c.765 0 1.32-.18 1.8-.465v-1.83c-.33.18-.705.285-1.125.285-.51 0-.735-.255-.735-.78v-3.435h1.89v-1.95h-1.89v-2.055h-2.28v2.055h-.96v1.95h.96v3.81c0 1.86.945 2.415 2.34 2.415zm7.368.045c-2.415 0-4.2-1.695-4.2-4.155v-.03c0-2.295 1.635-4.185 3.975-4.185 2.685 0 3.915 2.085 3.915 4.365 0 .18-.015.39-.03.6h-5.595c.225 1.035.945 1.575 1.965 1.575.765 0 1.32-.24 1.95-.825l1.305 1.155c-.75.93-1.83 1.5-3.285 1.5zm-1.965-4.83h3.435c-.135-1.02-.735-1.71-1.695-1.71-.945 0-1.56.675-1.74 1.71z" fill="#2C2C2C"/><path fill="#FFF" d="M234 528h84v15h-84zm0 163h84v15h-84z"/><path d="M237.26 703h7.995v-2.055h-5.7v-2.205h4.95v-2.055h-4.95v-2.13h5.625V692.5h-7.92V703zm12.378.06h2.07l3.165-8.1h-2.37l-1.815 5.385-1.8-5.385h-2.415l3.165 8.1zm8.732.09c-1.515 0-2.76-.87-2.76-2.46v-.03c0-1.755 1.335-2.565 3.24-2.565.81 0 1.395.135 1.965.33v-.135c0-.945-.585-1.47-1.725-1.47-.87 0-1.485.165-2.22.435l-.57-1.74c.885-.39 1.755-.645 3.12-.645 1.245 0 2.145.33 2.715.9.6.6.87 1.485.87 2.565V703H260.8v-.87c-.555.615-1.32 1.02-2.43 1.02zm.69-1.575c1.065 0 1.785-.585 1.785-1.41v-.405c-.39-.18-.9-.3-1.455-.3-.975 0-1.575.39-1.575 1.11v.03c0 .615.51.975 1.245.975zm6.288 1.425h2.28v-10.95h-2.28V703zm7.368.15c1.155 0 1.83-.615 2.355-1.29V703h2.28v-8.04h-2.28v4.485c0 1.08-.555 1.635-1.425 1.635s-1.38-.555-1.38-1.635v-4.485h-2.28v5.205c0 1.845 1.005 2.985 2.73 2.985zm9.228 0c-1.515 0-2.76-.87-2.76-2.46v-.03c0-1.755 1.335-2.565 3.24-2.565.81 0 1.395.135 1.965.33v-.135c0-.945-.585-1.47-1.725-1.47-.87 0-1.485.165-2.22.435l-.57-1.74c.885-.39 1.755-.645 3.12-.645 1.245 0 2.145.33 2.715.9.6.6.87 1.485.87 2.565V703h-2.205v-.87c-.555.615-1.32 1.02-2.43 1.02zm.69-1.575c1.065 0 1.785-.585 1.785-1.41v-.405c-.39-.18-.9-.3-1.455-.3-.975 0-1.575.39-1.575 1.11v.03c0 .615.51.975 1.245.975zm8.822 1.56c.765 0 1.32-.18 1.8-.465v-1.83c-.33.18-.705.285-1.125.285-.51 0-.735-.255-.735-.78v-3.435h1.89v-1.95h-1.89v-2.055h-2.28v2.055h-.96v1.95h.96v3.81c0 1.86.945 2.415 2.34 2.415zm7.368.045c-2.415 0-4.2-1.695-4.2-4.155v-.03c0-2.295 1.635-4.185 3.975-4.185 2.685 0 3.915 2.085 3.915 4.365 0 .18-.015.39-.03.6h-5.595c.225 1.035.945 1.575 1.965 1.575.765 0 1.32-.24 1.95-.825l1.305 1.155c-.75.93-1.83 1.5-3.285 1.5zm-1.965-4.83h3.435c-.135-1.02-.735-1.71-1.695-1.71-.945 0-1.56.675-1.74 1.71z" fill="#2C2C2C"/><path d="M5.365 440h2.31v-10.5h-2.31V440zm7.683.135c.765 0 1.32-.18 1.8-.465v-1.83c-.33.18-.705.285-1.125.285-.51 0-.735-.255-.735-.78v-3.435h1.89v-1.95h-1.89v-2.055h-2.28v2.055h-.96v1.95h.96v3.81c0 1.86.945 2.415 2.34 2.415zm7.367.045c-2.415 0-4.2-1.695-4.2-4.155v-.03c0-2.295 1.635-4.185 3.975-4.185 2.685 0 3.915 2.085 3.915 4.365 0 .18-.015.39-.03.6H18.48c.225 1.035.945 1.575 1.965 1.575.765 0 1.32-.24 1.95-.825l1.305 1.155c-.75.93-1.83 1.5-3.285 1.5zm-1.965-4.83h3.435c-.135-1.02-.735-1.71-1.695-1.71-.945 0-1.56.675-1.74 1.71zm7.623 4.65h2.28v-2.97c0-1.92.93-2.835 2.445-2.835h.12v-2.385c-1.35-.06-2.1.66-2.565 1.77v-1.62h-2.28V440zm8.448.15c-1.515 0-2.76-.87-2.76-2.46v-.03c0-1.755 1.335-2.565 3.24-2.565.81 0 1.395.135 1.965.33v-.135c0-.945-.585-1.47-1.725-1.47-.87 0-1.485.165-2.22.435l-.57-1.74c.885-.39 1.755-.645 3.12-.645 1.245 0 2.145.33 2.715.9.6.6.87 1.485.87 2.565V440H36.95v-.87c-.555.615-1.32 1.02-2.43 1.02zm.69-1.575c1.065 0 1.785-.585 1.785-1.41v-.405c-.39-.18-.9-.3-1.455-.3-.975 0-1.575.39-1.575 1.11v.03c0 .615.51.975 1.245.975zm8.823 1.56c.765 0 1.32-.18 1.8-.465v-1.83c-.33.18-.705.285-1.125.285-.51 0-.735-.255-.735-.78v-3.435h1.89v-1.95h-1.89v-2.055h-2.28v2.055h-.96v1.95h.96v3.81c0 1.86.945 2.415 2.34 2.415zm7.367.045c-2.415 0-4.2-1.695-4.2-4.155v-.03c0-2.295 1.635-4.185 3.975-4.185 2.685 0 3.915 2.085 3.915 4.365 0 .18-.015.39-.03.6h-5.595c.225 1.035.945 1.575 1.965 1.575.765 0 1.32-.24 1.95-.825l1.305 1.155c-.75.93-1.83 1.5-3.285 1.5zm-1.965-4.83h3.435c-.135-1.02-.735-1.71-1.695-1.71-.945 0-1.56.675-1.74 1.71z" fill="#A7A7A7"/><path d="M236.36 176l4.5-10.575h2.13l4.5 10.575h-2.415l-.96-2.355h-4.44l-.96 2.355h-2.355zm4.14-4.395h2.79l-1.395-3.405-1.395 3.405zm8.643 4.395h2.28v-4.485c0-1.08.555-1.635 1.425-1.635s1.38.555 1.38 1.635V176h2.28v-5.205c0-1.845-1.005-2.985-2.73-2.985-1.155 0-1.83.615-2.355 1.29v-1.14h-2.28V176zm11.897.15c-1.515 0-2.76-.87-2.76-2.46v-.03c0-1.755 1.335-2.565 3.24-2.565.81 0 1.395.135 1.965.33v-.135c0-.945-.585-1.47-1.725-1.47-.87 0-1.485.165-2.22.435l-.57-1.74c.885-.39 1.755-.645 3.12-.645 1.245 0 2.145.33 2.715.9.6.6.87 1.485.87 2.565V176h-2.205v-.87c-.555.615-1.32 1.02-2.43 1.02zm.69-1.575c1.065 0 1.785-.585 1.785-1.41v-.405c-.39-.18-.9-.3-1.455-.3-.975 0-1.575.39-1.575 1.11v.03c0 .615.51.975 1.245.975zm6.288 1.425h2.28v-10.95h-2.28V176zm8.223-2.565l-1.83-5.475h-2.415l3.15 8.07c-.195.405-.405.525-.795.525-.3 0-.675-.135-.975-.315l-.765 1.65c.585.345 1.2.555 2.025.555 1.365 0 2.025-.615 2.64-2.25l3.09-8.235h-2.37l-1.755 5.475zm8.268 2.715c1.74 0 3.075-.81 3.075-2.595v-.03c0-1.47-1.305-2.01-2.43-2.385-.87-.3-1.635-.51-1.635-.96v-.03c0-.315.285-.555.84-.555.585 0 1.38.285 2.175.75l.87-1.575c-.87-.585-1.98-.93-3-.93-1.62 0-2.94.915-2.94 2.55v.03c0 1.56 1.275 2.085 2.4 2.415.885.27 1.665.435 1.665.93v.03c0 .36-.3.6-.96.6-.75 0-1.665-.33-2.535-.96l-.975 1.5a5.632 5.632 0 0 0 3.45 1.215zm8.792.03c-2.415 0-4.2-1.695-4.2-4.155v-.03c0-2.295 1.635-4.185 3.975-4.185 2.685 0 3.915 2.085 3.915 4.365 0 .18-.015.39-.03.6h-5.595c.225 1.035.945 1.575 1.965 1.575.765 0 1.32-.24 1.95-.825l1.305 1.155c-.75.93-1.83 1.5-3.285 1.5zm-1.965-4.83h3.435c-.135-1.02-.735-1.71-1.695-1.71-.945 0-1.56.675-1.74 1.71zM237.26 541v-10.5h4.29c2.505 0 4.02 1.485 4.02 3.63v.03c0 2.43-1.89 3.69-4.245 3.69h-1.755V541h-2.31zm2.31-5.205h1.83c1.155 0 1.83-.69 1.83-1.59v-.03c0-1.035-.72-1.59-1.875-1.59h-1.785v3.21zm7.743 5.205h2.28v-2.97c0-1.92.93-2.835 2.445-2.835h.12v-2.385c-1.35-.06-2.1.66-2.565 1.77v-1.62h-2.28V541zm10.262.18c-2.49 0-4.335-1.845-4.335-4.155v-.03c0-2.31 1.86-4.185 4.365-4.185 2.49 0 4.335 1.845 4.335 4.155v.03c0 2.31-1.86 4.185-4.365 4.185zm.03-1.965c1.305 0 2.085-1.005 2.085-2.19v-.03c0-1.185-.855-2.22-2.115-2.22-1.305 0-2.085 1.005-2.085 2.19v.03c0 1.185.855 2.22 2.115 2.22zm8.973 1.92c.765 0 1.32-.18 1.8-.465v-1.83c-.33.18-.705.285-1.125.285-.51 0-.735-.255-.735-.78v-3.435h1.89v-1.95h-1.89v-2.055h-2.28v2.055h-.96v1.95h.96v3.81c0 1.86.945 2.415 2.34 2.415zm7.503.045c-2.49 0-4.335-1.845-4.335-4.155v-.03c0-2.31 1.86-4.185 4.365-4.185 2.49 0 4.335 1.845 4.335 4.155v.03c0 2.31-1.86 4.185-4.365 4.185zm.03-1.965c1.305 0 2.085-1.005 2.085-2.19v-.03c0-1.185-.855-2.22-2.115-2.22-1.305 0-2.085 1.005-2.085 2.19v.03c0 1.185.855 2.22 2.115 2.22zm8.973 1.92c.765 0 1.32-.18 1.8-.465v-1.83c-.33.18-.705.285-1.125.285-.51 0-.735-.255-.735-.78v-3.435h1.89v-1.95h-1.89v-2.055h-2.28v2.055h-.96v1.95h.96v3.81c0 1.86.945 2.415 2.34 2.415zm7.307-2.7l-1.83-5.475h-2.415l3.15 8.07c-.195.405-.405.525-.795.525-.3 0-.675-.135-.975-.315l-.765 1.65c.585.345 1.2.555 2.025.555 1.365 0 2.025-.615 2.64-2.25l3.09-8.235h-2.37l-1.755 5.475zm5.748 4.965v-10.44h2.28v1.155c.555-.75 1.32-1.305 2.505-1.305 1.875 0 3.66 1.47 3.66 4.155v.03c0 2.685-1.755 4.155-3.66 4.155-1.215 0-1.965-.555-2.505-1.2v3.45h-2.28zm4.2-4.185c1.065 0 1.965-.87 1.965-2.22v-.03c0-1.335-.9-2.22-1.965-2.22s-1.95.885-1.95 2.22v.03c0 1.335.885 2.22 1.95 2.22zm10.008 1.965c-2.415 0-4.2-1.695-4.2-4.155v-.03c0-2.295 1.635-4.185 3.975-4.185 2.685 0 3.915 2.085 3.915 4.365 0 .18-.015.39-.03.6h-5.595c.225 1.035.945 1.575 1.965 1.575.765 0 1.32-.24 1.95-.825l1.305 1.155c-.75.93-1.83 1.5-3.285 1.5zm-1.965-4.83h3.435c-.135-1.02-.735-1.71-1.695-1.71-.945 0-1.56.675-1.74 1.71z" fill="#2C2C2C"/></g></svg>