<?xml version="1.0" encoding="UTF-8"?>
<svg width="1486px" height="574px" viewBox="0 0 1486 574" version="1.1" xmlns="http://www.w3.org/2000/svg" xmlns:xlink="http://www.w3.org/1999/xlink">
    <!-- Generator: Sketch 47.1 (45422) - http://www.bohemiancoding.com/sketch -->
    <title>solarsystem_horisontal</title>
    <desc>Created with Sketch.</desc>
    <defs></defs>
    <g id="Page-1" stroke="none" stroke-width="1" fill="none" fill-rule="evenodd">
        <g id="solarsystem_horisontal" transform="translate(0.000000, 2.000000)">
            <path d="M0.5,282.5 L1485.50135,282.5" id="line" stroke="#BCBCBC" stroke-linecap="square"></path>
            <ellipse id="stroke-1" stroke="#979797" stroke-dasharray="2,2" cx="483" cy="282.5" rx="327" ry="126.5"></ellipse>
            <ellipse id="eclipse-1" stroke="#FFFFFF" stroke-width="3" cx="483" cy="282.5" rx="327" ry="126.5"></ellipse>
            <ellipse id="stroke-2" stroke="#979797" stroke-dasharray="2,2" cx="301.5" cy="282.742137" rx="145.5" ry="63"></ellipse>
            <ellipse id="eclipse-2" stroke="#FFFFFF" stroke-width="3" cx="301.5" cy="282.742137" rx="145.5" ry="63"></ellipse>
            <ellipse id="stroke-3" stroke="#979797" stroke-dasharray="2,2" cx="674.5" cy="282.204984" rx="404.5" ry="168.204984"></ellipse>
            <ellipse id="eclipse-3" stroke="#FFFFFF" stroke-width="3" cx="674.5" cy="282.204984" rx="404.5" ry="168.204984"></ellipse>
            <ellipse id="stroke-4" stroke="#979797" stroke-dasharray="2" cx="846.5" cy="282" rx="450.5" ry="282"></ellipse>
            <ellipse id="eclipse-4" stroke="#FFFFFF" stroke-width="3" cx="846.5" cy="282" rx="450.5" ry="282"></ellipse>
            <path d="M199.413393,261.813374 C205.826454,266.444778 210,273.984997 210,282.5 C210,287.383481 208.62724,291.946336 206.246556,295.823731 C204.832079,296.180885 203.252787,296.47189 201.500528,296.690563 C193.695463,297.664597 186.125404,296.200711 179.421076,293.387337 C178.36046,292.942265 177.417199,292.499676 176.603189,292.080256 C176.31932,291.933993 176.072188,291.801268 175.863275,291.68467 C175.739481,291.615578 175.656855,291.567782 175.616881,291.543872 C175.379895,291.402124 175.072871,291.479329 174.931123,291.716314 C174.789375,291.9533 174.86658,292.260324 175.103565,292.402072 C175.152012,292.43105 175.243285,292.483848 175.375924,292.557876 C175.594399,292.679811 175.851298,292.817781 176.145163,292.969195 C176.981818,293.400282 177.948693,293.853951 179.03413,294.309439 C185.886775,297.185052 193.624023,298.681269 201.624362,297.682866 C203.000422,297.511141 204.275399,297.295203 205.45294,297.037546 C204.151057,298.910422 202.604507,300.600444 200.859571,302.06133 C199.598041,302.436346 198.171318,302.736625 196.591939,302.942931 C196.147332,303.001008 195.694886,303.046285 195.235202,303.079177 C191.64497,303.336069 187.96465,302.852796 184.747419,302.03463 C184.273651,301.914147 183.938778,301.818398 183.764592,301.763738 C183.501117,301.68106 183.220505,301.827625 183.137827,302.0911 C183.055149,302.354575 183.201714,302.635187 183.465189,302.717865 C183.514851,302.733449 183.607547,302.761284 183.740587,302.799324 C183.960008,302.862062 184.21436,302.930898 184.500957,303.003782 C187.813026,303.846066 191.592601,304.342373 195.306573,304.076626 C195.785398,304.042365 196.257219,303.995149 196.721463,303.934508 C197.46013,303.838019 198.168192,303.721272 198.844411,303.585883 C194.757565,306.371494 189.818962,308 184.5,308 C170.416739,308 159,296.583261 159,282.5 C159,277.985515 160.173146,273.745033 162.231211,270.06678 C163.37628,272.622022 165.700081,275.676866 169.458087,279.268658 C170.56587,280.327445 171.726505,281.302357 172.934119,282.196663 C176.544323,284.870221 180.411228,286.72254 184.278775,287.900827 C185.633646,288.313603 186.892761,288.612768 188.024398,288.816597 C188.422025,288.888217 188.77583,288.942827 189.081853,288.982702 C189.267944,289.006951 189.398293,289.021003 189.468938,289.027128 C189.744048,289.050984 189.986407,288.847302 190.010263,288.572192 C190.034118,288.297082 189.830436,288.054722 189.555326,288.030867 C189.49878,288.025964 189.382696,288.013449 189.211063,287.991085 C188.920878,287.953273 188.583082,287.901134 188.201664,287.832434 C187.107459,287.635347 185.886349,287.345212 184.57021,286.944237 C180.806297,285.797522 177.041742,283.994231 173.529251,281.393035 C172.354845,280.523322 171.226232,279.575307 170.149026,278.545745 C166.07147,274.648537 163.780977,271.506346 162.851021,269.018633 C167.354639,261.801804 175.366559,257 184.5,257 C189.246304,257 193.689743,258.296722 197.495369,260.555218 C198.518945,261.528942 198.717284,262.368993 198.020415,263.046179 C196.601998,264.424533 191.178655,262.922342 189.98641,261.508573 C189.808388,261.297474 189.492943,261.27066 189.281844,261.448681 C189.070745,261.626703 189.043931,261.942148 189.221953,262.153247 C190.741024,263.954569 196.794944,265.631421 198.717321,263.763341 C199.330627,263.167358 199.539839,262.500035 199.413393,261.813374 Z" id="planet-1" fill="#2C2C2C" fill-rule="nonzero"></path>
            <g id="empty-planet" transform="translate(272.000000, 264.000000)">
                <g id="planet-mask" fill-rule="nonzero" fill="#FFFFFF">
                    <circle id="path-1" cx="18" cy="18" r="18"></circle>
                </g>
                <circle id="planet-2" stroke="#2C2C2C" stroke-width="3" cx="18" cy="18" r="16.5"></circle>
            </g>
            <path d="M397,282.5 C397,295.478692 407.521308,306 420.5,306 C433.478692,306 444,295.478692 444,282.5 C444,269.521308 433.478692,259 420.5,259 C407.521308,259 397,269.521308 397,282.5" id="planet-3" fill="#2C2C2C" fill-rule="nonzero"></path>
            <g id="saturn" transform="translate(697.000000, 239.742137)">
                <circle id="planet-4" fill="#2C2C2C" fill-rule="nonzero" cx="67" cy="43" r="43"></circle>
                <path d="M23.4664158,57.1079695 C8.44945019,65.7453695 -0.36058486,73.2414046 1.1720583,77.0348295 C3.86162192,83.6917331 37.3830775,76.4255797 76.044325,60.8054218 C114.705573,45.1852639 143.866384,27.1261375 141.17682,20.4692339 C139.534407,16.4041192 126.394551,17.5310164 107.607863,22.5817398 C108.718989,24.4344674 109.712495,26.3874726 110.574538,28.4349031 C114.813793,28.0249725 117.491285,28.44288 118.045599,29.8148541 C119.785905,34.1222622 99.9392368,46.2026796 73.7168255,56.7972215 C47.4944141,67.3917634 24.826153,72.4884923 23.0858471,68.1810841 C22.6514188,67.1058362 23.5621597,65.5462214 25.5814551,63.6462643 C25.5656727,63.6079413 25.5498796,63.5692234 25.5340759,63.5301077 C24.6778037,61.4107598 23.9907013,59.2650579 23.4664158,57.1079695 Z" id="saturn-ring" fill="#2C2C2C" fill-rule="nonzero"></path>
                <path d="M22.9678299,56.2411291 C6.92234997,65.470106 -1.55813061,72.946842 0.244874448,77.4094361 C3.30357709,84.9799908 36.909094,77.6956162 76.4189316,61.7326057 C115.928769,45.7695951 145.162707,27.665182 142.104004,20.0946273 C140.185397,15.3459081 127.362813,16.2351946 107.348237,21.6160308 L106.068924,21.9599687 L106.750266,23.0960617 C107.845929,24.9230051 108.81584,26.8348601 109.652897,28.8229475 L109.938416,29.5010797 L110.670788,29.4302603 C114.564178,29.0537744 116.821107,29.4535988 117.118415,30.1894606 C117.664968,31.5422281 113.56245,35.3980395 105.847289,40.094161 C97.6379485,45.0910836 86.0588635,50.7321797 73.3422189,55.8700377 C60.6255743,61.0078956 48.3776429,64.9935389 39.0011833,67.1017409 C30.189161,69.0830348 24.5595845,69.159245 24.013031,67.8064775 C23.7999203,67.2790099 24.4877422,66.0484002 26.2667134,64.3745645 L26.7684512,63.9024789 L26.5061135,63.2654666 C26.4837159,63.2109062 26.4837159,63.2109062 26.4612597,63.1555011 C25.6300188,61.0981076 24.9552805,58.999542 24.4381259,56.8717929 L24.1233081,55.5765257 L22.9678299,56.2411291 Z" id="white-outline" stroke="#FFFFFF" stroke-width="2"></path>
            </g>
            <circle id="planet-5" fill="#2C2C2C" fill-rule="nonzero" cx="1004.5" cy="282.5" r="71.5"></circle>
            <circle id="planet-6" fill="#2C2C2C" fill-rule="nonzero" cx="1262.5" cy="282.5" r="31.5"></circle>
            <circle id="dot-11" fill="#FFFFFF" fill-rule="nonzero" cx="1046" cy="243.742137" r="3"></circle>
            <circle id="dot-6" fill="#322C2F" fill-rule="nonzero" cx="721" cy="228.742137" r="3"></circle>
            <circle id="dot-3" fill="#322C2F" fill-rule="nonzero" cx="649" cy="232.742137" r="3"></circle>
            <circle id="dot-5" fill="#322C2F" fill-rule="nonzero" cx="694.5" cy="228.242137" r="4.5"></circle>
            <circle id="dot-9" fill="#322C2F" fill-rule="nonzero" cx="919.5" cy="341.242137" r="4.5"></circle>
            <circle id="dot-12" fill="#322C2F" fill-rule="nonzero" cx="1072" cy="351.742137" r="3"></circle>
            <circle id="dot-13" fill="#322C2F" fill-rule="nonzero" cx="1222" cy="255" r="4"></circle>
            <circle id="dot-10" fill="#322C2F" fill-rule="nonzero" cx="923" cy="312.742137" r="3"></circle>
            <circle id="dot-4" fill="#322C2F" fill-rule="nonzero" cx="686.5" cy="246.242137" r="2.5"></circle>
            <circle id="dot-7" fill="#322C2F" fill-rule="nonzero" cx="808.5" cy="328.242137" r="2.5"></circle>
            <circle id="dot-8" fill="#322C2F" fill-rule="nonzero" cx="826" cy="332.742137" r="1"></circle>
            <circle id="dot-1" fill="#322C2F" fill-rule="nonzero" cx="399.5" cy="256.242137" r="2.5"></circle>
            <circle id="dot-2" fill="#322C2F" fill-rule="nonzero" transform="translate(449.000000, 299.742137) scale(-1, 1) rotate(-180.000000) translate(-449.000000, -299.742137) " cx="449" cy="299.742137" r="1"></circle>
            <path d="M1219,410.6 L1229.66,410.6 L1229.66,407.86 L1222.06,407.86 L1222.06,404.92 L1228.66,404.92 L1228.66,402.18 L1222.06,402.18 L1222.06,399.34 L1229.56,399.34 L1229.56,396.6 L1219,396.6 L1219,410.6 Z M1235.50364,410.68 L1238.26364,410.68 L1242.48364,399.88 L1239.32364,399.88 L1236.90364,407.06 L1234.50364,399.88 L1231.28364,399.88 L1235.50364,410.68 Z M1247.14727,410.8 C1245.12727,410.8 1243.46727,409.64 1243.46727,407.52 L1243.46727,407.48 C1243.46727,405.14 1245.24727,404.06 1247.78727,404.06 C1248.86727,404.06 1249.64727,404.24 1250.40727,404.5 L1250.40727,404.32 C1250.40727,403.06 1249.62727,402.36 1248.10727,402.36 C1246.94727,402.36 1246.12727,402.58 1245.14727,402.94 L1244.38727,400.62 C1245.56727,400.1 1246.72727,399.76 1248.54727,399.76 C1250.20727,399.76 1251.40727,400.2 1252.16727,400.96 C1252.96727,401.76 1253.32727,402.94 1253.32727,404.38 L1253.32727,410.6 L1250.38727,410.6 L1250.38727,409.44 C1249.64727,410.26 1248.62727,410.8 1247.14727,410.8 Z M1248.06727,408.7 C1249.48727,408.7 1250.44727,407.92 1250.44727,406.82 L1250.44727,406.28 C1249.92727,406.04 1249.24727,405.88 1248.50727,405.88 C1247.20727,405.88 1246.40727,406.4 1246.40727,407.36 L1246.40727,407.4 C1246.40727,408.22 1247.08727,408.7 1248.06727,408.7 Z M1256.45091,410.6 L1259.49091,410.6 L1259.49091,396 L1256.45091,396 L1256.45091,410.6 Z M1266.27455,410.8 C1267.81455,410.8 1268.71455,409.98 1269.41455,409.08 L1269.41455,410.6 L1272.45455,410.6 L1272.45455,399.88 L1269.41455,399.88 L1269.41455,405.86 C1269.41455,407.3 1268.67455,408.04 1267.51455,408.04 C1266.35455,408.04 1265.67455,407.3 1265.67455,405.86 L1265.67455,399.88 L1262.63455,399.88 L1262.63455,406.82 C1262.63455,409.28 1263.97455,410.8 1266.27455,410.8 Z M1278.57818,410.8 C1276.55818,410.8 1274.89818,409.64 1274.89818,407.52 L1274.89818,407.48 C1274.89818,405.14 1276.67818,404.06 1279.21818,404.06 C1280.29818,404.06 1281.07818,404.24 1281.83818,404.5 L1281.83818,404.32 C1281.83818,403.06 1281.05818,402.36 1279.53818,402.36 C1278.37818,402.36 1277.55818,402.58 1276.57818,402.94 L1275.81818,400.62 C1276.99818,400.1 1278.15818,399.76 1279.97818,399.76 C1281.63818,399.76 1282.83818,400.2 1283.59818,400.96 C1284.39818,401.76 1284.75818,402.94 1284.75818,404.38 L1284.75818,410.6 L1281.81818,410.6 L1281.81818,409.44 C1281.07818,410.26 1280.05818,410.8 1278.57818,410.8 Z M1279.49818,408.7 C1280.91818,408.7 1281.87818,407.92 1281.87818,406.82 L1281.87818,406.28 C1281.35818,406.04 1280.67818,405.88 1279.93818,405.88 C1278.63818,405.88 1277.83818,406.4 1277.83818,407.36 L1277.83818,407.4 C1277.83818,408.22 1278.51818,408.7 1279.49818,408.7 Z M1291.26182,410.78 C1292.28182,410.78 1293.02182,410.54 1293.66182,410.16 L1293.66182,407.72 C1293.22182,407.96 1292.72182,408.1 1292.16182,408.1 C1291.48182,408.1 1291.18182,407.76 1291.18182,407.06 L1291.18182,402.48 L1293.70182,402.48 L1293.70182,399.88 L1291.18182,399.88 L1291.18182,397.14 L1288.14182,397.14 L1288.14182,399.88 L1286.86182,399.88 L1286.86182,402.48 L1288.14182,402.48 L1288.14182,407.56 C1288.14182,410.04 1289.40182,410.78 1291.26182,410.78 Z M1301.08545,410.84 C1297.86545,410.84 1295.48545,408.58 1295.48545,405.3 L1295.48545,405.26 C1295.48545,402.2 1297.66545,399.68 1300.78545,399.68 C1304.36545,399.68 1306.00545,402.46 1306.00545,405.5 C1306.00545,405.74 1305.98545,406.02 1305.96545,406.3 L1298.50545,406.3 C1298.80545,407.68 1299.76545,408.4 1301.12545,408.4 C1302.14545,408.4 1302.88545,408.08 1303.72545,407.3 L1305.46545,408.84 C1304.46545,410.08 1303.02545,410.84 1301.08545,410.84 Z M1298.46545,404.4 L1303.04545,404.4 C1302.86545,403.04 1302.06545,402.12 1300.78545,402.12 C1299.52545,402.12 1298.70545,403.02 1298.46545,404.4 Z" id="Evaluate" fill="#2C2C2C" fill-rule="nonzero"></path>
            <path d="M258,410.74 L258,396.74 L263.46,396.74 C267.86,396.74 270.9,399.76 270.9,403.7 L270.9,403.74 C270.9,407.68 267.86,410.74 263.46,410.74 L258,410.74 Z M263.46,399.52 L261.08,399.52 L261.08,407.96 L263.46,407.96 C265.98,407.96 267.68,406.26 267.68,403.78 L267.68,403.74 C267.68,401.26 265.98,399.52 263.46,399.52 Z M278.763636,410.98 C275.543636,410.98 273.163636,408.72 273.163636,405.44 L273.163636,405.4 C273.163636,402.34 275.343636,399.82 278.463636,399.82 C282.043636,399.82 283.683636,402.6 283.683636,405.64 C283.683636,405.88 283.663636,406.16 283.643636,406.44 L276.183636,406.44 C276.483636,407.82 277.443636,408.54 278.803636,408.54 C279.823636,408.54 280.563636,408.22 281.403636,407.44 L283.143636,408.98 C282.143636,410.22 280.703636,410.98 278.763636,410.98 Z M276.143636,404.54 L280.723636,404.54 C280.543636,403.18 279.743636,402.26 278.463636,402.26 C277.203636,402.26 276.383636,403.16 276.143636,404.54 Z M286.827273,410.74 L289.867273,410.74 L289.867273,402.62 L292.287273,402.62 L292.287273,400.14 L289.827273,400.14 L289.827273,399.72 C289.827273,398.92 290.227273,398.56 290.927273,398.56 C291.447273,398.56 291.867273,398.66 292.307273,398.82 L292.307273,396.3 C291.747273,396.12 291.107273,396 290.147273,396 C289.067273,396 288.247273,396.28 287.687273,396.84 C287.127273,397.4 286.827273,398.26 286.827273,399.44 L286.827273,400.12 L285.567273,400.12 L285.567273,402.62 L286.827273,402.62 L286.827273,410.74 Z M294.087273,410.74 L297.127273,410.74 L297.127273,400.02 L294.087273,400.02 L294.087273,410.74 Z M294.007273,398.84 L297.207273,398.84 L297.207273,396.14 L294.007273,396.14 L294.007273,398.84 Z M300.350909,410.74 L303.390909,410.74 L303.390909,404.76 C303.390909,403.32 304.130909,402.58 305.290909,402.58 C306.450909,402.58 307.130909,403.32 307.130909,404.76 L307.130909,410.74 L310.170909,410.74 L310.170909,403.8 C310.170909,401.34 308.830909,399.82 306.530909,399.82 C304.990909,399.82 304.090909,400.64 303.390909,401.54 L303.390909,400.02 L300.350909,400.02 L300.350909,410.74 Z M318.254545,410.98 C315.034545,410.98 312.654545,408.72 312.654545,405.44 L312.654545,405.4 C312.654545,402.34 314.834545,399.82 317.954545,399.82 C321.534545,399.82 323.174545,402.6 323.174545,405.64 C323.174545,405.88 323.154545,406.16 323.134545,406.44 L315.674545,406.44 C315.974545,407.82 316.934545,408.54 318.294545,408.54 C319.314545,408.54 320.054545,408.22 320.894545,407.44 L322.634545,408.98 C321.634545,410.22 320.194545,410.98 318.254545,410.98 Z M315.634545,404.54 L320.214545,404.54 C320.034545,403.18 319.234545,402.26 317.954545,402.26 C316.694545,402.26 315.874545,403.16 315.634545,404.54 Z" id="Define" fill="#2C2C2C" fill-rule="nonzero"></path>
            <path d="M139,410.6 L139,396.6 L145.4,396.6 C147.18,396.6 148.56,397.1 149.48,398.02 C150.26,398.8 150.68,399.9 150.68,401.22 L150.68,401.26 C150.68,403.52 149.46,404.94 147.68,405.6 L151.1,410.6 L147.5,410.6 L144.5,406.12 L142.08,406.12 L142.08,410.6 L139,410.6 Z M142.08,403.4 L145.2,403.4 C146.7,403.4 147.56,402.6 147.56,401.42 L147.56,401.38 C147.56,400.06 146.64,399.38 145.14,399.38 L142.08,399.38 L142.08,403.4 Z M158.383636,410.84 C155.163636,410.84 152.783636,408.58 152.783636,405.3 L152.783636,405.26 C152.783636,402.2 154.963636,399.68 158.083636,399.68 C161.663636,399.68 163.303636,402.46 163.303636,405.5 C163.303636,405.74 163.283636,406.02 163.263636,406.3 L155.803636,406.3 C156.103636,407.68 157.063636,408.4 158.423636,408.4 C159.443636,408.4 160.183636,408.08 161.023636,407.3 L162.763636,408.84 C161.763636,410.08 160.323636,410.84 158.383636,410.84 Z M155.763636,404.4 L160.343636,404.4 C160.163636,403.04 159.363636,402.12 158.083636,402.12 C156.823636,402.12 156.003636,403.02 155.763636,404.4 Z M169.687273,410.8 C172.007273,410.8 173.787273,409.72 173.787273,407.34 L173.787273,407.3 C173.787273,405.34 172.047273,404.62 170.547273,404.12 C169.387273,403.72 168.367273,403.44 168.367273,402.84 L168.367273,402.8 C168.367273,402.38 168.747273,402.06 169.487273,402.06 C170.267273,402.06 171.327273,402.44 172.387273,403.06 L173.547273,400.96 C172.387273,400.18 170.907273,399.72 169.547273,399.72 C167.387273,399.72 165.627273,400.94 165.627273,403.12 L165.627273,403.16 C165.627273,405.24 167.327273,405.94 168.827273,406.38 C170.007273,406.74 171.047273,406.96 171.047273,407.62 L171.047273,407.66 C171.047273,408.14 170.647273,408.46 169.767273,408.46 C168.767273,408.46 167.547273,408.02 166.387273,407.18 L165.087273,409.18 C166.507273,410.3 168.187273,410.8 169.687273,410.8 Z M181.410909,410.84 C178.190909,410.84 175.810909,408.58 175.810909,405.3 L175.810909,405.26 C175.810909,402.2 177.990909,399.68 181.110909,399.68 C184.690909,399.68 186.330909,402.46 186.330909,405.5 C186.330909,405.74 186.310909,406.02 186.290909,406.3 L178.830909,406.3 C179.130909,407.68 180.090909,408.4 181.450909,408.4 C182.470909,408.4 183.210909,408.08 184.050909,407.3 L185.790909,408.84 C184.790909,410.08 183.350909,410.84 181.410909,410.84 Z M178.790909,404.4 L183.370909,404.4 C183.190909,403.04 182.390909,402.12 181.110909,402.12 C179.850909,402.12 179.030909,403.02 178.790909,404.4 Z M191.994545,410.8 C189.974545,410.8 188.314545,409.64 188.314545,407.52 L188.314545,407.48 C188.314545,405.14 190.094545,404.06 192.634545,404.06 C193.714545,404.06 194.494545,404.24 195.254545,404.5 L195.254545,404.32 C195.254545,403.06 194.474545,402.36 192.954545,402.36 C191.794545,402.36 190.974545,402.58 189.994545,402.94 L189.234545,400.62 C190.414545,400.1 191.574545,399.76 193.394545,399.76 C195.054545,399.76 196.254545,400.2 197.014545,400.96 C197.814545,401.76 198.174545,402.94 198.174545,404.38 L198.174545,410.6 L195.234545,410.6 L195.234545,409.44 C194.494545,410.26 193.474545,410.8 191.994545,410.8 Z M192.914545,408.7 C194.334545,408.7 195.294545,407.92 195.294545,406.82 L195.294545,406.28 C194.774545,406.04 194.094545,405.88 193.354545,405.88 C192.054545,405.88 191.254545,406.4 191.254545,407.36 L191.254545,407.4 C191.254545,408.22 191.934545,408.7 192.914545,408.7 Z M201.158182,410.6 L204.198182,410.6 L204.198182,406.64 C204.198182,404.08 205.438182,402.86 207.458182,402.86 L207.618182,402.86 L207.618182,399.68 C205.818182,399.6 204.818182,400.56 204.198182,402.04 L204.198182,399.88 L201.158182,399.88 L201.158182,410.6 Z M214.641818,410.84 C216.781818,410.84 217.981818,410.02 219.021818,408.88 L217.241818,407.08 C216.501818,407.78 215.801818,408.22 214.781818,408.22 C213.121818,408.22 212.061818,406.9 212.061818,405.26 L212.061818,405.22 C212.061818,403.64 213.141818,402.3 214.661818,402.3 C215.741818,402.3 216.421818,402.76 217.101818,403.48 L218.961818,401.48 C217.961818,400.36 216.701818,399.68 214.681818,399.68 C211.401818,399.68 209.061818,402.2 209.061818,405.26 L209.061818,405.3 C209.061818,408.36 211.421818,410.84 214.641818,410.84 Z M221.365454,410.6 L224.405454,410.6 L224.405454,404.62 C224.405454,403.18 225.145454,402.44 226.305454,402.44 C227.465454,402.44 228.145454,403.18 228.145454,404.62 L228.145454,410.6 L231.185454,410.6 L231.185454,403.66 C231.185454,401.2 229.845454,399.68 227.545454,399.68 C226.005454,399.68 225.105454,400.5 224.405454,401.4 L224.405454,396 L221.365454,396 L221.365454,410.6 Z" id="Research" fill="#2C2C2C" fill-rule="nonzero"></path>
            <path d="M380,410.6 L386,396.5 L388.84,396.5 L394.84,410.6 L391.62,410.6 L390.34,407.46 L384.42,407.46 L383.14,410.6 L380,410.6 Z M385.52,404.74 L389.24,404.74 L387.38,400.2 L385.52,404.74 Z M397.043636,410.6 L400.083636,410.6 L400.083636,404.62 C400.083636,403.18 400.823636,402.44 401.983636,402.44 C403.143636,402.44 403.823636,403.18 403.823636,404.62 L403.823636,410.6 L406.863636,410.6 L406.863636,403.66 C406.863636,401.2 405.523636,399.68 403.223636,399.68 C401.683636,399.68 400.783636,400.5 400.083636,401.4 L400.083636,399.88 L397.043636,399.88 L397.043636,410.6 Z M412.907273,410.8 C410.887273,410.8 409.227273,409.64 409.227273,407.52 L409.227273,407.48 C409.227273,405.14 411.007273,404.06 413.547273,404.06 C414.627273,404.06 415.407273,404.24 416.167273,404.5 L416.167273,404.32 C416.167273,403.06 415.387273,402.36 413.867273,402.36 C412.707273,402.36 411.887273,402.58 410.907273,402.94 L410.147273,400.62 C411.327273,400.1 412.487273,399.76 414.307273,399.76 C415.967273,399.76 417.167273,400.2 417.927273,400.96 C418.727273,401.76 419.087273,402.94 419.087273,404.38 L419.087273,410.6 L416.147273,410.6 L416.147273,409.44 C415.407273,410.26 414.387273,410.8 412.907273,410.8 Z M413.827273,408.7 C415.247273,408.7 416.207273,407.92 416.207273,406.82 L416.207273,406.28 C415.687273,406.04 415.007273,405.88 414.267273,405.88 C412.967273,405.88 412.167273,406.4 412.167273,407.36 L412.167273,407.4 C412.167273,408.22 412.847273,408.7 413.827273,408.7 Z M422.210909,410.6 L425.250909,410.6 L425.250909,396 L422.210909,396 L422.210909,410.6 Z M433.174545,407.18 L430.734545,399.88 L427.514545,399.88 L431.714545,410.64 C431.454545,411.18 431.174545,411.34 430.654545,411.34 C430.254545,411.34 429.754545,411.16 429.354545,410.92 L428.334545,413.12 C429.114545,413.58 429.934545,413.86 431.034545,413.86 C432.854545,413.86 433.734545,413.04 434.554545,410.86 L438.674545,399.88 L435.514545,399.88 L433.174545,407.18 Z M444.198182,410.8 C446.518182,410.8 448.298182,409.72 448.298182,407.34 L448.298182,407.3 C448.298182,405.34 446.558182,404.62 445.058182,404.12 C443.898182,403.72 442.878182,403.44 442.878182,402.84 L442.878182,402.8 C442.878182,402.38 443.258182,402.06 443.998182,402.06 C444.778182,402.06 445.838182,402.44 446.898182,403.06 L448.058182,400.96 C446.898182,400.18 445.418182,399.72 444.058182,399.72 C441.898182,399.72 440.138182,400.94 440.138182,403.12 L440.138182,403.16 C440.138182,405.24 441.838182,405.94 443.338182,406.38 C444.518182,406.74 445.558182,406.96 445.558182,407.62 L445.558182,407.66 C445.558182,408.14 445.158182,408.46 444.278182,408.46 C443.278182,408.46 442.058182,408.02 440.898182,407.18 L439.598182,409.18 C441.018182,410.3 442.698182,410.8 444.198182,410.8 Z M455.921818,410.84 C452.701818,410.84 450.321818,408.58 450.321818,405.3 L450.321818,405.26 C450.321818,402.2 452.501818,399.68 455.621818,399.68 C459.201818,399.68 460.841818,402.46 460.841818,405.5 C460.841818,405.74 460.821818,406.02 460.801818,406.3 L453.341818,406.3 C453.641818,407.68 454.601818,408.4 455.961818,408.4 C456.981818,408.4 457.721818,408.08 458.561818,407.3 L460.301818,408.84 C459.301818,410.08 457.861818,410.84 455.921818,410.84 Z M453.301818,404.4 L457.881818,404.4 C457.701818,403.04 456.901818,402.12 455.621818,402.12 C454.361818,402.12 453.541818,403.02 453.301818,404.4 Z" id="Analyse" fill="#2C2C2C" fill-rule="nonzero"></path>
            <path d="M953,411 L953,397 L958.72,397 C962.06,397 964.08,398.98 964.08,401.84 L964.08,401.88 C964.08,405.12 961.56,406.8 958.42,406.8 L956.08,406.8 L956.08,411 L953,411 Z M956.08,404.06 L958.52,404.06 C960.06,404.06 960.96,403.14 960.96,401.94 L960.96,401.9 C960.96,400.52 960,399.78 958.46,399.78 L956.08,399.78 L956.08,404.06 Z M966.403636,411 L969.443636,411 L969.443636,407.04 C969.443636,404.48 970.683636,403.26 972.703636,403.26 L972.863636,403.26 L972.863636,400.08 C971.063636,400 970.063636,400.96 969.443636,402.44 L969.443636,400.28 L966.403636,400.28 L966.403636,411 Z M980.087273,411.24 C976.767273,411.24 974.307273,408.78 974.307273,405.7 L974.307273,405.66 C974.307273,402.58 976.787273,400.08 980.127273,400.08 C983.447273,400.08 985.907273,402.54 985.907273,405.62 L985.907273,405.66 C985.907273,408.74 983.427273,411.24 980.087273,411.24 Z M980.127273,408.62 C981.867273,408.62 982.907273,407.28 982.907273,405.7 L982.907273,405.66 C982.907273,404.08 981.767273,402.7 980.087273,402.7 C978.347273,402.7 977.307273,404.04 977.307273,405.62 L977.307273,405.66 C977.307273,407.24 978.447273,408.62 980.127273,408.62 Z M992.090909,411.18 C993.110909,411.18 993.850909,410.94 994.490909,410.56 L994.490909,408.12 C994.050909,408.36 993.550909,408.5 992.990909,408.5 C992.310909,408.5 992.010909,408.16 992.010909,407.46 L992.010909,402.88 L994.530909,402.88 L994.530909,400.28 L992.010909,400.28 L992.010909,397.54 L988.970909,397.54 L988.970909,400.28 L987.690909,400.28 L987.690909,402.88 L988.970909,402.88 L988.970909,407.96 C988.970909,410.44 990.230909,411.18 992.090909,411.18 Z M1002.09455,411.24 C998.774545,411.24 996.314545,408.78 996.314545,405.7 L996.314545,405.66 C996.314545,402.58 998.794545,400.08 1002.13455,400.08 C1005.45455,400.08 1007.91455,402.54 1007.91455,405.62 L1007.91455,405.66 C1007.91455,408.74 1005.43455,411.24 1002.09455,411.24 Z M1002.13455,408.62 C1003.87455,408.62 1004.91455,407.28 1004.91455,405.7 L1004.91455,405.66 C1004.91455,404.08 1003.77455,402.7 1002.09455,402.7 C1000.35455,402.7 999.314545,404.04 999.314545,405.62 L999.314545,405.66 C999.314545,407.24 1000.45455,408.62 1002.13455,408.62 Z M1014.09818,411.18 C1015.11818,411.18 1015.85818,410.94 1016.49818,410.56 L1016.49818,408.12 C1016.05818,408.36 1015.55818,408.5 1014.99818,408.5 C1014.31818,408.5 1014.01818,408.16 1014.01818,407.46 L1014.01818,402.88 L1016.53818,402.88 L1016.53818,400.28 L1014.01818,400.28 L1014.01818,397.54 L1010.97818,397.54 L1010.97818,400.28 L1009.69818,400.28 L1009.69818,402.88 L1010.97818,402.88 L1010.97818,407.96 C1010.97818,410.44 1012.23818,411.18 1014.09818,411.18 Z M1023.84182,407.58 L1021.40182,400.28 L1018.18182,400.28 L1022.38182,411.04 C1022.12182,411.58 1021.84182,411.74 1021.32182,411.74 C1020.92182,411.74 1020.42182,411.56 1020.02182,411.32 L1019.00182,413.52 C1019.78182,413.98 1020.60182,414.26 1021.70182,414.26 C1023.52182,414.26 1024.40182,413.44 1025.22182,411.26 L1029.34182,400.28 L1026.18182,400.28 L1023.84182,407.58 Z M1031.50545,414.2 L1031.50545,400.28 L1034.54545,400.28 L1034.54545,401.82 C1035.28545,400.82 1036.30545,400.08 1037.88545,400.08 C1040.38545,400.08 1042.76545,402.04 1042.76545,405.62 L1042.76545,405.66 C1042.76545,409.24 1040.42545,411.2 1037.88545,411.2 C1036.26545,411.2 1035.26545,410.46 1034.54545,409.6 L1034.54545,414.2 L1031.50545,414.2 Z M1037.10545,408.62 C1038.52545,408.62 1039.72545,407.46 1039.72545,405.66 L1039.72545,405.62 C1039.72545,403.84 1038.52545,402.66 1037.10545,402.66 C1035.68545,402.66 1034.50545,403.84 1034.50545,405.62 L1034.50545,405.66 C1034.50545,407.44 1035.68545,408.62 1037.10545,408.62 Z M1050.44909,411.24 C1047.22909,411.24 1044.84909,408.98 1044.84909,405.7 L1044.84909,405.66 C1044.84909,402.6 1047.02909,400.08 1050.14909,400.08 C1053.72909,400.08 1055.36909,402.86 1055.36909,405.9 C1055.36909,406.14 1055.34909,406.42 1055.32909,406.7 L1047.86909,406.7 C1048.16909,408.08 1049.12909,408.8 1050.48909,408.8 C1051.50909,408.8 1052.24909,408.48 1053.08909,407.7 L1054.82909,409.24 C1053.82909,410.48 1052.38909,411.24 1050.44909,411.24 Z M1047.82909,404.8 L1052.40909,404.8 C1052.22909,403.44 1051.42909,402.52 1050.14909,402.52 C1048.88909,402.52 1048.06909,403.42 1047.82909,404.8 Z" id="Prototype" fill="#2C2C2C" fill-rule="nonzero"></path>
            <path d="M732,410.6 L735.08,410.6 L735.08,396.6 L732,396.6 L732,410.6 Z M743.023636,410.8 C740.523636,410.8 738.143636,408.84 738.143636,405.26 L738.143636,405.22 C738.143636,401.64 740.483636,399.68 743.023636,399.68 C744.643636,399.68 745.643636,400.42 746.363636,401.28 L746.363636,396 L749.403636,396 L749.403636,410.6 L746.363636,410.6 L746.363636,409.06 C745.623636,410.06 744.603636,410.8 743.023636,410.8 Z M743.803636,408.22 C745.223636,408.22 746.403636,407.04 746.403636,405.26 L746.403636,405.22 C746.403636,403.44 745.223636,402.26 743.803636,402.26 C742.383636,402.26 741.183636,403.42 741.183636,405.22 L741.183636,405.26 C741.183636,407.04 742.383636,408.22 743.803636,408.22 Z M757.567273,410.84 C754.347273,410.84 751.967273,408.58 751.967273,405.3 L751.967273,405.26 C751.967273,402.2 754.147273,399.68 757.267273,399.68 C760.847273,399.68 762.487273,402.46 762.487273,405.5 C762.487273,405.74 762.467273,406.02 762.447273,406.3 L754.987273,406.3 C755.287273,407.68 756.247273,408.4 757.607273,408.4 C758.627273,408.4 759.367273,408.08 760.207273,407.3 L761.947273,408.84 C760.947273,410.08 759.507273,410.84 757.567273,410.84 Z M754.947273,404.4 L759.527273,404.4 C759.347273,403.04 758.547273,402.12 757.267273,402.12 C756.007273,402.12 755.187273,403.02 754.947273,404.4 Z M768.150909,410.8 C766.130909,410.8 764.470909,409.64 764.470909,407.52 L764.470909,407.48 C764.470909,405.14 766.250909,404.06 768.790909,404.06 C769.870909,404.06 770.650909,404.24 771.410909,404.5 L771.410909,404.32 C771.410909,403.06 770.630909,402.36 769.110909,402.36 C767.950909,402.36 767.130909,402.58 766.150909,402.94 L765.390909,400.62 C766.570909,400.1 767.730909,399.76 769.550909,399.76 C771.210909,399.76 772.410909,400.2 773.170909,400.96 C773.970909,401.76 774.330909,402.94 774.330909,404.38 L774.330909,410.6 L771.390909,410.6 L771.390909,409.44 C770.650909,410.26 769.630909,410.8 768.150909,410.8 Z M769.070909,408.7 C770.490909,408.7 771.450909,407.92 771.450909,406.82 L771.450909,406.28 C770.930909,406.04 770.250909,405.88 769.510909,405.88 C768.210909,405.88 767.410909,406.4 767.410909,407.36 L767.410909,407.4 C767.410909,408.22 768.090909,408.7 769.070909,408.7 Z M780.834545,410.78 C781.854545,410.78 782.594545,410.54 783.234545,410.16 L783.234545,407.72 C782.794545,407.96 782.294545,408.1 781.734545,408.1 C781.054545,408.1 780.754545,407.76 780.754545,407.06 L780.754545,402.48 L783.274545,402.48 L783.274545,399.88 L780.754545,399.88 L780.754545,397.14 L777.714545,397.14 L777.714545,399.88 L776.434545,399.88 L776.434545,402.48 L777.714545,402.48 L777.714545,407.56 C777.714545,410.04 778.974545,410.78 780.834545,410.78 Z M790.658182,410.84 C787.438182,410.84 785.058182,408.58 785.058182,405.3 L785.058182,405.26 C785.058182,402.2 787.238182,399.68 790.358182,399.68 C793.938182,399.68 795.578182,402.46 795.578182,405.5 C795.578182,405.74 795.558182,406.02 795.538182,406.3 L788.078182,406.3 C788.378182,407.68 789.338182,408.4 790.698182,408.4 C791.718182,408.4 792.458182,408.08 793.298182,407.3 L795.038182,408.84 C794.038182,410.08 792.598182,410.84 790.658182,410.84 Z M788.038182,404.4 L792.618182,404.4 C792.438182,403.04 791.638182,402.12 790.358182,402.12 C789.098182,402.12 788.278182,403.02 788.038182,404.4 Z" id="Ideate" fill="#2C2C2C" fill-rule="nonzero"></path>
            <rect id="iterate-mask" fill="#FFFFFF" fill-rule="nonzero" x="814" y="555" width="75" height="17"></rect>
            <path d="M818.82,567 L821.9,567 L821.9,553 L818.82,553 L818.82,567 Z M829.063636,567.18 C830.083636,567.18 830.823636,566.94 831.463636,566.56 L831.463636,564.12 C831.023636,564.36 830.523636,564.5 829.963636,564.5 C829.283636,564.5 828.983636,564.16 828.983636,563.46 L828.983636,558.88 L831.503636,558.88 L831.503636,556.28 L828.983636,556.28 L828.983636,553.54 L825.943636,553.54 L825.943636,556.28 L824.663636,556.28 L824.663636,558.88 L825.943636,558.88 L825.943636,563.96 C825.943636,566.44 827.203636,567.18 829.063636,567.18 Z M838.887273,567.24 C835.667273,567.24 833.287273,564.98 833.287273,561.7 L833.287273,561.66 C833.287273,558.6 835.467273,556.08 838.587273,556.08 C842.167273,556.08 843.807273,558.86 843.807273,561.9 C843.807273,562.14 843.787273,562.42 843.767273,562.7 L836.307273,562.7 C836.607273,564.08 837.567273,564.8 838.927273,564.8 C839.947273,564.8 840.687273,564.48 841.527273,563.7 L843.267273,565.24 C842.267273,566.48 840.827273,567.24 838.887273,567.24 Z M836.267273,560.8 L840.847273,560.8 C840.667273,559.44 839.867273,558.52 838.587273,558.52 C837.327273,558.52 836.507273,559.42 836.267273,560.8 Z M846.430909,567 L849.470909,567 L849.470909,563.04 C849.470909,560.48 850.710909,559.26 852.730909,559.26 L852.890909,559.26 L852.890909,556.08 C851.090909,556 850.090909,556.96 849.470909,558.44 L849.470909,556.28 L846.430909,556.28 L846.430909,567 Z M857.694545,567.2 C855.674545,567.2 854.014545,566.04 854.014545,563.92 L854.014545,563.88 C854.014545,561.54 855.794545,560.46 858.334545,560.46 C859.414545,560.46 860.194545,560.64 860.954545,560.9 L860.954545,560.72 C860.954545,559.46 860.174545,558.76 858.654545,558.76 C857.494545,558.76 856.674545,558.98 855.694545,559.34 L854.934545,557.02 C856.114545,556.5 857.274545,556.16 859.094545,556.16 C860.754545,556.16 861.954545,556.6 862.714545,557.36 C863.514545,558.16 863.874545,559.34 863.874545,560.78 L863.874545,567 L860.934545,567 L860.934545,565.84 C860.194545,566.66 859.174545,567.2 857.694545,567.2 Z M858.614545,565.1 C860.034545,565.1 860.994545,564.32 860.994545,563.22 L860.994545,562.68 C860.474545,562.44 859.794545,562.28 859.054545,562.28 C857.754545,562.28 856.954545,562.8 856.954545,563.76 L856.954545,563.8 C856.954545,564.62 857.634545,565.1 858.614545,565.1 Z M870.378182,567.18 C871.398182,567.18 872.138182,566.94 872.778182,566.56 L872.778182,564.12 C872.338182,564.36 871.838182,564.5 871.278182,564.5 C870.598182,564.5 870.298182,564.16 870.298182,563.46 L870.298182,558.88 L872.818182,558.88 L872.818182,556.28 L870.298182,556.28 L870.298182,553.54 L867.258182,553.54 L867.258182,556.28 L865.978182,556.28 L865.978182,558.88 L867.258182,558.88 L867.258182,563.96 C867.258182,566.44 868.518182,567.18 870.378182,567.18 Z M880.201818,567.24 C876.981818,567.24 874.601818,564.98 874.601818,561.7 L874.601818,561.66 C874.601818,558.6 876.781818,556.08 879.901818,556.08 C883.481818,556.08 885.121818,558.86 885.121818,561.9 C885.121818,562.14 885.101818,562.42 885.081818,562.7 L877.621818,562.7 C877.921818,564.08 878.881818,564.8 880.241818,564.8 C881.261818,564.8 882.001818,564.48 882.841818,563.7 L884.581818,565.24 C883.581818,566.48 882.141818,567.24 880.201818,567.24 Z M877.581818,560.8 L882.161818,560.8 C881.981818,559.44 881.181818,558.52 879.901818,558.52 C878.641818,558.52 877.821818,559.42 877.581818,560.8 Z" id="Iterate" fill="#A7A7A7" fill-rule="nonzero"></path>
        </g>
    </g>
</svg>