<?xml version="1.0" encoding="UTF-8" standalone="no"?>
<svg width="344px" height="102px" viewBox="0 0 344 102" version="1.1" xmlns="http://www.w3.org/2000/svg" xmlns:xlink="http://www.w3.org/1999/xlink">
    <!-- Generator: Sketch 43.1 (39012) - http://www.bohemiancoding.com/sketch -->
    <title>Artboard Copy 5</title>
    <desc>Created with Sketch.</desc>
    <defs></defs>
    <g id="Design" stroke="none" stroke-width="1" fill="none" fill-rule="evenodd">
        <g id="Artboard-Copy-5" fill="#2C2C2C">
            <path d="M71.8059985,24.408 C76.3959985,24.408 79.1159985,22.776 81.5639985,20.158 L78.2319985,16.792 C76.3619985,18.492 74.6959985,19.58 71.9759985,19.58 C67.8959985,19.58 65.0739985,16.18 65.0739985,12.1 L65.0739985,12.032 C65.0739985,7.952 67.9639985,4.62 71.9759985,4.62 C74.3559985,4.62 76.2259985,5.64 78.0619985,7.306 L81.3939985,3.464 C79.1839985,1.288 76.4979985,-0.208 72.0099985,-0.208 C64.6999985,-0.208 59.5999985,5.334 59.5999985,12.1 L59.5999985,12.168 C59.5999985,19.002 64.8019985,24.408 71.8059985,24.408 Z M104.625998,24.408 C97.2819985,24.408 92.0119985,18.934 92.0119985,12.168 L92.0119985,12.1 C92.0119985,5.334 97.3499985,-0.208 104.693998,-0.208 C112.037998,-0.208 117.307998,5.266 117.307998,12.032 L117.307998,12.1 C117.307998,18.866 111.969998,24.408 104.625998,24.408 Z M104.693998,19.58 C108.909998,19.58 111.833998,16.248 111.833998,12.168 L111.833998,12.1 C111.833998,8.02 108.841998,4.62 104.625998,4.62 C100.409998,4.62 97.4859985,7.952 97.4859985,12.032 L97.4859985,12.1 C97.4859985,16.18 100.477998,19.58 104.693998,19.58 Z M129.965998,24 L135.133998,24 L135.133998,8.87 L146.659998,24 L151.113998,24 L151.113998,0.2 L145.945998,0.2 L145.945998,14.854 L134.793998,0.2 L129.965998,0.2 L129.965998,24 Z M170.367998,24 L175.603998,24 L175.603998,5.028 L182.845998,5.028 L182.845998,0.2 L163.125998,0.2 L163.125998,5.028 L170.367998,5.028 L170.367998,24 Z M189.757998,24 L199.957998,0.03 L204.785998,0.03 L214.985998,24 L209.511998,24 L207.335998,18.662 L197.271998,18.662 L195.095998,24 L189.757998,24 Z M199.141998,14.038 L205.465998,14.038 L202.303998,6.32 L199.141998,14.038 Z M236.279998,24.408 C240.869998,24.408 243.589998,22.776 246.037998,20.158 L242.705998,16.792 C240.835998,18.492 239.169998,19.58 236.449998,19.58 C232.369998,19.58 229.547998,16.18 229.547998,12.1 L229.547998,12.032 C229.547998,7.952 232.437998,4.62 236.449998,4.62 C238.829998,4.62 240.699998,5.64 242.535998,7.306 L245.867998,3.464 C243.657998,1.288 240.971998,-0.208 236.483998,-0.208 C229.173998,-0.208 224.073998,5.334 224.073998,12.1 L224.073998,12.168 C224.073998,19.002 229.275998,24.408 236.279998,24.408 Z M263.761998,24 L268.997998,24 L268.997998,5.028 L276.239998,5.028 L276.239998,0.2 L256.519998,0.2 L256.519998,5.028 L263.761998,5.028 L263.761998,24 Z" id="CONTACT"></path>
            <path d="M142.21,72 L147.344,72 L147.344,56.564 L153.974,66.628 L154.11,66.628 L160.808,56.462 L160.808,72 L166.01,72 L166.01,48.2 L160.366,48.2 L154.11,58.264 L147.854,48.2 L142.21,48.2 L142.21,72 Z M179.722,72 L197.844,72 L197.844,67.342 L184.924,67.342 L184.924,62.344 L196.144,62.344 L196.144,57.686 L184.924,57.686 L184.924,52.858 L197.674,52.858 L197.674,48.2 L179.722,48.2 L179.722,72 Z" id="ME"></path>
            <rect id="Rectangle" x="142" y="96" width="56" height="6"></rect>
        </g>
    </g>
</svg>