<?xml version="1.0" encoding="UTF-8" standalone="no"?>
<svg width="344px" height="102px" viewBox="0 0 344 102" version="1.1" xmlns="http://www.w3.org/2000/svg" xmlns:xlink="http://www.w3.org/1999/xlink">
    <!-- Generator: Sketch 43.1 (39012) - http://www.bohemiancoding.com/sketch -->
    <title>Artboard</title>
    <desc>Created with Sketch.</desc>
    <defs></defs>
    <g id="Design" stroke="none" stroke-width="1" fill="none" fill-rule="evenodd">
        <g id="Artboard" fill="#2C2C2C">
            <path d="M10.786,24.548 C13.37,24.548 15.512,23.8 16.974,22.338 C18.402,20.91 19.218,18.802 19.218,15.98 L19.218,0.408 L13.846,0.408 L13.846,15.742 C13.846,18.496 12.622,19.686 10.65,19.686 C8.984,19.686 7.658,18.802 6.298,17.306 L3,20.978 C4.632,22.916 7.08,24.548 10.786,24.548 Z M44.116,24.616 C36.772,24.616 31.502,19.142 31.502,12.376 L31.502,12.308 C31.502,5.542 36.84,0 44.184,0 C51.528,0 56.798,5.474 56.798,12.24 L56.798,12.308 C56.798,19.074 51.46,24.616 44.116,24.616 Z M44.184,19.788 C48.4,19.788 51.324,16.456 51.324,12.376 L51.324,12.308 C51.324,8.228 48.332,4.828 44.116,4.828 C39.9,4.828 36.976,8.16 36.976,12.24 L36.976,12.308 C36.976,16.388 39.968,19.788 44.184,19.788 Z M69.456,24.208 L74.692,24.208 L74.692,14.654 L84.348,14.654 L84.348,24.208 L89.584,24.208 L89.584,0.408 L84.348,0.408 L84.348,9.826 L74.692,9.826 L74.692,0.408 L69.456,0.408 L69.456,24.208 Z M101.256,24.208 L111.456,0.238 L116.284,0.238 L126.484,24.208 L121.01,24.208 L118.834,18.87 L108.77,18.87 L106.594,24.208 L101.256,24.208 Z M110.64,14.246 L116.964,14.246 L113.802,6.528 L110.64,14.246 Z M138.156,24.208 L143.324,24.208 L143.324,9.078 L154.85,24.208 L159.304,24.208 L159.304,0.408 L154.136,0.408 L154.136,15.062 L142.984,0.408 L138.156,0.408 L138.156,24.208 Z M173.016,24.208 L178.184,24.208 L178.184,9.078 L189.71,24.208 L194.164,24.208 L194.164,0.408 L188.996,0.408 L188.996,15.062 L177.844,0.408 L173.016,0.408 L173.016,24.208 Z M207.876,24.208 L225.998,24.208 L225.998,19.55 L213.078,19.55 L213.078,14.552 L224.298,14.552 L224.298,9.894 L213.078,9.894 L213.078,5.066 L225.828,5.066 L225.828,0.408 L207.876,0.408 L207.876,24.208 Z M247.122,24.548 C252.256,24.548 255.86,21.896 255.86,17.17 L255.86,17.102 C255.86,12.954 253.14,11.22 248.312,9.962 C244.198,8.908 243.178,8.398 243.178,6.834 L243.178,6.766 C243.178,5.61 244.232,4.692 246.238,4.692 C248.244,4.692 250.318,5.576 252.426,7.038 L255.146,3.094 C252.732,1.156 249.774,0.068 246.306,0.068 C241.444,0.068 237.976,2.924 237.976,7.242 L237.976,7.31 C237.976,12.036 241.07,13.362 245.864,14.586 C249.842,15.606 250.658,16.286 250.658,17.612 L250.658,17.68 C250.658,19.074 249.366,19.924 247.224,19.924 C244.504,19.924 242.26,18.802 240.118,17.034 L237.024,20.74 C239.88,23.29 243.518,24.548 247.122,24.548 Z" id="JOHANNES"></path>
            <path d="M76,72.208 L93.102,72.208 L93.102,67.448 L81.236,67.448 L81.236,48.408 L76,48.408 L76,72.208 Z M114.194,72.582 C120.586,72.582 124.632,69.046 124.632,61.838 L124.632,48.408 L119.396,48.408 L119.396,62.042 C119.396,65.816 117.458,67.754 114.262,67.754 C111.066,67.754 109.128,65.748 109.128,61.872 L109.128,48.408 L103.892,48.408 L103.892,62.008 C103.892,69.012 107.802,72.582 114.194,72.582 Z M137.87,72.208 L143.038,72.208 L143.038,57.078 L154.564,72.208 L159.018,72.208 L159.018,48.408 L153.85,48.408 L153.85,63.062 L142.698,48.408 L137.87,48.408 L137.87,72.208 Z M172.63,72.208 L172.63,48.408 L181.912,48.408 C189.392,48.408 194.56,53.542 194.56,60.24 L194.56,60.308 C194.56,67.006 189.392,72.208 181.912,72.208 L172.63,72.208 Z M181.912,53.134 L177.866,53.134 L177.866,67.482 L181.912,67.482 C186.196,67.482 189.086,64.592 189.086,60.376 L189.086,60.308 C189.086,56.092 186.196,53.134 181.912,53.134 Z M231.7,69.216 L228.368,72.922 L225.75,70.576 C223.744,71.868 221.33,72.616 218.678,72.616 C211.334,72.616 206.064,67.142 206.064,60.376 L206.064,60.308 C206.064,53.542 211.402,48 218.746,48 C226.09,48 231.36,53.474 231.36,60.24 L231.36,60.308 C231.36,62.824 230.578,65.17 229.252,67.142 L231.7,69.216 Z M218.746,67.788 C219.902,67.788 220.956,67.584 221.874,67.142 L217.998,63.844 L221.33,60.104 L225.24,63.64 C225.648,62.688 225.886,61.566 225.886,60.376 L225.886,60.308 C225.886,56.228 222.894,52.828 218.678,52.828 C214.462,52.828 211.538,56.16 211.538,60.24 L211.538,60.308 C211.538,64.388 214.53,67.788 218.746,67.788 Z M249.97,72.378 L254.594,72.378 L264.216,48.408 L258.572,48.408 L252.35,65.17 L246.128,48.408 L240.348,48.408 L249.97,72.378 Z M276.026001,72.208 L281.262001,72.208 L281.262001,48.408 L276.026001,48.408 L276.026001,72.208 Z M303.578001,72.548 C308.712001,72.548 312.316001,69.896 312.316001,65.17 L312.316001,65.102 C312.316001,60.954 309.596001,59.22 304.768001,57.962 C300.654001,56.908 299.634001,56.398 299.634001,54.834 L299.634001,54.766 C299.634001,53.61 300.688001,52.692 302.694001,52.692 C304.700001,52.692 306.774001,53.576 308.882001,55.038 L311.602001,51.094 C309.188001,49.156 306.230001,48.068 302.762001,48.068 C297.900001,48.068 294.432001,50.924 294.432001,55.242 L294.432001,55.31 C294.432001,60.036 297.526001,61.362 302.320001,62.586 C306.298001,63.606 307.114001,64.286 307.114001,65.612 L307.114001,65.68 C307.114001,67.074 305.822001,67.924 303.680001,67.924 C300.960001,67.924 298.716001,66.802 296.574001,65.034 L293.480001,68.74 C296.336001,71.29 299.974001,72.548 303.578001,72.548 Z M330.314001,72.208 L335.550001,72.208 L335.550001,53.236 L342.792001,53.236 L342.792001,48.408 L323.072001,48.408 L323.072001,53.236 L330.314001,53.236 L330.314001,72.208 Z" id="LUNDQVIST"></path>
            <rect id="Rectangle" x="138" y="96" width="56" height="6"></rect>
        </g>
    </g>
</svg>