<?xml version="1.0" encoding="UTF-8"?>
<svg width="44px" height="44px" viewBox="0 0 44 44" version="1.1" xmlns="http://www.w3.org/2000/svg" xmlns:xlink="http://www.w3.org/1999/xlink">
    <title>linkedin</title>
    <defs></defs>
    <g id="linkedin">
      <path d="M22,44 C9.8497355,44 0,34.1502645 0,22 C0,9.8497355 9.8497355,0 22,0 C34.1502645,0 44,9.8497355 44,22 C44,34.1502645 34.1502645,44 22,44 Z" id="circle" fill="#2C2C2C"></path>
      <path d="M32.5416667,22.7061969 C32.5416667,18.5314339 30.3121469,16.5888276 27.3380978,16.5888766 C24.9376045,16.5888766 23.8651469,17.9099391 23.2646314,18.8347072 L23.2646314,18.8786201 L23.2349267,18.8786201 C23.2435538,18.8646523 23.2554651,18.8491162 23.2646314,18.8347072 L23.2646314,16.9081763 L18.744712,16.9081763 C18.8055919,18.1841496 18.744712,30.4996074 18.744712,30.4996074 L23.2650725,30.4996074 L23.2650725,22.909294 C23.2650725,22.5026097 23.2957576,22.0982288 23.4149686,21.807698 C23.7418674,20.9950155 24.4849263,20.1548875 25.7335534,20.1548875 C27.3692241,20.1548875 28.0228257,21.4015038 28.0228257,23.2281525 L28.0228257,30.4996074 L32.5416667,30.4996074 L32.5416667,22.7061969 Z" id="Combined-Shape-path" fill="#FFFFFF"></path>
      <path d="M14.0162224,10.3564321 C12.469813,10.3564321 11.4583333,11.3705944 11.4583333,12.7042523 C11.4583333,14.0088474 12.4405494,15.0537879 13.9562248,15.0537879 L13.9864197,15.0537879 C15.5627789,15.0537879 16.5431324,14.0090435 16.5431324,12.7042523 C16.5134276,11.3705944 15.5627789,10.3564321 14.0162224,10.3564321 Z" id="Combined-Shape-path" fill="#FFFFFF"></path>
      <polygon id="Combined-Shape-path" fill="#FFFFFF" points="11.7268031 30.4996074 16.245448 30.4996074 16.245448 16.9081763 11.7268031 16.9081763"></polygon>
    </g>
</svg>
