<?xml version="1.0" encoding="UTF-8" standalone="no"?>
<svg width="344px" height="102px" viewBox="0 0 344 102" version="1.1" xmlns="http://www.w3.org/2000/svg" xmlns:xlink="http://www.w3.org/1999/xlink">
    <!-- Generator: Sketch 43.1 (39012) - http://www.bohemiancoding.com/sketch -->
    <title>Artboard Copy 3</title>
    <desc>Created with Sketch.</desc>
    <defs></defs>
    <g id="Design" stroke="none" stroke-width="1" fill="none" fill-rule="evenodd">
        <g id="Artboard-Copy-3" fill="#2C2C2C">
            <path d="M137.928,24 L143.062,24 L143.062,8.564 L149.692,18.628 L149.828,18.628 L156.526,8.462 L156.526,24 L161.728,24 L161.728,0.2 L156.084,0.2 L149.828,10.264 L143.572,0.2 L137.928,0.2 L137.928,24 Z M182.138,24 L187.374,24 L187.374,14.514 L196.52,0.2 L190.57,0.2 L184.79,9.754 L179.112,0.2 L172.992,0.2 L182.138,14.616 L182.138,24 Z" id="MY"></path>
            <path d="M100.601,72.17 L105.157,72.17 L110.529,56.598 L115.901,72.17 L120.457,72.17 L128.583,48.2 L123.109,48.2 L118.179,64.316 L112.841,48.132 L108.353,48.132 L103.015,64.316 L98.085,48.2 L92.475,48.2 L100.601,72.17 Z M150.659,72.408 C143.315,72.408 138.045,66.934 138.045,60.168 L138.045,60.1 C138.045,53.334 143.383,47.792 150.727,47.792 C158.071,47.792 163.341,53.266 163.341,60.032 L163.341,60.1 C163.341,66.866 158.003,72.408 150.659,72.408 Z M150.727,67.58 C154.943,67.58 157.867,64.248 157.867,60.168 L157.867,60.1 C157.867,56.02 154.875,52.62 150.659,52.62 C146.443,52.62 143.519,55.952 143.519,60.032 L143.519,60.1 C143.519,64.18 146.511,67.58 150.727,67.58 Z M173.999,72 L173.999,48.2 L184.879,48.2 C187.905,48.2 190.251,49.05 191.815,50.614 C193.141,51.94 193.855,53.81 193.855,56.054 L193.855,56.122 C193.855,59.964 191.781,62.378 188.755,63.5 L194.569,72 L188.449,72 L183.349,64.384 L179.235,64.384 L179.235,72 L173.999,72 Z M179.235,59.76 L184.539,59.76 C187.089,59.76 188.551,58.4 188.551,56.394 L188.551,56.326 C188.551,54.082 186.987,52.926 184.437,52.926 L179.235,52.926 L179.235,59.76 Z M208.581,72 L213.817,72 L213.817,64.724 L216.571,61.868 L223.949,72 L230.239,72 L220.107,58.298 L229.797,48.2 L223.473,48.2 L213.817,58.604 L213.817,48.2 L208.581,48.2 L208.581,72 Z" id="WORK"></path>
            <rect id="Rectangle" x="138" y="96" width="56" height="6"></rect>
        </g>
    </g>
</svg>