<?xml version="1.0" encoding="UTF-8" standalone="no"?>
<svg width="344px" height="104px" viewBox="0 0 344 104" version="1.1" xmlns="http://www.w3.org/2000/svg" xmlns:xlink="http://www.w3.org/1999/xlink">
    <!-- Generator: Sketch 43.1 (39012) - http://www.bohemiancoding.com/sketch -->
    <title>Artboard Copy 6</title>
    <desc>Created with Sketch.</desc>
    <defs></defs>
    <g id="Design" stroke="none" stroke-width="1" fill="none" fill-rule="evenodd">
        <g id="Artboard-Copy-6" fill="#2C2C2C">
            <path d="M104.614,24.616 C97.27,24.616 92,19.142 92,12.376 L92,12.308 C92,5.542 97.338,0 104.682,0 C112.026,0 117.296,5.474 117.296,12.24 L117.296,12.308 C117.296,19.074 111.958,24.616 104.614,24.616 Z M104.682,19.788 C108.898,19.788 111.822,16.456 111.822,12.376 L111.822,12.308 C111.822,8.228 108.83,4.828 104.614,4.828 C100.398,4.828 97.474,8.16 97.474,12.24 L97.474,12.308 C97.474,16.388 100.466,19.788 104.682,19.788 Z M134.476,24.208 L139.712,24.208 L139.712,5.236 L146.954,5.236 L146.954,0.408 L127.234,0.408 L127.234,5.236 L134.476,5.236 L134.476,24.208 Z M158.966,24.208 L164.202,24.208 L164.202,14.654 L173.858,14.654 L173.858,24.208 L179.094,24.208 L179.094,0.408 L173.858,0.408 L173.858,9.826 L164.202,9.826 L164.202,0.408 L158.966,0.408 L158.966,24.208 Z M192.806,24.208 L210.928,24.208 L210.928,19.55 L198.008,19.55 L198.008,14.552 L209.228,14.552 L209.228,9.894 L198.008,9.894 L198.008,5.066 L210.758,5.066 L210.758,0.408 L192.806,0.408 L192.806,24.208 Z M223.586,24.208 L223.586,0.408 L234.466,0.408 C237.492,0.408 239.838,1.258 241.402,2.822 C242.728,4.148 243.442,6.018 243.442,8.262 L243.442,8.33 C243.442,12.172 241.368,14.586 238.342,15.708 L244.156,24.208 L238.036,24.208 L232.936,16.592 L228.822,16.592 L228.822,24.208 L223.586,24.208 Z M228.822,11.968 L234.126,11.968 C236.676,11.968 238.138,10.608 238.138,8.602 L238.138,8.534 C238.138,6.29 236.574,5.134 234.024,5.134 L228.822,5.134 L228.822,11.968 Z" id="OTHER"></path>
            <path d="M49,72.208 L49,48.408 L58.724,48.408 C64.402,48.408 67.836,51.774 67.836,56.636 L67.836,56.704 C67.836,62.212 63.552,65.068 58.214,65.068 L54.236,65.068 L54.236,72.208 L49,72.208 Z M54.236,60.41 L58.384,60.41 C61.002,60.41 62.532,58.846 62.532,56.806 L62.532,56.738 C62.532,54.392 60.9,53.134 58.282,53.134 L54.236,53.134 L54.236,60.41 Z M79.712,72.208 L79.712,48.408 L90.592,48.408 C93.618,48.408 95.964,49.258 97.528,50.822 C98.854,52.148 99.568,54.018 99.568,56.262 L99.568,56.33 C99.568,60.172 97.494,62.586 94.468,63.708 L100.282,72.208 L94.162,72.208 L89.062,64.592 L84.948,64.592 L84.948,72.208 L79.712,72.208 Z M84.948,59.968 L90.252,59.968 C92.802,59.968 94.264,58.608 94.264,56.602 L94.264,56.534 C94.264,54.29 92.7,53.134 90.15,53.134 L84.948,53.134 L84.948,59.968 Z M123.854,72.616 C116.51,72.616 111.24,67.142 111.24,60.376 L111.24,60.308 C111.24,53.542 116.578,48 123.922,48 C131.266,48 136.536,53.474 136.536,60.24 L136.536,60.308 C136.536,67.074 131.198,72.616 123.854,72.616 Z M123.922,67.788 C128.138,67.788 131.062,64.456 131.062,60.376 L131.062,60.308 C131.062,56.228 128.07,52.828 123.854,52.828 C119.638,52.828 116.714,56.16 116.714,60.24 L116.714,60.308 C116.714,64.388 119.706,67.788 123.922,67.788 Z M153.58,72.548 C156.164,72.548 158.306,71.8 159.768,70.338 C161.196,68.91 162.012,66.802 162.012,63.98 L162.012,48.408 L156.64,48.408 L156.64,63.742 C156.64,66.496 155.416,67.686 153.444,67.686 C151.778,67.686 150.452,66.802 149.092,65.306 L145.794,68.978 C147.426,70.916 149.874,72.548 153.58,72.548 Z M175.35,72.208 L193.472,72.208 L193.472,67.55 L180.552,67.55 L180.552,62.552 L191.772,62.552 L191.772,57.894 L180.552,57.894 L180.552,53.066 L193.302,53.066 L193.302,48.408 L175.35,48.408 L175.35,72.208 Z M217.282,72.616 C221.872,72.616 224.592,70.984 227.04,68.366 L223.708,65 C221.838,66.7 220.172,67.788 217.452,67.788 C213.372,67.788 210.55,64.388 210.55,60.308 L210.55,60.24 C210.55,56.16 213.44,52.828 217.452,52.828 C219.832,52.828 221.702,53.848 223.538,55.514 L226.87,51.672 C224.66,49.496 221.974,48 217.486,48 C210.176,48 205.076,53.542 205.076,60.308 L205.076,60.376 C205.076,67.21 210.278,72.616 217.282,72.616 Z M244.764,72.208 L250,72.208 L250,53.236 L257.242,53.236 L257.242,48.408 L237.522,48.408 L237.522,53.236 L244.764,53.236 L244.764,72.208 Z M277.21,72.548 C282.344,72.548 285.948,69.896 285.948,65.17 L285.948,65.102 C285.948,60.954 283.228,59.22 278.4,57.962 C274.286,56.908 273.266,56.398 273.266,54.834 L273.266,54.766 C273.266,53.61 274.32,52.692 276.326,52.692 C278.332,52.692 280.406,53.576 282.514,55.038 L285.234,51.094 C282.82,49.156 279.862,48.068 276.394,48.068 C271.532,48.068 268.064,50.924 268.064,55.242 L268.064,55.31 C268.064,60.036 271.158,61.362 275.952,62.586 C279.93,63.606 280.746,64.286 280.746,65.612 L280.746,65.68 C280.746,67.074 279.454,67.924 277.312,67.924 C274.592,67.924 272.348,66.802 270.206,65.034 L267.112,68.74 C269.968,71.29 273.606,72.548 277.21,72.548 Z" id="PROJECTS"></path>
            <rect id="Rectangle" x="142" y="96" width="56" height="6"></rect>
        </g>
    </g>
</svg>