<?xml version="1.0" encoding="UTF-8" standalone="no"?>
<svg width="344px" height="104px" viewBox="0 0 344 104" version="1.1" xmlns="http://www.w3.org/2000/svg" xmlns:xlink="http://www.w3.org/1999/xlink">
    <!-- Generator: Sketch 43.2 (39069) - http://www.bohemiancoding.com/sketch -->
    <title>Artboard Copy 8</title>
    <desc>Created with Sketch.</desc>
    <defs></defs>
    <g id="Design" stroke="none" stroke-width="1" fill="none" fill-rule="evenodd">
        <g id="Artboard-Copy-8" fill="#2C2C2C">
            <rect id="Rectangle" x="142" y="48" width="56" height="6"></rect>
            <path d="M59.233,24 L59.233,0.2 L68.957,0.2 C74.635,0.2 78.069,3.566 78.069,8.428 L78.069,8.496 C78.069,14.004 73.785,16.86 68.447,16.86 L64.469,16.86 L64.469,24 L59.233,24 Z M64.469,12.202 L68.617,12.202 C71.235,12.202 72.765,10.638 72.765,8.598 L72.765,8.53 C72.765,6.184 71.133,4.926 68.515,4.926 L64.469,4.926 L64.469,12.202 Z M89.945,24 L89.945,0.2 L100.825,0.2 C103.851,0.2 106.197,1.05 107.761,2.614 C109.087,3.94 109.801,5.81 109.801,8.054 L109.801,8.122 C109.801,11.964 107.727,14.378 104.701,15.5 L110.515,24 L104.395,24 L99.295,16.384 L95.181,16.384 L95.181,24 L89.945,24 Z M95.181,11.76 L100.485,11.76 C103.035,11.76 104.497,10.4 104.497,8.394 L104.497,8.326 C104.497,6.082 102.933,4.926 100.383,4.926 L95.181,4.926 L95.181,11.76 Z M134.087,24.408 C126.743,24.408 121.473,18.934 121.473,12.168 L121.473,12.1 C121.473,5.334 126.811,-0.208 134.155,-0.208 C141.499,-0.208 146.769,5.266 146.769,12.032 L146.769,12.1 C146.769,18.866 141.431,24.408 134.087,24.408 Z M134.155,19.58 C138.371,19.58 141.295,16.248 141.295,12.168 L141.295,12.1 C141.295,8.02 138.303,4.62 134.087,4.62 C129.871,4.62 126.947,7.952 126.947,12.032 L126.947,12.1 C126.947,16.18 129.939,19.58 134.155,19.58 Z M170.579,24.408 C175.169,24.408 177.889,22.776 180.337,20.158 L177.005,16.792 C175.135,18.492 173.469,19.58 170.749,19.58 C166.669,19.58 163.847,16.18 163.847,12.1 L163.847,12.032 C163.847,7.952 166.737,4.62 170.749,4.62 C173.129,4.62 174.999,5.64 176.835,7.306 L180.167,3.464 C177.957,1.288 175.271,-0.208 170.783,-0.208 C163.473,-0.208 158.373,5.334 158.373,12.1 L158.373,12.168 C158.373,19.002 163.575,24.408 170.579,24.408 Z M192.519,24 L210.641,24 L210.641,19.342 L197.721,19.342 L197.721,14.344 L208.941,14.344 L208.941,9.686 L197.721,9.686 L197.721,4.858 L210.471,4.858 L210.471,0.2 L192.519,0.2 L192.519,24 Z M231.765,24.34 C236.899,24.34 240.503,21.688 240.503,16.962 L240.503,16.894 C240.503,12.746 237.783,11.012 232.955,9.754 C228.841,8.7 227.821,8.19 227.821,6.626 L227.821,6.558 C227.821,5.402 228.875,4.484 230.881,4.484 C232.887,4.484 234.961,5.368 237.069,6.83 L239.789,2.886 C237.375,0.948 234.417,-0.14 230.949,-0.14 C226.087,-0.14 222.619,2.716 222.619,7.034 L222.619,7.102 C222.619,11.828 225.713,13.154 230.507,14.378 C234.485,15.398 235.301,16.078 235.301,17.404 L235.301,17.472 C235.301,18.866 234.009,19.716 231.867,19.716 C229.147,19.716 226.903,18.594 224.761,16.826 L221.667,20.532 C224.523,23.082 228.161,24.34 231.765,24.34 Z M261.185,24.34 C266.319,24.34 269.923,21.688 269.923,16.962 L269.923,16.894 C269.923,12.746 267.203,11.012 262.375,9.754 C258.261,8.7 257.241,8.19 257.241,6.626 L257.241,6.558 C257.241,5.402 258.295,4.484 260.301,4.484 C262.307,4.484 264.381,5.368 266.489,6.83 L269.209,2.886 C266.795,0.948 263.837,-0.14 260.369,-0.14 C255.507,-0.14 252.039,2.716 252.039,7.034 L252.039,7.102 C252.039,11.828 255.133,13.154 259.927,14.378 C263.905,15.398 264.721,16.078 264.721,17.404 L264.721,17.472 C264.721,18.866 263.429,19.716 261.287,19.716 C258.567,19.716 256.323,18.594 254.181,16.826 L251.087,20.532 C253.943,23.082 257.581,24.34 261.185,24.34 Z" id="PROCESS"></path>
        </g>
    </g>
</svg>