<?xml version="1.0" encoding="UTF-8" standalone="no"?>
<svg width="356px" height="720px" viewBox="0 0 356 720" version="1.1" xmlns="http://www.w3.org/2000/svg" xmlns:xlink="http://www.w3.org/1999/xlink">
    <!-- Generator: Sketch 43.2 (39069) - http://www.bohemiancoding.com/sketch -->
    <title>Group 10</title>
    <desc>Created with Sketch.</desc>
    <defs>
        <path d="M14.9958408,36.374918 C5.32563924,41.9371933 -0.347562865,46.7646478 0.639538201,49.2078087 C2.37170647,53.4950756 23.9572415,48.8168034 48.85218,38.7585954 C73.7471186,28.7003873 92.5242539,17.0710821 90.7920857,12.7838152 C89.73434,10.1658028 81.2734454,10.8909626 69.1765528,14.142833 C69.8921658,15.3361089 70.5320359,16.5939672 71.0872482,17.9126377 C73.8165388,17.6489406 75.5403598,17.9182191 75.897317,18.801719 C77.0181317,21.5758329 64.2385217,29.3550923 47.353259,36.1771813 C30.4679963,42.9992702 15.8711865,46.2808024 14.7503717,43.5066885 C14.4705371,42.8140734 15.0571921,41.8094602 16.3578973,40.5856424 C16.3478266,40.5611841 16.3377491,40.5364761 16.3276649,40.5115167 C15.7761246,39.1464067 15.3335473,37.7643262 14.9958408,36.374918 Z" id="path-1"></path>
    </defs>
    <g id="Content" stroke="none" stroke-width="1" fill="none" fill-rule="evenodd">
        <g id="iPhone-7" transform="translate(-9.000000, -3139.000000)">
            <g id="Group-10" transform="translate(10.000000, 3140.000000)">
                <g id="Group-9">
                    <ellipse id="Oval-Copy-6" fill="#2C2C2C" transform="translate(176.794503, 696.791173) rotate(-270.000000) translate(-176.794503, -696.791173) " cx="176.794503" cy="696.791173" rx="19.7911728" ry="19.7945026"></ellipse>
                    <ellipse id="Oval-Copy-9" stroke="#2C2C2C" stroke-width="2" transform="translate(177.311144, 84.309242) rotate(-270.000000) translate(-177.311144, -84.309242) " cx="177.311144" cy="84.3092416" rx="10.3092416" ry="10.3111444"></ellipse>
                    <ellipse id="Oval-Copy-11" fill="#2C2C2C" transform="translate(176.930379, 534.922821) rotate(-270.000000) translate(-176.930379, -534.922821) " cx="176.930379" cy="534.922821" rx="44.9228208" ry="44.930379"></ellipse>
                    <ellipse id="Oval-4-Copy-5" stroke="#979797" stroke-dasharray="2" transform="translate(177.207928, 436.000000) rotate(-270.000000) translate(-177.207928, -436.000000) " cx="177.207928" cy="436" rx="282" ry="177.207928"></ellipse>
                    <ellipse id="Oval-4-Copy-6" stroke="#979797" stroke-dasharray="2,2" transform="translate(175.492209, 204.954001) rotate(-270.000000) translate(-175.492209, -204.954001) " cx="175.492209" cy="204.954001" rx="204.954001" ry="79.4922089"></ellipse>
                    <ellipse id="Oval-4-Copy-7" stroke="#979797" stroke-dasharray="2,2" transform="translate(176.589005, 90.834078) rotate(-270.000000) translate(-176.589005, -90.834078) " cx="176.589005" cy="90.8340778" rx="90.8340778" ry="39.5890052"></ellipse>
                    <ellipse id="Oval-2-Copy-4" fill="#FFFFFF" transform="translate(199.885191, 507.884874) rotate(-270.000000) translate(-199.885191, -507.884874) " cx="199.885191" cy="507.884874" rx="1.8848736" ry="1.88519073"></ellipse>
                    <ellipse id="Oval-2-Copy-17" fill="#322C2F" transform="translate(139.827786, 479.827310) rotate(-270.000000) translate(-139.827786, -479.827310) " cx="139.827786" cy="479.82731" rx="2.8273104" ry="2.82778609"></ellipse>
                    <ellipse id="Oval-2-Copy-18" fill="#322C2F" transform="translate(132.885191, 575.884874) rotate(-270.000000) translate(-132.885191, -575.884874) " cx="132.885191" cy="575.884874" rx="1.8848736" ry="1.88519073"></ellipse>
                    <ellipse id="Oval-2-Copy-26" fill="#322C2F" transform="translate(152.000000, 684.999832) rotate(-270.000000) translate(-152.000000, -684.999832) " cx="152" cy="684.999832" rx="1" ry="1"></ellipse>
                    <ellipse id="Oval-2-Copy-19" fill="#322C2F" transform="translate(145.513588, 705.513165) rotate(-270.000000) translate(-145.513588, -705.513165) " cx="145.513588" cy="705.513165" rx="2.5131648" ry="2.51358763"></ellipse>
                    <ellipse id="Oval-2-Copy-20" fill="#322C2F" transform="translate(157.885191, 481.884874) rotate(-270.000000) translate(-157.885191, -481.884874) " cx="157.885191" cy="481.884874" rx="1.8848736" ry="1.88519073"></ellipse>
                    <ellipse id="Oval-Copy-7" fill="#2C2C2C" transform="translate(176.764843, 169.767327) rotate(-360.000000) translate(-176.764843, -169.767327) " cx="176.764843" cy="169.767327" rx="14.7648432" ry="14.7673273"></ellipse>
                    <ellipse id="Oval-2-Copy-24" fill="#322C2F" transform="translate(156.570728, 160.570992) rotate(-360.000000) translate(-156.570728, -160.570992) " cx="156.570728" cy="160.570992" rx="1.570728" ry="1.57099227"></ellipse>
                    <ellipse id="Oval-2-Copy-25" fill="#322C2F" transform="translate(194.628291, 180.628397) scale(1, -1) rotate(360.000000) translate(-194.628291, -180.628397) " cx="194.628291" cy="180.628397" rx="1" ry="1"></ellipse>
                    <ellipse id="Oval-4-Copy-8" stroke="#979797" stroke-dasharray="2,2" transform="translate(176.699492, 326.688243) rotate(-270.000000) translate(-176.699492, -326.688243) " cx="176.699492" cy="326.688243" rx="254.688243" ry="105.699492"></ellipse>
                    <path d="M186.391379,4.02470952 C190.420649,6.93506931 193.042851,11.6733196 193.042851,17.0241212 C193.042851,20.0927762 192.18042,22.9599657 190.684755,25.3964523 C189.795989,25.6209348 188.803655,25.8038465 187.702633,25.9413016 C182.798737,26.5535193 178.042538,25.6337594 173.830297,23.8659741 C173.163926,23.5863126 172.571288,23.3082096 172.059858,23.0446638 C171.881507,22.9527579 171.726238,22.8693588 171.594981,22.7960933 C171.517203,22.7526786 171.465291,22.7226454 171.440175,22.7076212 C171.291281,22.6185517 171.098378,22.6670724 171.009315,22.815995 C170.920251,22.9649177 170.968753,23.1578484 171.117647,23.2469178 C171.148085,23.2651263 171.205431,23.2983028 171.288765,23.344819 C171.42603,23.4214382 171.587436,23.5081334 171.772066,23.6032756 C172.297724,23.8741528 172.905198,24.1592183 173.587164,24.4454242 C177.892591,26.2523176 182.753833,27.192391 187.780419,26.5648563 C188.645088,26.4569083 189.446233,26.3211733 190.186148,26.1592185 C189.368201,27.3361558 188.396527,28.3981875 187.300204,29.3162301 C186.507527,29.5519428 185.611041,29.7406866 184.618625,29.8703692 C184.33928,29.9068723 184.05501,29.9353321 183.766193,29.9560094 C181.510465,30.1175038 179.19815,29.8138847 177.176796,29.2998123 C176.879133,29.2241102 176.668735,29.163948 176.559296,29.1296036 C176.393758,29.0776541 176.217448,29.1697596 176.165497,29.335327 C176.113547,29.5008944 176.205627,29.6772267 176.371166,29.7291762 C176.402368,29.7389681 176.460608,29.7564582 176.544195,29.7803597 C176.682055,29.8197801 176.841862,29.8630315 177.021927,29.908826 C179.102867,30.4380522 181.477544,30.7498598 183.811016,30.5827994 C184.11186,30.561261 184.408303,30.5315824 184.699986,30.4934672 C185.164174,30.4328101 185.609126,30.3594179 186.034064,30.274308 C183.466301,32.0248489 180.363357,33.0482423 177.021426,33.0482423 C168.173037,33.0482423 161,25.8739989 161,17.0241212 C161,14.1872328 161.737077,11.522527 163.030142,9.21112438 C163.749578,10.8168303 165.209602,12.7364849 167.570724,14.9935559 C168.266735,15.6588946 168.995951,16.271526 169.754684,16.8335051 C172.022944,18.5135604 174.452486,19.6775521 176.882432,20.4179844 C177.733686,20.6773713 178.524776,20.8653656 179.235774,20.993451 C179.485599,21.0384568 179.707892,21.0727738 179.900164,21.0978314 C180.017083,21.1130688 180.09898,21.1218991 180.143366,21.1257485 C180.316215,21.1407392 180.468487,21.012746 180.483475,20.8398677 C180.498463,20.6669894 180.370492,20.5146915 180.197643,20.4997008 C180.162115,20.4966196 180.089181,20.4887557 179.981345,20.4747021 C179.799024,20.4509414 179.58679,20.4181773 179.347149,20.3750061 C178.659669,20.2511573 177.892456,20.0688374 177.065538,19.8168658 C174.700704,19.0962738 172.335468,17.9630913 170.1286,16.3285075 C169.390732,15.7819828 168.681634,15.1862531 168.004835,14.5392796 C165.442942,12.0902859 164.003846,10.1157429 163.419563,8.55247197 C166.249146,4.01743907 171.282965,1 177.021426,1 C180.003486,1 182.795258,1.81485519 185.186299,3.2340863 C185.829405,3.84597311 185.95402,4.37385875 185.516183,4.79940016 C184.625005,5.66555379 181.217566,4.72158121 180.468489,3.83317337 C180.356639,3.70051936 180.158448,3.6836693 180.025816,3.79553769 C179.893185,3.90740609 179.876337,4.10563067 179.988187,4.23828468 C180.942606,5.37022946 184.746231,6.42395853 185.954044,5.2500627 C186.339378,4.8755488 186.470824,4.4562051 186.391379,4.02470952 Z" id="Combined-Shape" fill="#2C2C2C"></path>
                    <g id="Group-6" transform="translate(133.000000, 354.000000)">
                        <ellipse id="Oval-Copy-18" fill="#2C2C2C" transform="translate(43.016522, 27.021067) rotate(-360.000000) translate(-43.016522, -27.021067) " cx="43.0165216" cy="27.0210671" rx="27.0165216" ry="27.0210671"></ellipse>
                        <g id="Combined-Shape" transform="translate(45.715812, 30.995812) rotate(-360.000000) translate(-45.715812, -30.995812) ">
                            <use fill="#2C2C2C" fill-rule="evenodd" xlink:href="#path-1"></use>
                            <path stroke="#FFFFFF" stroke-width="2" d="M14.497241,35.5080857 C3.95617929,41.5712776 -1.55947681,46.4345227 -0.287645654,49.5824153 C1.81365144,54.7833081 23.4833914,50.086786 49.2267866,39.6857792 C74.9701818,29.2847724 93.8205666,17.6101014 91.7192695,12.4092086 C90.3702663,9.07030838 82.0491917,9.64692598 68.9169505,13.1771174 L67.6376145,13.5210268 L68.3189481,14.6571424 C69.0159615,15.8194038 69.633019,17.0357447 70.1656085,18.3006844 L70.4511038,18.978757 L71.1834179,18.9080027 C72.4783728,18.7828874 73.5017893,18.7865412 74.2073448,18.9116255 C74.5135177,18.9659053 74.7405761,19.0399708 74.8829062,19.1212835 C74.9549349,19.1624333 74.9716426,19.1800616 74.9701331,19.1763256 C75.2151637,19.7827975 72.6317521,22.2111307 67.8576022,25.1172718 C62.5893727,28.3241712 55.1503804,31.948405 46.9786524,35.2499974 C38.8069244,38.5515898 30.9381569,41.1120925 24.9208102,42.4648618 C19.4677989,43.690762 15.9225861,43.7385539 15.6775556,43.1320819 C15.6161267,42.9800401 15.9974164,42.2978658 17.0431506,41.3139472 L17.5448612,40.8418938 L17.28258,40.2049035 C17.2687394,40.1711829 17.2687394,40.1711829 17.2548487,40.1369101 C16.7259072,38.8277339 16.2965873,37.4924788 15.9675497,36.1387366 L15.6527217,34.8434561 L14.497241,35.5080857 Z"></path>
                        </g>
                    </g>
                    <ellipse id="Oval-2-Copy-14" fill="#322C2F" transform="translate(195.884874, 340.885191) scale(-1, 1) rotate(-360.000000) translate(-195.884874, -340.885191) " cx="195.884874" cy="340.885191" rx="1.8848736" ry="1.88519073"></ellipse>
                    <ellipse id="Oval-2-Copy-15" fill="#322C2F" transform="translate(240.884874, 342.885191) scale(-1, 1) rotate(-360.000000) translate(-240.884874, -342.885191) " cx="240.884874" cy="342.885191" rx="1.8848736" ry="1.88519073"></ellipse>
                    <ellipse id="Oval-2-Copy-16" fill="#322C2F" transform="translate(212.827310, 339.827786) scale(-1, 1) rotate(-360.000000) translate(-212.827310, -339.827786) " cx="212.82731" cy="339.827786" rx="2.8273104" ry="2.82778609"></ellipse>
                    <ellipse id="Oval-2-Copy-21" fill="#322C2F" transform="translate(217.570728, 351.570992) scale(-1, 1) rotate(-360.000000) translate(-217.570728, -351.570992) " cx="217.570728" cy="351.570992" rx="1.570728" ry="1.57099227"></ellipse>
                    <ellipse id="Oval-2-Copy-22" fill="#322C2F" transform="translate(151.570728, 415.570992) scale(-1, 1) rotate(-360.000000) translate(-151.570728, -415.570992) " cx="151.570728" cy="415.570992" rx="1.570728" ry="1.57099227"></ellipse>
                    <ellipse id="Oval-2-Copy-23" fill="#322C2F" transform="translate(140.628291, 418.628397) scale(-1, 1) rotate(-360.000000) translate(-140.628291, -418.628397) " cx="140.628291" cy="418.628397" rx="1" ry="1"></ellipse>
                    <text id="Research" font-family="Gotham-Bold, Gotham" font-size="15" font-weight="bold" line-spacing="12" letter-spacing="0.272727251" fill="#2C2C2C">
                        <tspan x="235" y="23">Research</tspan>
                    </text>
                    <rect id="Rectangle-11-Copy-4" fill="#FFFFFF" x="235" y="76" width="82" height="16"></rect>
                    <text id="Define" font-family="Gotham-Bold, Gotham" font-size="15" font-weight="bold" line-spacing="12" letter-spacing="0.272727251" fill="#2C2C2C">
                        <tspan x="235" y="90">Define</tspan>
                    </text>
                    <rect id="Rectangle-11-Copy-2" fill="#FFFFFF" x="233" y="375" width="84" height="15"></rect>
                    <rect id="Rectangle-11-Copy-3" fill="#FFFFFF" x="235" y="163" width="82" height="15"></rect>
                    <text id="Ideate" font-family="Gotham-Bold, Gotham" font-size="15" font-weight="bold" line-spacing="12" letter-spacing="0.272727251" fill="#2C2C2C">
                        <tspan x="235" y="387">Ideate</tspan>
                    </text>
                    <rect id="Rectangle-11" fill="#FFFFFF" x="233" y="528" width="84" height="15"></rect>
                    <rect id="Rectangle-11-Copy" fill="#FFFFFF" x="233" y="691" width="84" height="15"></rect>
                    <text id="Evaluate" font-family="Gotham-Bold, Gotham" font-size="15" font-weight="bold" line-spacing="12" letter-spacing="0.272727251" fill="#2C2C2C">
                        <tspan x="235" y="703">Evaluate</tspan>
                    </text>
                    <text id="Iterate" font-family="Gotham-Bold, Gotham" font-size="15" font-weight="bold" line-spacing="12" letter-spacing="0.272727251" fill="#A7A7A7">
                        <tspan x="3" y="440">Iterate</tspan>
                    </text>
                    <text id="Analyse" font-family="Gotham-Bold, Gotham" font-size="15" font-weight="bold" line-spacing="12" letter-spacing="0.272727251" fill="#2C2C2C">
                        <tspan x="235" y="176">Analyse</tspan>
                    </text>
                </g>
                <text id="Prototype" font-family="Gotham-Bold, Gotham" font-size="15" font-weight="bold" line-spacing="12" letter-spacing="0.272727251" fill="#2C2C2C">
                    <tspan x="235" y="541">Prototype</tspan>
                </text>
            </g>
        </g>
    </g>
</svg>