<?xml version="1.0" encoding="UTF-8" standalone="no"?>
<svg width="357px" height="720px" viewBox="0 0 357 720" version="1.1" xmlns="http://www.w3.org/2000/svg" xmlns:xlink="http://www.w3.org/1999/xlink">
    <!-- Generator: Sketch 43.2 (39069) - http://www.bohemiancoding.com/sketch -->
    <title>Artboard 5</title>
    <desc>Created with Sketch.</desc>
    <defs>
        <path d="M14.9958408,36.374918 C5.32563924,41.9371933 -0.347562865,46.7646478 0.639538201,49.2078087 C2.37170647,53.4950756 23.9572415,48.8168034 48.85218,38.7585954 C73.7471186,28.7003873 92.5242539,17.0710821 90.7920857,12.7838152 C89.73434,10.1658028 81.2734454,10.8909626 69.1765528,14.142833 C69.8921658,15.3361089 70.5320359,16.5939672 71.0872482,17.9126377 C73.8165388,17.6489406 75.5403598,17.9182191 75.897317,18.801719 C77.0181317,21.5758329 64.2385217,29.3550923 47.353259,36.1771813 C30.4679963,42.9992702 15.8711865,46.2808024 14.7503717,43.5066885 C14.4705371,42.8140734 15.0571921,41.8094602 16.3578973,40.5856424 C16.3478266,40.5611841 16.3377491,40.5364761 16.3276649,40.5115167 C15.7761246,39.1464067 15.3335473,37.7643262 14.9958408,36.374918 Z" id="path-1"></path>
    </defs>
    <g id="Content" stroke="none" stroke-width="1" fill="none" fill-rule="evenodd">
        <g id="Artboard-5">
            <ellipse id="Oval-Copy-6" fill="#2C2C2C" transform="translate(177.794503, 696.791173) rotate(-270.000000) translate(-177.794503, -696.791173) " cx="177.794503" cy="696.791173" rx="19.7911728" ry="19.7945026"></ellipse>
            <ellipse id="Oval-Copy-9" stroke="#2C2C2C" stroke-width="2" transform="translate(178.311144, 84.309242) rotate(-270.000000) translate(-178.311144, -84.309242) " cx="178.311144" cy="84.3092416" rx="10.3092416" ry="10.3111444"></ellipse>
            <ellipse id="Oval-Copy-11" fill="#2C2C2C" transform="translate(177.930379, 534.922821) rotate(-270.000000) translate(-177.930379, -534.922821) " cx="177.930379" cy="534.922821" rx="44.9228208" ry="44.930379"></ellipse>
            <ellipse id="Oval-4-Copy-5" stroke="#979797" stroke-dasharray="2" transform="translate(178.000000, 436.207928) rotate(-270.000000) translate(-178.000000, -436.207928) " cx="178" cy="436.207928" rx="282" ry="177.207928"></ellipse>
            <ellipse id="Oval-4-Copy-6" stroke="#979797" stroke-dasharray="2,2" transform="translate(177.954001, 204.492209) rotate(-270.000000) translate(-177.954001, -204.492209) " cx="177.954001" cy="204.492209" rx="204.954001" ry="79.4922089"></ellipse>
            <ellipse id="Oval-4-Copy-7" stroke="#979797" stroke-dasharray="2,2" transform="translate(177.834078, 90.589005) rotate(-270.000000) translate(-177.834078, -90.589005) " cx="177.834078" cy="90.5890052" rx="90.8340778" ry="39.5890052"></ellipse>
            <ellipse id="Oval-2-Copy-4" fill="#FFFFFF" transform="translate(200.885191, 507.884874) rotate(-270.000000) translate(-200.885191, -507.884874) " cx="200.885191" cy="507.884874" rx="1.8848736" ry="1.88519073"></ellipse>
            <ellipse id="Oval-2-Copy-17" fill="#322C2F" transform="translate(140.827786, 479.827310) rotate(-270.000000) translate(-140.827786, -479.827310) " cx="140.827786" cy="479.82731" rx="2.8273104" ry="2.82778609"></ellipse>
            <ellipse id="Oval-2-Copy-18" fill="#322C2F" transform="translate(133.885191, 575.884874) rotate(-270.000000) translate(-133.885191, -575.884874) " cx="133.885191" cy="575.884874" rx="1.8848736" ry="1.88519073"></ellipse>
            <ellipse id="Oval-2-Copy-26" fill="#322C2F" transform="translate(153.000000, 684.999832) rotate(-270.000000) translate(-153.000000, -684.999832) " cx="153" cy="684.999832" rx="1" ry="1"></ellipse>
            <ellipse id="Oval-2-Copy-19" fill="#322C2F" transform="translate(146.513588, 705.513165) rotate(-270.000000) translate(-146.513588, -705.513165) " cx="146.513588" cy="705.513165" rx="2.5131648" ry="2.51358763"></ellipse>
            <ellipse id="Oval-2-Copy-20" fill="#322C2F" transform="translate(158.885191, 481.884874) rotate(-270.000000) translate(-158.885191, -481.884874) " cx="158.885191" cy="481.884874" rx="1.8848736" ry="1.88519073"></ellipse>
            <ellipse id="Oval-Copy-7" fill="#2C2C2C" transform="translate(177.764843, 169.767327) rotate(-360.000000) translate(-177.764843, -169.767327) " cx="177.764843" cy="169.767327" rx="14.7648432" ry="14.7673273"></ellipse>
            <ellipse id="Oval-2-Copy-24" fill="#322C2F" transform="translate(157.570728, 160.570992) rotate(-360.000000) translate(-157.570728, -160.570992) " cx="157.570728" cy="160.570992" rx="1.570728" ry="1.57099227"></ellipse>
            <ellipse id="Oval-2-Copy-25" fill="#322C2F" transform="translate(195.628291, 180.628397) scale(1, -1) rotate(360.000000) translate(-195.628291, -180.628397) " cx="195.628291" cy="180.628397" rx="1" ry="1"></ellipse>
            <ellipse id="Oval-4-Copy-8" stroke="#979797" stroke-dasharray="2,2" transform="translate(177.688243, 326.699492) rotate(-270.000000) translate(-177.688243, -326.699492) " cx="177.688243" cy="326.699492" rx="254.688243" ry="105.699492"></ellipse>
            <path d="M187.391379,4.02470952 C191.420649,6.93506931 194.042851,11.6733196 194.042851,17.0241212 C194.042851,20.0927762 193.18042,22.9599657 191.684755,25.3964523 C190.795989,25.6209348 189.803655,25.8038465 188.702633,25.9413016 C183.798737,26.5535193 179.042538,25.6337594 174.830297,23.8659741 C174.163926,23.5863126 173.571288,23.3082096 173.059858,23.0446638 C172.881507,22.9527579 172.726238,22.8693588 172.594981,22.7960933 C172.517203,22.7526786 172.465291,22.7226454 172.440175,22.7076212 C172.291281,22.6185517 172.098378,22.6670724 172.009315,22.815995 C171.920251,22.9649177 171.968753,23.1578484 172.117647,23.2469178 C172.148085,23.2651263 172.205431,23.2983028 172.288765,23.344819 C172.42603,23.4214382 172.587436,23.5081334 172.772066,23.6032756 C173.297724,23.8741528 173.905198,24.1592183 174.587164,24.4454242 C178.892591,26.2523176 183.753833,27.192391 188.780419,26.5648563 C189.645088,26.4569083 190.446233,26.3211733 191.186148,26.1592185 C190.368201,27.3361558 189.396527,28.3981875 188.300204,29.3162301 C187.507527,29.5519428 186.611041,29.7406866 185.618625,29.8703692 C185.33928,29.9068723 185.05501,29.9353321 184.766193,29.9560094 C182.510465,30.1175038 180.19815,29.8138847 178.176796,29.2998123 C177.879133,29.2241102 177.668735,29.163948 177.559296,29.1296036 C177.393758,29.0776541 177.217448,29.1697596 177.165497,29.335327 C177.113547,29.5008944 177.205627,29.6772267 177.371166,29.7291762 C177.402368,29.7389681 177.460608,29.7564582 177.544195,29.7803597 C177.682055,29.8197801 177.841862,29.8630315 178.021927,29.908826 C180.102867,30.4380522 182.477544,30.7498598 184.811016,30.5827994 C185.11186,30.561261 185.408303,30.5315824 185.699986,30.4934672 C186.164174,30.4328101 186.609126,30.3594179 187.034064,30.274308 C184.466301,32.0248489 181.363357,33.0482423 178.021426,33.0482423 C169.173037,33.0482423 162,25.8739989 162,17.0241212 C162,14.1872328 162.737077,11.522527 164.030142,9.21112438 C164.749578,10.8168303 166.209602,12.7364849 168.570724,14.9935559 C169.266735,15.6588946 169.995951,16.271526 170.754684,16.8335051 C173.022944,18.5135604 175.452486,19.6775521 177.882432,20.4179844 C178.733686,20.6773713 179.524776,20.8653656 180.235774,20.993451 C180.485599,21.0384568 180.707892,21.0727738 180.900164,21.0978314 C181.017083,21.1130688 181.09898,21.1218991 181.143366,21.1257485 C181.316215,21.1407392 181.468487,21.012746 181.483475,20.8398677 C181.498463,20.6669894 181.370492,20.5146915 181.197643,20.4997008 C181.162115,20.4966196 181.089181,20.4887557 180.981345,20.4747021 C180.799024,20.4509414 180.58679,20.4181773 180.347149,20.3750061 C179.659669,20.2511573 178.892456,20.0688374 178.065538,19.8168658 C175.700704,19.0962738 173.335468,17.9630913 171.1286,16.3285075 C170.390732,15.7819828 169.681634,15.1862531 169.004835,14.5392796 C166.442942,12.0902859 165.003846,10.1157429 164.419563,8.55247197 C167.249146,4.01743907 172.282965,1 178.021426,1 C181.003486,1 183.795258,1.81485519 186.186299,3.2340863 C186.829405,3.84597311 186.95402,4.37385875 186.516183,4.79940016 C185.625005,5.66555379 182.217566,4.72158121 181.468489,3.83317337 C181.356639,3.70051936 181.158448,3.6836693 181.025816,3.79553769 C180.893185,3.90740609 180.876337,4.10563067 180.988187,4.23828468 C181.942606,5.37022946 185.746231,6.42395853 186.954044,5.2500627 C187.339378,4.8755488 187.470824,4.4562051 187.391379,4.02470952 Z" id="Combined-Shape" fill="#2C2C2C"></path>
            <g id="Group-6" transform="translate(134.000000, 354.000000)">
                <ellipse id="Oval-Copy-18" fill="#2C2C2C" transform="translate(43.016522, 27.021067) rotate(-360.000000) translate(-43.016522, -27.021067) " cx="43.0165216" cy="27.0210671" rx="27.0165216" ry="27.0210671"></ellipse>
                <g id="Combined-Shape" transform="translate(45.715812, 30.995812) rotate(-360.000000) translate(-45.715812, -30.995812) ">
                    <use fill="#2C2C2C" fill-rule="evenodd" xlink:href="#path-1"></use>
                    <path stroke="#FFFFFF" stroke-width="2" d="M14.497241,35.5080857 C3.95617929,41.5712776 -1.55947681,46.4345227 -0.287645654,49.5824153 C1.81365144,54.7833081 23.4833914,50.086786 49.2267866,39.6857792 C74.9701818,29.2847724 93.8205666,17.6101014 91.7192695,12.4092086 C90.3702663,9.07030838 82.0491917,9.64692598 68.9169505,13.1771174 L67.6376145,13.5210268 L68.3189481,14.6571424 C69.0159615,15.8194038 69.633019,17.0357447 70.1656085,18.3006844 L70.4511038,18.978757 L71.1834179,18.9080027 C72.4783728,18.7828874 73.5017893,18.7865412 74.2073448,18.9116255 C74.5135177,18.9659053 74.7405761,19.0399708 74.8829062,19.1212835 C74.9549349,19.1624333 74.9716426,19.1800616 74.9701331,19.1763256 C75.2151637,19.7827975 72.6317521,22.2111307 67.8576022,25.1172718 C62.5893727,28.3241712 55.1503804,31.948405 46.9786524,35.2499974 C38.8069244,38.5515898 30.9381569,41.1120925 24.9208102,42.4648618 C19.4677989,43.690762 15.9225861,43.7385539 15.6775556,43.1320819 C15.6161267,42.9800401 15.9974164,42.2978658 17.0431506,41.3139472 L17.5448612,40.8418938 L17.28258,40.2049035 C17.2687394,40.1711829 17.2687394,40.1711829 17.2548487,40.1369101 C16.7259072,38.8277339 16.2965873,37.4924788 15.9675497,36.1387366 L15.6527217,34.8434561 L14.497241,35.5080857 Z"></path>
                </g>
            </g>
            <ellipse id="Oval-2-Copy-14" fill="#322C2F" transform="translate(196.884874, 340.885191) scale(-1, 1) rotate(-360.000000) translate(-196.884874, -340.885191) " cx="196.884874" cy="340.885191" rx="1.8848736" ry="1.88519073"></ellipse>
            <ellipse id="Oval-2-Copy-15" fill="#322C2F" transform="translate(241.884874, 342.885191) scale(-1, 1) rotate(-360.000000) translate(-241.884874, -342.885191) " cx="241.884874" cy="342.885191" rx="1.8848736" ry="1.88519073"></ellipse>
            <ellipse id="Oval-2-Copy-16" fill="#322C2F" transform="translate(213.827310, 339.827786) scale(-1, 1) rotate(-360.000000) translate(-213.827310, -339.827786) " cx="213.82731" cy="339.827786" rx="2.8273104" ry="2.82778609"></ellipse>
            <ellipse id="Oval-2-Copy-21" fill="#322C2F" transform="translate(218.570728, 351.570992) scale(-1, 1) rotate(-360.000000) translate(-218.570728, -351.570992) " cx="218.570728" cy="351.570992" rx="1.570728" ry="1.57099227"></ellipse>
            <ellipse id="Oval-2-Copy-22" fill="#322C2F" transform="translate(152.570728, 415.570992) scale(-1, 1) rotate(-360.000000) translate(-152.570728, -415.570992) " cx="152.570728" cy="415.570992" rx="1.570728" ry="1.57099227"></ellipse>
            <ellipse id="Oval-2-Copy-23" fill="#322C2F" transform="translate(141.628291, 418.628397) scale(-1, 1) rotate(-360.000000) translate(-141.628291, -418.628397) " cx="141.628291" cy="418.628397" rx="1" ry="1"></ellipse>
            <path d="M237.26,23 L237.26,12.5 L242.06,12.5 C243.395,12.5 244.43,12.875 245.12,13.565 C245.705,14.15 246.02,14.975 246.02,15.965 L246.02,15.995 C246.02,17.69 245.105,18.755 243.77,19.25 L246.335,23 L243.635,23 L241.385,19.64 L239.57,19.64 L239.57,23 L237.26,23 Z M239.57,17.6 L241.91,17.6 C243.035,17.6 243.68,17 243.68,16.115 L243.68,16.085 C243.68,15.095 242.99,14.585 241.865,14.585 L239.57,14.585 L239.57,17.6 Z M251.797727,23.18 C249.382727,23.18 247.597727,21.485 247.597727,19.025 L247.597727,18.995 C247.597727,16.7 249.232727,14.81 251.572727,14.81 C254.257727,14.81 255.487727,16.895 255.487727,19.175 C255.487727,19.355 255.472727,19.565 255.457727,19.775 L249.862727,19.775 C250.087727,20.81 250.807727,21.35 251.827727,21.35 C252.592727,21.35 253.147727,21.11 253.777727,20.525 L255.082727,21.68 C254.332727,22.61 253.252727,23.18 251.797727,23.18 Z M249.832727,18.35 L253.267727,18.35 C253.132727,17.33 252.532727,16.64 251.572727,16.64 C250.627727,16.64 250.012727,17.315 249.832727,18.35 Z M260.275455,23.15 C262.015455,23.15 263.350455,22.34 263.350455,20.555 L263.350455,20.525 C263.350455,19.055 262.045455,18.515 260.920455,18.14 C260.050455,17.84 259.285455,17.63 259.285455,17.18 L259.285455,17.15 C259.285455,16.835 259.570455,16.595 260.125455,16.595 C260.710455,16.595 261.505455,16.88 262.300455,17.345 L263.170455,15.77 C262.300455,15.185 261.190455,14.84 260.170455,14.84 C258.550455,14.84 257.230455,15.755 257.230455,17.39 L257.230455,17.42 C257.230455,18.98 258.505455,19.505 259.630455,19.835 C260.515455,20.105 261.295455,20.27 261.295455,20.765 L261.295455,20.795 C261.295455,21.155 260.995455,21.395 260.335455,21.395 C259.585455,21.395 258.670455,21.065 257.800455,20.435 L256.825455,21.935 C257.890455,22.775 259.150455,23.15 260.275455,23.15 Z M269.068182,23.18 C266.653182,23.18 264.868182,21.485 264.868182,19.025 L264.868182,18.995 C264.868182,16.7 266.503182,14.81 268.843182,14.81 C271.528182,14.81 272.758182,16.895 272.758182,19.175 C272.758182,19.355 272.743182,19.565 272.728182,19.775 L267.133182,19.775 C267.358182,20.81 268.078182,21.35 269.098182,21.35 C269.863182,21.35 270.418182,21.11 271.048182,20.525 L272.353182,21.68 C271.603182,22.61 270.523182,23.18 269.068182,23.18 Z M267.103182,18.35 L270.538182,18.35 C270.403182,17.33 269.803182,16.64 268.843182,16.64 C267.898182,16.64 267.283182,17.315 267.103182,18.35 Z M277.005909,23.15 C275.490909,23.15 274.245909,22.28 274.245909,20.69 L274.245909,20.66 C274.245909,18.905 275.580909,18.095 277.485909,18.095 C278.295909,18.095 278.880909,18.23 279.450909,18.425 L279.450909,18.29 C279.450909,17.345 278.865909,16.82 277.725909,16.82 C276.855909,16.82 276.240909,16.985 275.505909,17.255 L274.935909,15.515 C275.820909,15.125 276.690909,14.87 278.055909,14.87 C279.300909,14.87 280.200909,15.2 280.770909,15.77 C281.370909,16.37 281.640909,17.255 281.640909,18.335 L281.640909,23 L279.435909,23 L279.435909,22.13 C278.880909,22.745 278.115909,23.15 277.005909,23.15 Z M277.695909,21.575 C278.760909,21.575 279.480909,20.99 279.480909,20.165 L279.480909,19.76 C279.090909,19.58 278.580909,19.46 278.025909,19.46 C277.050909,19.46 276.450909,19.85 276.450909,20.57 L276.450909,20.6 C276.450909,21.215 276.960909,21.575 277.695909,21.575 Z M283.878636,23 L286.158636,23 L286.158636,20.03 C286.158636,18.11 287.088636,17.195 288.603636,17.195 L288.723636,17.195 L288.723636,14.81 C287.373636,14.75 286.623636,15.47 286.158636,16.58 L286.158636,14.96 L283.878636,14.96 L283.878636,23 Z M293.991364,23.18 C295.596364,23.18 296.496364,22.565 297.276364,21.71 L295.941364,20.36 C295.386364,20.885 294.861364,21.215 294.096364,21.215 C292.851364,21.215 292.056364,20.225 292.056364,18.995 L292.056364,18.965 C292.056364,17.78 292.866364,16.775 294.006364,16.775 C294.816364,16.775 295.326364,17.12 295.836364,17.66 L297.231364,16.16 C296.481364,15.32 295.536364,14.81 294.021364,14.81 C291.561364,14.81 289.806364,16.7 289.806364,18.995 L289.806364,19.025 C289.806364,21.32 291.576364,23.18 293.991364,23.18 Z M299.034091,23 L301.314091,23 L301.314091,18.515 C301.314091,17.435 301.869091,16.88 302.739091,16.88 C303.609091,16.88 304.119091,17.435 304.119091,18.515 L304.119091,23 L306.399091,23 L306.399091,17.795 C306.399091,15.95 305.394091,14.81 303.669091,14.81 C302.514091,14.81 301.839091,15.425 301.314091,16.1 L301.314091,12.05 L299.034091,12.05 L299.034091,23 Z" id="Research" fill="#2C2C2C"></path>
            <rect id="Rectangle-11-Copy-4" fill="#FFFFFF" x="236" y="76" width="82" height="16"></rect>
            <path d="M237.26,90 L237.26,79.5 L241.355,79.5 C244.655,79.5 246.935,81.765 246.935,84.72 L246.935,84.75 C246.935,87.705 244.655,90 241.355,90 L237.26,90 Z M241.355,81.585 L239.57,81.585 L239.57,87.915 L241.355,87.915 C243.245,87.915 244.52,86.64 244.52,84.78 L244.52,84.75 C244.52,82.89 243.245,81.585 241.355,81.585 Z M252.832727,90.18 C250.417727,90.18 248.632727,88.485 248.632727,86.025 L248.632727,85.995 C248.632727,83.7 250.267727,81.81 252.607727,81.81 C255.292727,81.81 256.522727,83.895 256.522727,86.175 C256.522727,86.355 256.507727,86.565 256.492727,86.775 L250.897727,86.775 C251.122727,87.81 251.842727,88.35 252.862727,88.35 C253.627727,88.35 254.182727,88.11 254.812727,87.525 L256.117727,88.68 C255.367727,89.61 254.287727,90.18 252.832727,90.18 Z M250.867727,85.35 L254.302727,85.35 C254.167727,84.33 253.567727,83.64 252.607727,83.64 C251.662727,83.64 251.047727,84.315 250.867727,85.35 Z M258.880455,90 L261.160455,90 L261.160455,83.91 L262.975455,83.91 L262.975455,82.05 L261.130455,82.05 L261.130455,81.735 C261.130455,81.135 261.430455,80.865 261.955455,80.865 C262.345455,80.865 262.660455,80.94 262.990455,81.06 L262.990455,79.17 C262.570455,79.035 262.090455,78.945 261.370455,78.945 C260.560455,78.945 259.945455,79.155 259.525455,79.575 C259.105455,79.995 258.880455,80.64 258.880455,81.525 L258.880455,82.035 L257.935455,82.035 L257.935455,83.91 L258.880455,83.91 L258.880455,90 Z M264.325455,90 L266.605455,90 L266.605455,81.96 L264.325455,81.96 L264.325455,90 Z M264.265455,81.075 L266.665455,81.075 L266.665455,79.05 L264.265455,79.05 L264.265455,81.075 Z M269.023182,90 L271.303182,90 L271.303182,85.515 C271.303182,84.435 271.858182,83.88 272.728182,83.88 C273.598182,83.88 274.108182,84.435 274.108182,85.515 L274.108182,90 L276.388182,90 L276.388182,84.795 C276.388182,82.95 275.383182,81.81 273.658182,81.81 C272.503182,81.81 271.828182,82.425 271.303182,83.1 L271.303182,81.96 L269.023182,81.96 L269.023182,90 Z M282.450909,90.18 C280.035909,90.18 278.250909,88.485 278.250909,86.025 L278.250909,85.995 C278.250909,83.7 279.885909,81.81 282.225909,81.81 C284.910909,81.81 286.140909,83.895 286.140909,86.175 C286.140909,86.355 286.125909,86.565 286.110909,86.775 L280.515909,86.775 C280.740909,87.81 281.460909,88.35 282.480909,88.35 C283.245909,88.35 283.800909,88.11 284.430909,87.525 L285.735909,88.68 C284.985909,89.61 283.905909,90.18 282.450909,90.18 Z M280.485909,85.35 L283.920909,85.35 C283.785909,84.33 283.185909,83.64 282.225909,83.64 C281.280909,83.64 280.665909,84.315 280.485909,85.35 Z" id="Define" fill="#2C2C2C"></path>
            <rect id="Rectangle-11-Copy-2" fill="#FFFFFF" x="234" y="375" width="84" height="15"></rect>
            <rect id="Rectangle-11-Copy-3" fill="#FFFFFF" x="236" y="163" width="82" height="15"></rect>
            <path d="M237.365,387 L239.675,387 L239.675,376.5 L237.365,376.5 L237.365,387 Z M245.632727,387.15 C243.757727,387.15 241.972727,385.68 241.972727,382.995 L241.972727,382.965 C241.972727,380.28 243.727727,378.81 245.632727,378.81 C246.847727,378.81 247.597727,379.365 248.137727,380.01 L248.137727,376.05 L250.417727,376.05 L250.417727,387 L248.137727,387 L248.137727,385.845 C247.582727,386.595 246.817727,387.15 245.632727,387.15 Z M246.217727,385.215 C247.282727,385.215 248.167727,384.33 248.167727,382.995 L248.167727,382.965 C248.167727,381.63 247.282727,380.745 246.217727,380.745 C245.152727,380.745 244.252727,381.615 244.252727,382.965 L244.252727,382.995 C244.252727,384.33 245.152727,385.215 246.217727,385.215 Z M256.540455,387.18 C254.125455,387.18 252.340455,385.485 252.340455,383.025 L252.340455,382.995 C252.340455,380.7 253.975455,378.81 256.315455,378.81 C259.000455,378.81 260.230455,380.895 260.230455,383.175 C260.230455,383.355 260.215455,383.565 260.200455,383.775 L254.605455,383.775 C254.830455,384.81 255.550455,385.35 256.570455,385.35 C257.335455,385.35 257.890455,385.11 258.520455,384.525 L259.825455,385.68 C259.075455,386.61 257.995455,387.18 256.540455,387.18 Z M254.575455,382.35 L258.010455,382.35 C257.875455,381.33 257.275455,380.64 256.315455,380.64 C255.370455,380.64 254.755455,381.315 254.575455,382.35 Z M264.478182,387.15 C262.963182,387.15 261.718182,386.28 261.718182,384.69 L261.718182,384.66 C261.718182,382.905 263.053182,382.095 264.958182,382.095 C265.768182,382.095 266.353182,382.23 266.923182,382.425 L266.923182,382.29 C266.923182,381.345 266.338182,380.82 265.198182,380.82 C264.328182,380.82 263.713182,380.985 262.978182,381.255 L262.408182,379.515 C263.293182,379.125 264.163182,378.87 265.528182,378.87 C266.773182,378.87 267.673182,379.2 268.243182,379.77 C268.843182,380.37 269.113182,381.255 269.113182,382.335 L269.113182,387 L266.908182,387 L266.908182,386.13 C266.353182,386.745 265.588182,387.15 264.478182,387.15 Z M265.168182,385.575 C266.233182,385.575 266.953182,384.99 266.953182,384.165 L266.953182,383.76 C266.563182,383.58 266.053182,383.46 265.498182,383.46 C264.523182,383.46 263.923182,383.85 263.923182,384.57 L263.923182,384.6 C263.923182,385.215 264.433182,385.575 265.168182,385.575 Z M273.990909,387.135 C274.755909,387.135 275.310909,386.955 275.790909,386.67 L275.790909,384.84 C275.460909,385.02 275.085909,385.125 274.665909,385.125 C274.155909,385.125 273.930909,384.87 273.930909,384.345 L273.930909,380.91 L275.820909,380.91 L275.820909,378.96 L273.930909,378.96 L273.930909,376.905 L271.650909,376.905 L271.650909,378.96 L270.690909,378.96 L270.690909,380.91 L271.650909,380.91 L271.650909,384.72 C271.650909,386.58 272.595909,387.135 273.990909,387.135 Z M281.358636,387.18 C278.943636,387.18 277.158636,385.485 277.158636,383.025 L277.158636,382.995 C277.158636,380.7 278.793636,378.81 281.133636,378.81 C283.818636,378.81 285.048636,380.895 285.048636,383.175 C285.048636,383.355 285.033636,383.565 285.018636,383.775 L279.423636,383.775 C279.648636,384.81 280.368636,385.35 281.388636,385.35 C282.153636,385.35 282.708636,385.11 283.338636,384.525 L284.643636,385.68 C283.893636,386.61 282.813636,387.18 281.358636,387.18 Z M279.393636,382.35 L282.828636,382.35 C282.693636,381.33 282.093636,380.64 281.133636,380.64 C280.188636,380.64 279.573636,381.315 279.393636,382.35 Z" id="Ideate" fill="#2C2C2C"></path>
            <rect id="Rectangle-11" fill="#FFFFFF" x="234" y="528" width="84" height="15"></rect>
            <rect id="Rectangle-11-Copy" fill="#FFFFFF" x="234" y="691" width="84" height="15"></rect>
            <path d="M237.26,703 L245.255,703 L245.255,700.945 L239.555,700.945 L239.555,698.74 L244.505,698.74 L244.505,696.685 L239.555,696.685 L239.555,694.555 L245.18,694.555 L245.18,692.5 L237.26,692.5 L237.26,703 Z M249.637727,703.06 L251.707727,703.06 L254.872727,694.96 L252.502727,694.96 L250.687727,700.345 L248.887727,694.96 L246.472727,694.96 L249.637727,703.06 Z M258.370455,703.15 C256.855455,703.15 255.610455,702.28 255.610455,700.69 L255.610455,700.66 C255.610455,698.905 256.945455,698.095 258.850455,698.095 C259.660455,698.095 260.245455,698.23 260.815455,698.425 L260.815455,698.29 C260.815455,697.345 260.230455,696.82 259.090455,696.82 C258.220455,696.82 257.605455,696.985 256.870455,697.255 L256.300455,695.515 C257.185455,695.125 258.055455,694.87 259.420455,694.87 C260.665455,694.87 261.565455,695.2 262.135455,695.77 C262.735455,696.37 263.005455,697.255 263.005455,698.335 L263.005455,703 L260.800455,703 L260.800455,702.13 C260.245455,702.745 259.480455,703.15 258.370455,703.15 Z M259.060455,701.575 C260.125455,701.575 260.845455,700.99 260.845455,700.165 L260.845455,699.76 C260.455455,699.58 259.945455,699.46 259.390455,699.46 C258.415455,699.46 257.815455,699.85 257.815455,700.57 L257.815455,700.6 C257.815455,701.215 258.325455,701.575 259.060455,701.575 Z M265.348182,703 L267.628182,703 L267.628182,692.05 L265.348182,692.05 L265.348182,703 Z M272.715909,703.15 C273.870909,703.15 274.545909,702.535 275.070909,701.86 L275.070909,703 L277.350909,703 L277.350909,694.96 L275.070909,694.96 L275.070909,699.445 C275.070909,700.525 274.515909,701.08 273.645909,701.08 C272.775909,701.08 272.265909,700.525 272.265909,699.445 L272.265909,694.96 L269.985909,694.96 L269.985909,700.165 C269.985909,702.01 270.990909,703.15 272.715909,703.15 Z M281.943636,703.15 C280.428636,703.15 279.183636,702.28 279.183636,700.69 L279.183636,700.66 C279.183636,698.905 280.518636,698.095 282.423636,698.095 C283.233636,698.095 283.818636,698.23 284.388636,698.425 L284.388636,698.29 C284.388636,697.345 283.803636,696.82 282.663636,696.82 C281.793636,696.82 281.178636,696.985 280.443636,697.255 L279.873636,695.515 C280.758636,695.125 281.628636,694.87 282.993636,694.87 C284.238636,694.87 285.138636,695.2 285.708636,695.77 C286.308636,696.37 286.578636,697.255 286.578636,698.335 L286.578636,703 L284.373636,703 L284.373636,702.13 C283.818636,702.745 283.053636,703.15 281.943636,703.15 Z M282.633636,701.575 C283.698636,701.575 284.418636,700.99 284.418636,700.165 L284.418636,699.76 C284.028636,699.58 283.518636,699.46 282.963636,699.46 C281.988636,699.46 281.388636,699.85 281.388636,700.57 L281.388636,700.6 C281.388636,701.215 281.898636,701.575 282.633636,701.575 Z M291.456364,703.135 C292.221364,703.135 292.776364,702.955 293.256364,702.67 L293.256364,700.84 C292.926364,701.02 292.551364,701.125 292.131364,701.125 C291.621364,701.125 291.396364,700.87 291.396364,700.345 L291.396364,696.91 L293.286364,696.91 L293.286364,694.96 L291.396364,694.96 L291.396364,692.905 L289.116364,692.905 L289.116364,694.96 L288.156364,694.96 L288.156364,696.91 L289.116364,696.91 L289.116364,700.72 C289.116364,702.58 290.061364,703.135 291.456364,703.135 Z M298.824091,703.18 C296.409091,703.18 294.624091,701.485 294.624091,699.025 L294.624091,698.995 C294.624091,696.7 296.259091,694.81 298.599091,694.81 C301.284091,694.81 302.514091,696.895 302.514091,699.175 C302.514091,699.355 302.499091,699.565 302.484091,699.775 L296.889091,699.775 C297.114091,700.81 297.834091,701.35 298.854091,701.35 C299.619091,701.35 300.174091,701.11 300.804091,700.525 L302.109091,701.68 C301.359091,702.61 300.279091,703.18 298.824091,703.18 Z M296.859091,698.35 L300.294091,698.35 C300.159091,697.33 299.559091,696.64 298.599091,696.64 C297.654091,696.64 297.039091,697.315 296.859091,698.35 Z" id="Evaluate" fill="#2C2C2C"></path>
            <path d="M5.365,440 L7.675,440 L7.675,429.5 L5.365,429.5 L5.365,440 Z M13.0477273,440.135 C13.8127273,440.135 14.3677273,439.955 14.8477273,439.67 L14.8477273,437.84 C14.5177273,438.02 14.1427273,438.125 13.7227273,438.125 C13.2127273,438.125 12.9877273,437.87 12.9877273,437.345 L12.9877273,433.91 L14.8777273,433.91 L14.8777273,431.96 L12.9877273,431.96 L12.9877273,429.905 L10.7077273,429.905 L10.7077273,431.96 L9.74772725,431.96 L9.74772725,433.91 L10.7077273,433.91 L10.7077273,437.72 C10.7077273,439.58 11.6527273,440.135 13.0477273,440.135 Z M20.4154545,440.18 C18.0004545,440.18 16.2154545,438.485 16.2154545,436.025 L16.2154545,435.995 C16.2154545,433.7 17.8504545,431.81 20.1904545,431.81 C22.8754545,431.81 24.1054545,433.895 24.1054545,436.175 C24.1054545,436.355 24.0904545,436.565 24.0754545,436.775 L18.4804545,436.775 C18.7054545,437.81 19.4254545,438.35 20.4454545,438.35 C21.2104545,438.35 21.7654545,438.11 22.3954545,437.525 L23.7004545,438.68 C22.9504545,439.61 21.8704545,440.18 20.4154545,440.18 Z M18.4504545,435.35 L21.8854545,435.35 C21.7504545,434.33 21.1504545,433.64 20.1904545,433.64 C19.2454545,433.64 18.6304545,434.315 18.4504545,435.35 Z M26.0731818,440 L28.3531818,440 L28.3531818,437.03 C28.3531818,435.11 29.2831818,434.195 30.7981818,434.195 L30.9181818,434.195 L30.9181818,431.81 C29.5681818,431.75 28.8181818,432.47 28.3531818,433.58 L28.3531818,431.96 L26.0731818,431.96 L26.0731818,440 Z M34.520909,440.15 C33.005909,440.15 31.760909,439.28 31.760909,437.69 L31.760909,437.66 C31.760909,435.905 33.095909,435.095 35.000909,435.095 C35.810909,435.095 36.395909,435.23 36.965909,435.425 L36.965909,435.29 C36.965909,434.345 36.380909,433.82 35.240909,433.82 C34.370909,433.82 33.755909,433.985 33.020909,434.255 L32.450909,432.515 C33.335909,432.125 34.205909,431.87 35.570909,431.87 C36.815909,431.87 37.715909,432.2 38.285909,432.77 C38.885909,433.37 39.155909,434.255 39.155909,435.335 L39.155909,440 L36.950909,440 L36.950909,439.13 C36.395909,439.745 35.630909,440.15 34.520909,440.15 Z M35.210909,438.575 C36.275909,438.575 36.995909,437.99 36.995909,437.165 L36.995909,436.76 C36.605909,436.58 36.095909,436.46 35.540909,436.46 C34.565909,436.46 33.965909,436.85 33.965909,437.57 L33.965909,437.6 C33.965909,438.215 34.475909,438.575 35.210909,438.575 Z M44.0336363,440.135 C44.7986363,440.135 45.3536363,439.955 45.8336363,439.67 L45.8336363,437.84 C45.5036363,438.02 45.1286363,438.125 44.7086363,438.125 C44.1986363,438.125 43.9736363,437.87 43.9736363,437.345 L43.9736363,433.91 L45.8636363,433.91 L45.8636363,431.96 L43.9736363,431.96 L43.9736363,429.905 L41.6936363,429.905 L41.6936363,431.96 L40.7336363,431.96 L40.7336363,433.91 L41.6936363,433.91 L41.6936363,437.72 C41.6936363,439.58 42.6386363,440.135 44.0336363,440.135 Z M51.4013635,440.18 C48.9863635,440.18 47.2013635,438.485 47.2013635,436.025 L47.2013635,435.995 C47.2013635,433.7 48.8363635,431.81 51.1763635,431.81 C53.8613635,431.81 55.0913635,433.895 55.0913635,436.175 C55.0913635,436.355 55.0763635,436.565 55.0613635,436.775 L49.4663635,436.775 C49.6913635,437.81 50.4113635,438.35 51.4313635,438.35 C52.1963635,438.35 52.7513635,438.11 53.3813635,437.525 L54.6863635,438.68 C53.9363635,439.61 52.8563635,440.18 51.4013635,440.18 Z M49.4363635,435.35 L52.8713635,435.35 C52.7363635,434.33 52.1363635,433.64 51.1763635,433.64 C50.2313635,433.64 49.6163635,434.315 49.4363635,435.35 Z" id="Iterate" fill="#A7A7A7"></path>
            <path d="M236.36,176 L240.86,165.425 L242.99,165.425 L247.49,176 L245.075,176 L244.115,173.645 L239.675,173.645 L238.715,176 L236.36,176 Z M240.5,171.605 L243.29,171.605 L241.895,168.2 L240.5,171.605 Z M249.142727,176 L251.422727,176 L251.422727,171.515 C251.422727,170.435 251.977727,169.88 252.847727,169.88 C253.717727,169.88 254.227727,170.435 254.227727,171.515 L254.227727,176 L256.507727,176 L256.507727,170.795 C256.507727,168.95 255.502727,167.81 253.777727,167.81 C252.622727,167.81 251.947727,168.425 251.422727,169.1 L251.422727,167.96 L249.142727,167.96 L249.142727,176 Z M261.040455,176.15 C259.525455,176.15 258.280455,175.28 258.280455,173.69 L258.280455,173.66 C258.280455,171.905 259.615455,171.095 261.520455,171.095 C262.330455,171.095 262.915455,171.23 263.485455,171.425 L263.485455,171.29 C263.485455,170.345 262.900455,169.82 261.760455,169.82 C260.890455,169.82 260.275455,169.985 259.540455,170.255 L258.970455,168.515 C259.855455,168.125 260.725455,167.87 262.090455,167.87 C263.335455,167.87 264.235455,168.2 264.805455,168.77 C265.405455,169.37 265.675455,170.255 265.675455,171.335 L265.675455,176 L263.470455,176 L263.470455,175.13 C262.915455,175.745 262.150455,176.15 261.040455,176.15 Z M261.730455,174.575 C262.795455,174.575 263.515455,173.99 263.515455,173.165 L263.515455,172.76 C263.125455,172.58 262.615455,172.46 262.060455,172.46 C261.085455,172.46 260.485455,172.85 260.485455,173.57 L260.485455,173.6 C260.485455,174.215 260.995455,174.575 261.730455,174.575 Z M268.018182,176 L270.298182,176 L270.298182,165.05 L268.018182,165.05 L268.018182,176 Z M276.240909,173.435 L274.410909,167.96 L271.995909,167.96 L275.145909,176.03 C274.950909,176.435 274.740909,176.555 274.350909,176.555 C274.050909,176.555 273.675909,176.42 273.375909,176.24 L272.610909,177.89 C273.195909,178.235 273.810909,178.445 274.635909,178.445 C276.000909,178.445 276.660909,177.83 277.275909,176.195 L280.365909,167.96 L277.995909,167.96 L276.240909,173.435 Z M284.508636,176.15 C286.248636,176.15 287.583636,175.34 287.583636,173.555 L287.583636,173.525 C287.583636,172.055 286.278636,171.515 285.153636,171.14 C284.283636,170.84 283.518636,170.63 283.518636,170.18 L283.518636,170.15 C283.518636,169.835 283.803636,169.595 284.358636,169.595 C284.943636,169.595 285.738636,169.88 286.533636,170.345 L287.403636,168.77 C286.533636,168.185 285.423636,167.84 284.403636,167.84 C282.783636,167.84 281.463636,168.755 281.463636,170.39 L281.463636,170.42 C281.463636,171.98 282.738636,172.505 283.863636,172.835 C284.748636,173.105 285.528636,173.27 285.528636,173.765 L285.528636,173.795 C285.528636,174.155 285.228636,174.395 284.568636,174.395 C283.818636,174.395 282.903636,174.065 282.033636,173.435 L281.058636,174.935 C282.123636,175.775 283.383636,176.15 284.508636,176.15 Z M293.301364,176.18 C290.886364,176.18 289.101364,174.485 289.101364,172.025 L289.101364,171.995 C289.101364,169.7 290.736364,167.81 293.076364,167.81 C295.761364,167.81 296.991364,169.895 296.991364,172.175 C296.991364,172.355 296.976364,172.565 296.961364,172.775 L291.366364,172.775 C291.591364,173.81 292.311364,174.35 293.331364,174.35 C294.096364,174.35 294.651364,174.11 295.281364,173.525 L296.586364,174.68 C295.836364,175.61 294.756364,176.18 293.301364,176.18 Z M291.336364,171.35 L294.771364,171.35 C294.636364,170.33 294.036364,169.64 293.076364,169.64 C292.131364,169.64 291.516364,170.315 291.336364,171.35 Z" id="Analyse" fill="#2C2C2C"></path>
            <path d="M237.26,541 L237.26,530.5 L241.55,530.5 C244.055,530.5 245.57,531.985 245.57,534.13 L245.57,534.16 C245.57,536.59 243.68,537.85 241.325,537.85 L239.57,537.85 L239.57,541 L237.26,541 Z M239.57,535.795 L241.4,535.795 C242.555,535.795 243.23,535.105 243.23,534.205 L243.23,534.175 C243.23,533.14 242.51,532.585 241.355,532.585 L239.57,532.585 L239.57,535.795 Z M247.312727,541 L249.592727,541 L249.592727,538.03 C249.592727,536.11 250.522727,535.195 252.037727,535.195 L252.157727,535.195 L252.157727,532.81 C250.807727,532.75 250.057727,533.47 249.592727,534.58 L249.592727,532.96 L247.312727,532.96 L247.312727,541 Z M257.575455,541.18 C255.085455,541.18 253.240455,539.335 253.240455,537.025 L253.240455,536.995 C253.240455,534.685 255.100455,532.81 257.605455,532.81 C260.095455,532.81 261.940455,534.655 261.940455,536.965 L261.940455,536.995 C261.940455,539.305 260.080455,541.18 257.575455,541.18 Z M257.605455,539.215 C258.910455,539.215 259.690455,538.21 259.690455,537.025 L259.690455,536.995 C259.690455,535.81 258.835455,534.775 257.575455,534.775 C256.270455,534.775 255.490455,535.78 255.490455,536.965 L255.490455,536.995 C255.490455,538.18 256.345455,539.215 257.605455,539.215 Z M266.578182,541.135 C267.343182,541.135 267.898182,540.955 268.378182,540.67 L268.378182,538.84 C268.048182,539.02 267.673182,539.125 267.253182,539.125 C266.743182,539.125 266.518182,538.87 266.518182,538.345 L266.518182,534.91 L268.408182,534.91 L268.408182,532.96 L266.518182,532.96 L266.518182,530.905 L264.238182,530.905 L264.238182,532.96 L263.278182,532.96 L263.278182,534.91 L264.238182,534.91 L264.238182,538.72 C264.238182,540.58 265.183182,541.135 266.578182,541.135 Z M274.080909,541.18 C271.590909,541.18 269.745909,539.335 269.745909,537.025 L269.745909,536.995 C269.745909,534.685 271.605909,532.81 274.110909,532.81 C276.600909,532.81 278.445909,534.655 278.445909,536.965 L278.445909,536.995 C278.445909,539.305 276.585909,541.18 274.080909,541.18 Z M274.110909,539.215 C275.415909,539.215 276.195909,538.21 276.195909,537.025 L276.195909,536.995 C276.195909,535.81 275.340909,534.775 274.080909,534.775 C272.775909,534.775 271.995909,535.78 271.995909,536.965 L271.995909,536.995 C271.995909,538.18 272.850909,539.215 274.110909,539.215 Z M283.083636,541.135 C283.848636,541.135 284.403636,540.955 284.883636,540.67 L284.883636,538.84 C284.553636,539.02 284.178636,539.125 283.758636,539.125 C283.248636,539.125 283.023636,538.87 283.023636,538.345 L283.023636,534.91 L284.913636,534.91 L284.913636,532.96 L283.023636,532.96 L283.023636,530.905 L280.743636,530.905 L280.743636,532.96 L279.783636,532.96 L279.783636,534.91 L280.743636,534.91 L280.743636,538.72 C280.743636,540.58 281.688636,541.135 283.083636,541.135 Z M290.391364,538.435 L288.561364,532.96 L286.146364,532.96 L289.296364,541.03 C289.101364,541.435 288.891364,541.555 288.501364,541.555 C288.201364,541.555 287.826364,541.42 287.526364,541.24 L286.761364,542.89 C287.346364,543.235 287.961364,543.445 288.786364,543.445 C290.151364,543.445 290.811364,542.83 291.426364,541.195 L294.516364,532.96 L292.146364,532.96 L290.391364,538.435 Z M296.139091,543.4 L296.139091,532.96 L298.419091,532.96 L298.419091,534.115 C298.974091,533.365 299.739091,532.81 300.924091,532.81 C302.799091,532.81 304.584091,534.28 304.584091,536.965 L304.584091,536.995 C304.584091,539.68 302.829091,541.15 300.924091,541.15 C299.709091,541.15 298.959091,540.595 298.419091,539.95 L298.419091,543.4 L296.139091,543.4 Z M300.339091,539.215 C301.404091,539.215 302.304091,538.345 302.304091,536.995 L302.304091,536.965 C302.304091,535.63 301.404091,534.745 300.339091,534.745 C299.274091,534.745 298.389091,535.63 298.389091,536.965 L298.389091,536.995 C298.389091,538.33 299.274091,539.215 300.339091,539.215 Z M310.346818,541.18 C307.931818,541.18 306.146818,539.485 306.146818,537.025 L306.146818,536.995 C306.146818,534.7 307.781818,532.81 310.121818,532.81 C312.806818,532.81 314.036818,534.895 314.036818,537.175 C314.036818,537.355 314.021818,537.565 314.006818,537.775 L308.411818,537.775 C308.636818,538.81 309.356818,539.35 310.376818,539.35 C311.141818,539.35 311.696818,539.11 312.326818,538.525 L313.631818,539.68 C312.881818,540.61 311.801818,541.18 310.346818,541.18 Z M308.381818,536.35 L311.816818,536.35 C311.681818,535.33 311.081818,534.64 310.121818,534.64 C309.176818,534.64 308.561818,535.315 308.381818,536.35 Z" id="Prototype" fill="#2C2C2C"></path>
        </g>
    </g>
</svg>