<?xml version="1.0" encoding="UTF-8" standalone="no"?>
<svg width="1486px" height="573px" viewBox="0 0 1486 573" version="1.1" xmlns="http://www.w3.org/2000/svg" xmlns:xlink="http://www.w3.org/1999/xlink">
    <!-- Generator: Sketch 43.2 (39069) - http://www.bohemiancoding.com/sketch -->
    <title>Group 10</title>
    <desc>Created with Sketch.</desc>
    <defs>
        <circle id="path-1" cx="290" cy="283" r="18"></circle>
        <path d="M22.4664158,57.1079695 C7.44945019,65.7453695 -1.36058486,73.2414046 0.172058302,77.0348295 C2.86162192,83.6917331 36.3830775,76.4255797 75.044325,60.8054218 C113.705573,45.1852639 142.866384,27.1261375 140.17682,20.4692339 C138.534407,16.4041192 125.394551,17.5310164 106.607863,22.5817398 C107.718989,24.4344674 108.712495,26.3874726 109.574538,28.4349031 C113.813793,28.0249725 116.491285,28.44288 117.045599,29.8148541 C118.785905,34.1222622 98.9392368,46.2026796 72.7168255,56.7972215 C46.4944141,67.3917634 23.826153,72.4884923 22.0858471,68.1810841 C21.6514188,67.1058362 22.5621597,65.5462214 24.5814551,63.6462643 C24.5656727,63.6079413 24.5498796,63.5692234 24.5340759,63.5301077 C23.6778037,61.4107598 22.9907013,59.2650579 22.4664158,57.1079695 Z" id="path-2"></path>
    </defs>
    <g id="Content" stroke="none" stroke-width="1" fill="none" fill-rule="evenodd">
        <g id="Artboard-Copy-2" transform="translate(-505.000000, -3162.000000)">
            <g id="Group-10" transform="translate(505.000000, 3162.000000)">
                <path d="M0.5,283.5 L1485.50135,283.5" id="Line" stroke="#BCBCBC" stroke-linecap="square"></path>
                <circle id="Oval-Copy-6" fill="#2C2C2C" cx="1263.5" cy="283.5" r="31.5"></circle>
                <circle id="Oval-Copy-7" fill="#2C2C2C" cx="421.5" cy="283.5" r="23.5"></circle>
                <g id="Oval-Copy-9">
                    <use fill="#FFFFFF" fill-rule="evenodd" xlink:href="#path-1"></use>
                    <circle stroke="#2C2C2C" stroke-width="3" cx="290" cy="283" r="16.5"></circle>
                </g>
                <circle id="Oval-Copy-11" fill="#2C2C2C" cx="1004.5" cy="283.5" r="71.5"></circle>
                <ellipse id="Oval-4-Copy-5" stroke="#979797" stroke-dasharray="2" cx="846.5" cy="282.742137" rx="450.5" ry="282"></ellipse>
                <ellipse id="Oval-4-Copy-6" stroke="#979797" stroke-dasharray="2,2" cx="483" cy="283.242137" rx="327" ry="126.5"></ellipse>
                <ellipse id="Oval-4-Copy-7" stroke="#979797" stroke-dasharray="2,2" cx="301.5" cy="283.742137" rx="145.5" ry="63"></ellipse>
                <g id="Group-9" transform="translate(698.000000, 240.742137)">
                    <circle id="Oval-Copy-18" fill="#2C2C2C" cx="66" cy="43" r="43"></circle>
                    <g id="Combined-Shape">
                        <use fill="#2C2C2C" fill-rule="evenodd" xlink:href="#path-2"></use>
                        <path stroke="#FFFFFF" stroke-width="2" d="M21.9678299,56.2411291 C5.92234997,65.470106 -2.55813061,72.946842 -0.755125552,77.4094361 C2.30357709,84.9799908 35.909094,77.6956162 75.4189316,61.7326057 C114.928769,45.7695951 144.162707,27.665182 141.104004,20.0946273 C139.185397,15.3459081 126.362813,16.2351946 106.348237,21.6160308 L105.068924,21.9599687 L105.750266,23.0960617 C106.845929,24.9230051 107.81584,26.8348601 108.652897,28.8229475 L108.938416,29.5010797 L109.670788,29.4302603 C113.564178,29.0537744 115.821107,29.4535988 116.118415,30.1894606 C116.664968,31.5422281 112.56245,35.3980395 104.847289,40.094161 C96.6379485,45.0910836 85.0588635,50.7321797 72.3422189,55.8700377 C59.6255743,61.0078956 47.3776429,64.9935389 38.0011833,67.1017409 C29.189161,69.0830348 23.5595845,69.159245 23.013031,67.8064775 C22.7999203,67.2790099 23.4877422,66.0484002 25.2667134,64.3745645 L25.7684512,63.9024789 L25.5061135,63.2654666 C25.4837159,63.2109062 25.4837159,63.2109062 25.4612597,63.1555011 C24.6300188,61.0981076 23.9552805,58.999542 23.4381259,56.8717929 L23.1233081,55.5765257 L21.9678299,56.2411291 Z"></path>
                    </g>
                </g>
                <circle id="Oval-2-Copy-4" fill="#FFFFFF" cx="1046" cy="244.742137" r="3"></circle>
                <circle id="Oval-2-Copy-14" fill="#322C2F" cx="721" cy="229.742137" r="3"></circle>
                <circle id="Oval-2-Copy-15" fill="#322C2F" cx="649" cy="233.742137" r="3"></circle>
                <circle id="Oval-2-Copy-16" fill="#322C2F" cx="694.5" cy="229.242137" r="4.5"></circle>
                <circle id="Oval-2-Copy-17" fill="#322C2F" cx="919.5" cy="342.242137" r="4.5"></circle>
                <circle id="Oval-2-Copy-18" fill="#322C2F" cx="1072" cy="352.742137" r="3"></circle>
                <circle id="Oval-2-Copy-19" fill="#322C2F" cx="1222" cy="256" r="4"></circle>
                <circle id="Oval-2-Copy-20" fill="#322C2F" cx="923" cy="313.742137" r="3"></circle>
                <circle id="Oval-2-Copy-21" fill="#322C2F" cx="686.5" cy="247.242137" r="2.5"></circle>
                <circle id="Oval-2-Copy-22" fill="#322C2F" cx="808.5" cy="329.242137" r="2.5"></circle>
                <circle id="Oval-2-Copy-23" fill="#322C2F" cx="826" cy="333.742137" r="1"></circle>
                <circle id="Oval-2-Copy-24" fill="#322C2F" cx="399.5" cy="257.242137" r="2.5"></circle>
                <circle id="Oval-2-Copy-25" fill="#322C2F" transform="translate(449.000000, 300.742137) scale(1, -1) translate(-449.000000, -300.742137) " cx="449" cy="300.742137" r="1"></circle>
                <ellipse id="Oval-4-Copy-8" stroke="#979797" stroke-dasharray="2,2" cx="674.5" cy="283.947121" rx="404.5" ry="168.204984"></ellipse>
                <path d="M198.413393,262.813374 C204.826454,267.444778 209,274.984997 209,283.5 C209,288.383481 207.62724,292.946336 205.246556,296.823731 C203.832079,297.180885 202.252787,297.47189 200.500528,297.690563 C192.695463,298.664597 185.125404,297.200711 178.421076,294.387337 C177.36046,293.942265 176.417199,293.499676 175.603189,293.080256 C175.31932,292.933993 175.072188,292.801268 174.863275,292.68467 C174.739481,292.615578 174.656855,292.567782 174.616881,292.543872 C174.379895,292.402124 174.072871,292.479329 173.931123,292.716314 C173.789375,292.9533 173.86658,293.260324 174.103565,293.402072 C174.152012,293.43105 174.243285,293.483848 174.375924,293.557876 C174.594399,293.679811 174.851298,293.817781 175.145163,293.969195 C175.981818,294.400282 176.948693,294.853951 178.03413,295.309439 C184.886775,298.185052 192.624023,299.681269 200.624362,298.682866 C202.000422,298.511141 203.275399,298.295203 204.45294,298.037546 C203.151057,299.910422 201.604507,301.600444 199.859571,303.06133 C198.598041,303.436346 197.171318,303.736625 195.591939,303.942931 C195.147332,304.001008 194.694886,304.046285 194.235202,304.079177 C190.64497,304.336069 186.96465,303.852796 183.747419,303.03463 C183.273651,302.914147 182.938778,302.818398 182.764592,302.763738 C182.501117,302.68106 182.220505,302.827625 182.137827,303.0911 C182.055149,303.354575 182.201714,303.635187 182.465189,303.717865 C182.514851,303.733449 182.607547,303.761284 182.740587,303.799324 C182.960008,303.862062 183.21436,303.930898 183.500957,304.003782 C186.813026,304.846066 190.592601,305.342373 194.306573,305.076626 C194.785398,305.042365 195.257219,304.995149 195.721463,304.934508 C196.46013,304.838019 197.168192,304.721272 197.844411,304.585883 C193.757565,307.371494 188.818962,309 183.5,309 C169.416739,309 158,297.583261 158,283.5 C158,278.985515 159.173146,274.745033 161.231211,271.06678 C162.37628,273.622022 164.700081,276.676866 168.458087,280.268658 C169.56587,281.327445 170.726505,282.302357 171.934119,283.196663 C175.544323,285.870221 179.411228,287.72254 183.278775,288.900827 C184.633646,289.313603 185.892761,289.612768 187.024398,289.816597 C187.422025,289.888217 187.77583,289.942827 188.081853,289.982702 C188.267944,290.006951 188.398293,290.021003 188.468938,290.027128 C188.744048,290.050984 188.986407,289.847302 189.010263,289.572192 C189.034118,289.297082 188.830436,289.054722 188.555326,289.030867 C188.49878,289.025964 188.382696,289.013449 188.211063,288.991085 C187.920878,288.953273 187.583082,288.901134 187.201664,288.832434 C186.107459,288.635347 184.886349,288.345212 183.57021,287.944237 C179.806297,286.797522 176.041742,284.994231 172.529251,282.393035 C171.354845,281.523322 170.226232,280.575307 169.149026,279.545745 C165.07147,275.648537 162.780977,272.506346 161.851021,270.018633 C166.354639,262.801804 174.366559,258 183.5,258 C188.246304,258 192.689743,259.296722 196.495369,261.555218 C197.518945,262.528942 197.717284,263.368993 197.020415,264.046179 C195.601998,265.424533 190.178655,263.922342 188.98641,262.508573 C188.808388,262.297474 188.492943,262.27066 188.281844,262.448681 C188.070745,262.626703 188.043931,262.942148 188.221953,263.153247 C189.741024,264.954569 195.794944,266.631421 197.717321,264.763341 C198.330627,264.167358 198.539839,263.500035 198.413393,262.813374 Z" id="Combined-Shape" fill="#2C2C2C"></path>
                <text id="Evaluate" font-family="Gotham-Bold, Gotham" font-size="20" font-weight="bold" line-spacing="12" letter-spacing="0.363636345" fill="#2C2C2C">
                    <tspan x="1218" y="416">Evaluate</tspan>
                </text>
                <text id="Define" font-family="Gotham-Bold, Gotham" font-size="20" font-weight="bold" line-spacing="12" letter-spacing="0.363636345" fill="#2C2C2C">
                    <tspan x="256" y="416">Define</tspan>
                </text>
                <text id="Research" font-family="Gotham-Bold, Gotham" font-size="20" font-weight="bold" line-spacing="12" letter-spacing="0.363636345" fill="#2C2C2C">
                    <tspan x="126" y="416">Research</tspan>
                </text>
                <text id="Analyse" font-family="Gotham-Bold, Gotham" font-size="20" font-weight="bold" line-spacing="12" letter-spacing="0.363636345" fill="#2C2C2C">
                    <tspan x="380" y="416">Analyse</tspan>
                </text>
                <text id="Prototype" font-family="Gotham-Bold, Gotham" font-size="20" font-weight="bold" line-spacing="12" letter-spacing="0.363636345" fill="#2C2C2C">
                    <tspan x="952" y="416">Prototype</tspan>
                </text>
                <text id="Ideate" font-family="Gotham-Bold, Gotham" font-size="20" font-weight="bold" line-spacing="12" letter-spacing="0.363636345" fill="#2C2C2C">
                    <tspan x="731" y="416">Ideate</tspan>
                </text>
                <rect id="Rectangle-12" fill="#FFFFFF" x="814" y="556" width="75" height="17"></rect>
                <text id="Iterate" font-family="Gotham-Bold, Gotham" font-size="20" font-weight="bold" line-spacing="12" letter-spacing="0.363636345" fill="#A7A7A7">
                    <tspan x="817" y="572">Iterate</tspan>
                </text>
            </g>
        </g>
    </g>
</svg>