<?xml version="1.0" encoding="UTF-8" standalone="no"?>
<svg width="1486px" height="573px" viewBox="0 0 1486 573" version="1.1" xmlns="http://www.w3.org/2000/svg" xmlns:xlink="http://www.w3.org/1999/xlink">
    <!-- Generator: Sketch 43.2 (39069) - http://www.bohemiancoding.com/sketch -->
    <title>Artboard 4</title>
    <desc>Created with Sketch.</desc>
    <defs>
        <circle id="path-1" cx="290" cy="283" r="18"></circle>
        <path d="M22.4664158,57.1079695 C7.44945019,65.7453695 -1.36058486,73.2414046 0.172058302,77.0348295 C2.86162192,83.6917331 36.3830775,76.4255797 75.044325,60.8054218 C113.705573,45.1852639 142.866384,27.1261375 140.17682,20.4692339 C138.534407,16.4041192 125.394551,17.5310164 106.607863,22.5817398 C107.718989,24.4344674 108.712495,26.3874726 109.574538,28.4349031 C113.813793,28.0249725 116.491285,28.44288 117.045599,29.8148541 C118.785905,34.1222622 98.9392368,46.2026796 72.7168255,56.7972215 C46.4944141,67.3917634 23.826153,72.4884923 22.0858471,68.1810841 C21.6514188,67.1058362 22.5621597,65.5462214 24.5814551,63.6462643 C24.5656727,63.6079413 24.5498796,63.5692234 24.5340759,63.5301077 C23.6778037,61.4107598 22.9907013,59.2650579 22.4664158,57.1079695 Z" id="path-2"></path>
    </defs>
    <g id="Content" stroke="none" stroke-width="1" fill="none" fill-rule="evenodd">
        <g id="Artboard-4">
            <path d="M0.5,283.5 L1485.50135,283.5" id="Line" stroke="#BCBCBC" stroke-linecap="square"></path>
            <circle id="Oval-Copy-6" fill="#2C2C2C" cx="1262.5" cy="283.5" r="31.5"></circle>
            <circle id="Oval-Copy-7" fill="#2C2C2C" cx="420.5" cy="283.5" r="23.5"></circle>
            <g id="Oval-Copy-9">
                <use fill="#FFFFFF" fill-rule="evenodd" xlink:href="#path-1"></use>
                <circle stroke="#2C2C2C" stroke-width="3" cx="290" cy="283" r="16.5"></circle>
            </g>
            <circle id="Oval-Copy-11" fill="#2C2C2C" cx="1004.5" cy="283.5" r="71.5"></circle>
            <ellipse id="Oval-4-Copy-5" stroke="#979797" stroke-dasharray="2" cx="846.5" cy="283" rx="450.5" ry="282"></ellipse>
            <ellipse id="Oval-4-Copy-6" stroke="#979797" stroke-dasharray="2,2" cx="483" cy="283.5" rx="327" ry="126.5"></ellipse>
            <ellipse id="Oval-4-Copy-7" stroke="#979797" stroke-dasharray="2,2" cx="301.5" cy="283.742137" rx="145.5" ry="63"></ellipse>
            <g id="Group-9" transform="translate(698.000000, 240.742137)">
                <circle id="Oval-Copy-18" fill="#2C2C2C" cx="66" cy="43" r="43"></circle>
                <g id="Combined-Shape">
                    <use fill="#2C2C2C" fill-rule="evenodd" xlink:href="#path-2"></use>
                    <path stroke="#FFFFFF" stroke-width="2" d="M21.9678299,56.2411291 C5.92234997,65.470106 -2.55813061,72.946842 -0.755125552,77.4094361 C2.30357709,84.9799908 35.909094,77.6956162 75.4189316,61.7326057 C114.928769,45.7695951 144.162707,27.665182 141.104004,20.0946273 C139.185397,15.3459081 126.362813,16.2351946 106.348237,21.6160308 L105.068924,21.9599687 L105.750266,23.0960617 C106.845929,24.9230051 107.81584,26.8348601 108.652897,28.8229475 L108.938416,29.5010797 L109.670788,29.4302603 C113.564178,29.0537744 115.821107,29.4535988 116.118415,30.1894606 C116.664968,31.5422281 112.56245,35.3980395 104.847289,40.094161 C96.6379485,45.0910836 85.0588635,50.7321797 72.3422189,55.8700377 C59.6255743,61.0078956 47.3776429,64.9935389 38.0011833,67.1017409 C29.189161,69.0830348 23.5595845,69.159245 23.013031,67.8064775 C22.7999203,67.2790099 23.4877422,66.0484002 25.2667134,64.3745645 L25.7684512,63.9024789 L25.5061135,63.2654666 C25.4837159,63.2109062 25.4837159,63.2109062 25.4612597,63.1555011 C24.6300188,61.0981076 23.9552805,58.999542 23.4381259,56.8717929 L23.1233081,55.5765257 L21.9678299,56.2411291 Z"></path>
                </g>
            </g>
            <circle id="Oval-2-Copy-4" fill="#FFFFFF" cx="1046" cy="244.742137" r="3"></circle>
            <circle id="Oval-2-Copy-14" fill="#322C2F" cx="721" cy="229.742137" r="3"></circle>
            <circle id="Oval-2-Copy-15" fill="#322C2F" cx="649" cy="233.742137" r="3"></circle>
            <circle id="Oval-2-Copy-16" fill="#322C2F" cx="694.5" cy="229.242137" r="4.5"></circle>
            <circle id="Oval-2-Copy-17" fill="#322C2F" cx="919.5" cy="342.242137" r="4.5"></circle>
            <circle id="Oval-2-Copy-18" fill="#322C2F" cx="1072" cy="352.742137" r="3"></circle>
            <circle id="Oval-2-Copy-19" fill="#322C2F" cx="1222" cy="256" r="4"></circle>
            <circle id="Oval-2-Copy-20" fill="#322C2F" cx="923" cy="313.742137" r="3"></circle>
            <circle id="Oval-2-Copy-21" fill="#322C2F" cx="686.5" cy="247.242137" r="2.5"></circle>
            <circle id="Oval-2-Copy-22" fill="#322C2F" cx="808.5" cy="329.242137" r="2.5"></circle>
            <circle id="Oval-2-Copy-23" fill="#322C2F" cx="826" cy="333.742137" r="1"></circle>
            <circle id="Oval-2-Copy-24" fill="#322C2F" cx="399.5" cy="257.242137" r="2.5"></circle>
            <circle id="Oval-2-Copy-25" fill="#322C2F" transform="translate(449.000000, 300.742137) scale(1, -1) translate(-449.000000, -300.742137) " cx="449" cy="300.742137" r="1"></circle>
            <ellipse id="Oval-4-Copy-8" stroke="#979797" stroke-dasharray="2,2" cx="674.5" cy="283.204984" rx="404.5" ry="168.204984"></ellipse>
            <path d="M199.413393,262.813374 C205.826454,267.444778 210,274.984997 210,283.5 C210,288.383481 208.62724,292.946336 206.246556,296.823731 C204.832079,297.180885 203.252787,297.47189 201.500528,297.690563 C193.695463,298.664597 186.125404,297.200711 179.421076,294.387337 C178.36046,293.942265 177.417199,293.499676 176.603189,293.080256 C176.31932,292.933993 176.072188,292.801268 175.863275,292.68467 C175.739481,292.615578 175.656855,292.567782 175.616881,292.543872 C175.379895,292.402124 175.072871,292.479329 174.931123,292.716314 C174.789375,292.9533 174.86658,293.260324 175.103565,293.402072 C175.152012,293.43105 175.243285,293.483848 175.375924,293.557876 C175.594399,293.679811 175.851298,293.817781 176.145163,293.969195 C176.981818,294.400282 177.948693,294.853951 179.03413,295.309439 C185.886775,298.185052 193.624023,299.681269 201.624362,298.682866 C203.000422,298.511141 204.275399,298.295203 205.45294,298.037546 C204.151057,299.910422 202.604507,301.600444 200.859571,303.06133 C199.598041,303.436346 198.171318,303.736625 196.591939,303.942931 C196.147332,304.001008 195.694886,304.046285 195.235202,304.079177 C191.64497,304.336069 187.96465,303.852796 184.747419,303.03463 C184.273651,302.914147 183.938778,302.818398 183.764592,302.763738 C183.501117,302.68106 183.220505,302.827625 183.137827,303.0911 C183.055149,303.354575 183.201714,303.635187 183.465189,303.717865 C183.514851,303.733449 183.607547,303.761284 183.740587,303.799324 C183.960008,303.862062 184.21436,303.930898 184.500957,304.003782 C187.813026,304.846066 191.592601,305.342373 195.306573,305.076626 C195.785398,305.042365 196.257219,304.995149 196.721463,304.934508 C197.46013,304.838019 198.168192,304.721272 198.844411,304.585883 C194.757565,307.371494 189.818962,309 184.5,309 C170.416739,309 159,297.583261 159,283.5 C159,278.985515 160.173146,274.745033 162.231211,271.06678 C163.37628,273.622022 165.700081,276.676866 169.458087,280.268658 C170.56587,281.327445 171.726505,282.302357 172.934119,283.196663 C176.544323,285.870221 180.411228,287.72254 184.278775,288.900827 C185.633646,289.313603 186.892761,289.612768 188.024398,289.816597 C188.422025,289.888217 188.77583,289.942827 189.081853,289.982702 C189.267944,290.006951 189.398293,290.021003 189.468938,290.027128 C189.744048,290.050984 189.986407,289.847302 190.010263,289.572192 C190.034118,289.297082 189.830436,289.054722 189.555326,289.030867 C189.49878,289.025964 189.382696,289.013449 189.211063,288.991085 C188.920878,288.953273 188.583082,288.901134 188.201664,288.832434 C187.107459,288.635347 185.886349,288.345212 184.57021,287.944237 C180.806297,286.797522 177.041742,284.994231 173.529251,282.393035 C172.354845,281.523322 171.226232,280.575307 170.149026,279.545745 C166.07147,275.648537 163.780977,272.506346 162.851021,270.018633 C167.354639,262.801804 175.366559,258 184.5,258 C189.246304,258 193.689743,259.296722 197.495369,261.555218 C198.518945,262.528942 198.717284,263.368993 198.020415,264.046179 C196.601998,265.424533 191.178655,263.922342 189.98641,262.508573 C189.808388,262.297474 189.492943,262.27066 189.281844,262.448681 C189.070745,262.626703 189.043931,262.942148 189.221953,263.153247 C190.741024,264.954569 196.794944,266.631421 198.717321,264.763341 C199.330627,264.167358 199.539839,263.500035 199.413393,262.813374 Z" id="Combined-Shape" fill="#2C2C2C"></path>
            <path d="M1219,411.6 L1229.66,411.6 L1229.66,408.86 L1222.06,408.86 L1222.06,405.92 L1228.66,405.92 L1228.66,403.18 L1222.06,403.18 L1222.06,400.34 L1229.56,400.34 L1229.56,397.6 L1219,397.6 L1219,411.6 Z M1235.50364,411.68 L1238.26364,411.68 L1242.48364,400.88 L1239.32364,400.88 L1236.90364,408.06 L1234.50364,400.88 L1231.28364,400.88 L1235.50364,411.68 Z M1247.14727,411.8 C1245.12727,411.8 1243.46727,410.64 1243.46727,408.52 L1243.46727,408.48 C1243.46727,406.14 1245.24727,405.06 1247.78727,405.06 C1248.86727,405.06 1249.64727,405.24 1250.40727,405.5 L1250.40727,405.32 C1250.40727,404.06 1249.62727,403.36 1248.10727,403.36 C1246.94727,403.36 1246.12727,403.58 1245.14727,403.94 L1244.38727,401.62 C1245.56727,401.1 1246.72727,400.76 1248.54727,400.76 C1250.20727,400.76 1251.40727,401.2 1252.16727,401.96 C1252.96727,402.76 1253.32727,403.94 1253.32727,405.38 L1253.32727,411.6 L1250.38727,411.6 L1250.38727,410.44 C1249.64727,411.26 1248.62727,411.8 1247.14727,411.8 Z M1248.06727,409.7 C1249.48727,409.7 1250.44727,408.92 1250.44727,407.82 L1250.44727,407.28 C1249.92727,407.04 1249.24727,406.88 1248.50727,406.88 C1247.20727,406.88 1246.40727,407.4 1246.40727,408.36 L1246.40727,408.4 C1246.40727,409.22 1247.08727,409.7 1248.06727,409.7 Z M1256.45091,411.6 L1259.49091,411.6 L1259.49091,397 L1256.45091,397 L1256.45091,411.6 Z M1266.27455,411.8 C1267.81455,411.8 1268.71455,410.98 1269.41455,410.08 L1269.41455,411.6 L1272.45455,411.6 L1272.45455,400.88 L1269.41455,400.88 L1269.41455,406.86 C1269.41455,408.3 1268.67455,409.04 1267.51455,409.04 C1266.35455,409.04 1265.67455,408.3 1265.67455,406.86 L1265.67455,400.88 L1262.63455,400.88 L1262.63455,407.82 C1262.63455,410.28 1263.97455,411.8 1266.27455,411.8 Z M1278.57818,411.8 C1276.55818,411.8 1274.89818,410.64 1274.89818,408.52 L1274.89818,408.48 C1274.89818,406.14 1276.67818,405.06 1279.21818,405.06 C1280.29818,405.06 1281.07818,405.24 1281.83818,405.5 L1281.83818,405.32 C1281.83818,404.06 1281.05818,403.36 1279.53818,403.36 C1278.37818,403.36 1277.55818,403.58 1276.57818,403.94 L1275.81818,401.62 C1276.99818,401.1 1278.15818,400.76 1279.97818,400.76 C1281.63818,400.76 1282.83818,401.2 1283.59818,401.96 C1284.39818,402.76 1284.75818,403.94 1284.75818,405.38 L1284.75818,411.6 L1281.81818,411.6 L1281.81818,410.44 C1281.07818,411.26 1280.05818,411.8 1278.57818,411.8 Z M1279.49818,409.7 C1280.91818,409.7 1281.87818,408.92 1281.87818,407.82 L1281.87818,407.28 C1281.35818,407.04 1280.67818,406.88 1279.93818,406.88 C1278.63818,406.88 1277.83818,407.4 1277.83818,408.36 L1277.83818,408.4 C1277.83818,409.22 1278.51818,409.7 1279.49818,409.7 Z M1291.26182,411.78 C1292.28182,411.78 1293.02182,411.54 1293.66182,411.16 L1293.66182,408.72 C1293.22182,408.96 1292.72182,409.1 1292.16182,409.1 C1291.48182,409.1 1291.18182,408.76 1291.18182,408.06 L1291.18182,403.48 L1293.70182,403.48 L1293.70182,400.88 L1291.18182,400.88 L1291.18182,398.14 L1288.14182,398.14 L1288.14182,400.88 L1286.86182,400.88 L1286.86182,403.48 L1288.14182,403.48 L1288.14182,408.56 C1288.14182,411.04 1289.40182,411.78 1291.26182,411.78 Z M1301.08545,411.84 C1297.86545,411.84 1295.48545,409.58 1295.48545,406.3 L1295.48545,406.26 C1295.48545,403.2 1297.66545,400.68 1300.78545,400.68 C1304.36545,400.68 1306.00545,403.46 1306.00545,406.5 C1306.00545,406.74 1305.98545,407.02 1305.96545,407.3 L1298.50545,407.3 C1298.80545,408.68 1299.76545,409.4 1301.12545,409.4 C1302.14545,409.4 1302.88545,409.08 1303.72545,408.3 L1305.46545,409.84 C1304.46545,411.08 1303.02545,411.84 1301.08545,411.84 Z M1298.46545,405.4 L1303.04545,405.4 C1302.86545,404.04 1302.06545,403.12 1300.78545,403.12 C1299.52545,403.12 1298.70545,404.02 1298.46545,405.4 Z" id="Evaluate" fill="#2C2C2C"></path>
            <path d="M258,411.74 L258,397.74 L263.46,397.74 C267.86,397.74 270.9,400.76 270.9,404.7 L270.9,404.74 C270.9,408.68 267.86,411.74 263.46,411.74 L258,411.74 Z M263.46,400.52 L261.08,400.52 L261.08,408.96 L263.46,408.96 C265.98,408.96 267.68,407.26 267.68,404.78 L267.68,404.74 C267.68,402.26 265.98,400.52 263.46,400.52 Z M278.763636,411.98 C275.543636,411.98 273.163636,409.72 273.163636,406.44 L273.163636,406.4 C273.163636,403.34 275.343636,400.82 278.463636,400.82 C282.043636,400.82 283.683636,403.6 283.683636,406.64 C283.683636,406.88 283.663636,407.16 283.643636,407.44 L276.183636,407.44 C276.483636,408.82 277.443636,409.54 278.803636,409.54 C279.823636,409.54 280.563636,409.22 281.403636,408.44 L283.143636,409.98 C282.143636,411.22 280.703636,411.98 278.763636,411.98 Z M276.143636,405.54 L280.723636,405.54 C280.543636,404.18 279.743636,403.26 278.463636,403.26 C277.203636,403.26 276.383636,404.16 276.143636,405.54 Z M286.827273,411.74 L289.867273,411.74 L289.867273,403.62 L292.287273,403.62 L292.287273,401.14 L289.827273,401.14 L289.827273,400.72 C289.827273,399.92 290.227273,399.56 290.927273,399.56 C291.447273,399.56 291.867273,399.66 292.307273,399.82 L292.307273,397.3 C291.747273,397.12 291.107273,397 290.147273,397 C289.067273,397 288.247273,397.28 287.687273,397.84 C287.127273,398.4 286.827273,399.26 286.827273,400.44 L286.827273,401.12 L285.567273,401.12 L285.567273,403.62 L286.827273,403.62 L286.827273,411.74 Z M294.087273,411.74 L297.127273,411.74 L297.127273,401.02 L294.087273,401.02 L294.087273,411.74 Z M294.007273,399.84 L297.207273,399.84 L297.207273,397.14 L294.007273,397.14 L294.007273,399.84 Z M300.350909,411.74 L303.390909,411.74 L303.390909,405.76 C303.390909,404.32 304.130909,403.58 305.290909,403.58 C306.450909,403.58 307.130909,404.32 307.130909,405.76 L307.130909,411.74 L310.170909,411.74 L310.170909,404.8 C310.170909,402.34 308.830909,400.82 306.530909,400.82 C304.990909,400.82 304.090909,401.64 303.390909,402.54 L303.390909,401.02 L300.350909,401.02 L300.350909,411.74 Z M318.254545,411.98 C315.034545,411.98 312.654545,409.72 312.654545,406.44 L312.654545,406.4 C312.654545,403.34 314.834545,400.82 317.954545,400.82 C321.534545,400.82 323.174545,403.6 323.174545,406.64 C323.174545,406.88 323.154545,407.16 323.134545,407.44 L315.674545,407.44 C315.974545,408.82 316.934545,409.54 318.294545,409.54 C319.314545,409.54 320.054545,409.22 320.894545,408.44 L322.634545,409.98 C321.634545,411.22 320.194545,411.98 318.254545,411.98 Z M315.634545,405.54 L320.214545,405.54 C320.034545,404.18 319.234545,403.26 317.954545,403.26 C316.694545,403.26 315.874545,404.16 315.634545,405.54 Z" id="Define" fill="#2C2C2C"></path>
            <path d="M139,411.6 L139,397.6 L145.4,397.6 C147.18,397.6 148.56,398.1 149.48,399.02 C150.26,399.8 150.68,400.9 150.68,402.22 L150.68,402.26 C150.68,404.52 149.46,405.94 147.68,406.6 L151.1,411.6 L147.5,411.6 L144.5,407.12 L142.08,407.12 L142.08,411.6 L139,411.6 Z M142.08,404.4 L145.2,404.4 C146.7,404.4 147.56,403.6 147.56,402.42 L147.56,402.38 C147.56,401.06 146.64,400.38 145.14,400.38 L142.08,400.38 L142.08,404.4 Z M158.383636,411.84 C155.163636,411.84 152.783636,409.58 152.783636,406.3 L152.783636,406.26 C152.783636,403.2 154.963636,400.68 158.083636,400.68 C161.663636,400.68 163.303636,403.46 163.303636,406.5 C163.303636,406.74 163.283636,407.02 163.263636,407.3 L155.803636,407.3 C156.103636,408.68 157.063636,409.4 158.423636,409.4 C159.443636,409.4 160.183636,409.08 161.023636,408.3 L162.763636,409.84 C161.763636,411.08 160.323636,411.84 158.383636,411.84 Z M155.763636,405.4 L160.343636,405.4 C160.163636,404.04 159.363636,403.12 158.083636,403.12 C156.823636,403.12 156.003636,404.02 155.763636,405.4 Z M169.687273,411.8 C172.007273,411.8 173.787273,410.72 173.787273,408.34 L173.787273,408.3 C173.787273,406.34 172.047273,405.62 170.547273,405.12 C169.387273,404.72 168.367273,404.44 168.367273,403.84 L168.367273,403.8 C168.367273,403.38 168.747273,403.06 169.487273,403.06 C170.267273,403.06 171.327273,403.44 172.387273,404.06 L173.547273,401.96 C172.387273,401.18 170.907273,400.72 169.547273,400.72 C167.387273,400.72 165.627273,401.94 165.627273,404.12 L165.627273,404.16 C165.627273,406.24 167.327273,406.94 168.827273,407.38 C170.007273,407.74 171.047273,407.96 171.047273,408.62 L171.047273,408.66 C171.047273,409.14 170.647273,409.46 169.767273,409.46 C168.767273,409.46 167.547273,409.02 166.387273,408.18 L165.087273,410.18 C166.507273,411.3 168.187273,411.8 169.687273,411.8 Z M181.410909,411.84 C178.190909,411.84 175.810909,409.58 175.810909,406.3 L175.810909,406.26 C175.810909,403.2 177.990909,400.68 181.110909,400.68 C184.690909,400.68 186.330909,403.46 186.330909,406.5 C186.330909,406.74 186.310909,407.02 186.290909,407.3 L178.830909,407.3 C179.130909,408.68 180.090909,409.4 181.450909,409.4 C182.470909,409.4 183.210909,409.08 184.050909,408.3 L185.790909,409.84 C184.790909,411.08 183.350909,411.84 181.410909,411.84 Z M178.790909,405.4 L183.370909,405.4 C183.190909,404.04 182.390909,403.12 181.110909,403.12 C179.850909,403.12 179.030909,404.02 178.790909,405.4 Z M191.994545,411.8 C189.974545,411.8 188.314545,410.64 188.314545,408.52 L188.314545,408.48 C188.314545,406.14 190.094545,405.06 192.634545,405.06 C193.714545,405.06 194.494545,405.24 195.254545,405.5 L195.254545,405.32 C195.254545,404.06 194.474545,403.36 192.954545,403.36 C191.794545,403.36 190.974545,403.58 189.994545,403.94 L189.234545,401.62 C190.414545,401.1 191.574545,400.76 193.394545,400.76 C195.054545,400.76 196.254545,401.2 197.014545,401.96 C197.814545,402.76 198.174545,403.94 198.174545,405.38 L198.174545,411.6 L195.234545,411.6 L195.234545,410.44 C194.494545,411.26 193.474545,411.8 191.994545,411.8 Z M192.914545,409.7 C194.334545,409.7 195.294545,408.92 195.294545,407.82 L195.294545,407.28 C194.774545,407.04 194.094545,406.88 193.354545,406.88 C192.054545,406.88 191.254545,407.4 191.254545,408.36 L191.254545,408.4 C191.254545,409.22 191.934545,409.7 192.914545,409.7 Z M201.158182,411.6 L204.198182,411.6 L204.198182,407.64 C204.198182,405.08 205.438182,403.86 207.458182,403.86 L207.618182,403.86 L207.618182,400.68 C205.818182,400.6 204.818182,401.56 204.198182,403.04 L204.198182,400.88 L201.158182,400.88 L201.158182,411.6 Z M214.641818,411.84 C216.781818,411.84 217.981818,411.02 219.021818,409.88 L217.241818,408.08 C216.501818,408.78 215.801818,409.22 214.781818,409.22 C213.121818,409.22 212.061818,407.9 212.061818,406.26 L212.061818,406.22 C212.061818,404.64 213.141818,403.3 214.661818,403.3 C215.741818,403.3 216.421818,403.76 217.101818,404.48 L218.961818,402.48 C217.961818,401.36 216.701818,400.68 214.681818,400.68 C211.401818,400.68 209.061818,403.2 209.061818,406.26 L209.061818,406.3 C209.061818,409.36 211.421818,411.84 214.641818,411.84 Z M221.365454,411.6 L224.405454,411.6 L224.405454,405.62 C224.405454,404.18 225.145454,403.44 226.305454,403.44 C227.465454,403.44 228.145454,404.18 228.145454,405.62 L228.145454,411.6 L231.185454,411.6 L231.185454,404.66 C231.185454,402.2 229.845454,400.68 227.545454,400.68 C226.005454,400.68 225.105454,401.5 224.405454,402.4 L224.405454,397 L221.365454,397 L221.365454,411.6 Z" id="Research" fill="#2C2C2C"></path>
            <path d="M380,411.6 L386,397.5 L388.84,397.5 L394.84,411.6 L391.62,411.6 L390.34,408.46 L384.42,408.46 L383.14,411.6 L380,411.6 Z M385.52,405.74 L389.24,405.74 L387.38,401.2 L385.52,405.74 Z M397.043636,411.6 L400.083636,411.6 L400.083636,405.62 C400.083636,404.18 400.823636,403.44 401.983636,403.44 C403.143636,403.44 403.823636,404.18 403.823636,405.62 L403.823636,411.6 L406.863636,411.6 L406.863636,404.66 C406.863636,402.2 405.523636,400.68 403.223636,400.68 C401.683636,400.68 400.783636,401.5 400.083636,402.4 L400.083636,400.88 L397.043636,400.88 L397.043636,411.6 Z M412.907273,411.8 C410.887273,411.8 409.227273,410.64 409.227273,408.52 L409.227273,408.48 C409.227273,406.14 411.007273,405.06 413.547273,405.06 C414.627273,405.06 415.407273,405.24 416.167273,405.5 L416.167273,405.32 C416.167273,404.06 415.387273,403.36 413.867273,403.36 C412.707273,403.36 411.887273,403.58 410.907273,403.94 L410.147273,401.62 C411.327273,401.1 412.487273,400.76 414.307273,400.76 C415.967273,400.76 417.167273,401.2 417.927273,401.96 C418.727273,402.76 419.087273,403.94 419.087273,405.38 L419.087273,411.6 L416.147273,411.6 L416.147273,410.44 C415.407273,411.26 414.387273,411.8 412.907273,411.8 Z M413.827273,409.7 C415.247273,409.7 416.207273,408.92 416.207273,407.82 L416.207273,407.28 C415.687273,407.04 415.007273,406.88 414.267273,406.88 C412.967273,406.88 412.167273,407.4 412.167273,408.36 L412.167273,408.4 C412.167273,409.22 412.847273,409.7 413.827273,409.7 Z M422.210909,411.6 L425.250909,411.6 L425.250909,397 L422.210909,397 L422.210909,411.6 Z M433.174545,408.18 L430.734545,400.88 L427.514545,400.88 L431.714545,411.64 C431.454545,412.18 431.174545,412.34 430.654545,412.34 C430.254545,412.34 429.754545,412.16 429.354545,411.92 L428.334545,414.12 C429.114545,414.58 429.934545,414.86 431.034545,414.86 C432.854545,414.86 433.734545,414.04 434.554545,411.86 L438.674545,400.88 L435.514545,400.88 L433.174545,408.18 Z M444.198182,411.8 C446.518182,411.8 448.298182,410.72 448.298182,408.34 L448.298182,408.3 C448.298182,406.34 446.558182,405.62 445.058182,405.12 C443.898182,404.72 442.878182,404.44 442.878182,403.84 L442.878182,403.8 C442.878182,403.38 443.258182,403.06 443.998182,403.06 C444.778182,403.06 445.838182,403.44 446.898182,404.06 L448.058182,401.96 C446.898182,401.18 445.418182,400.72 444.058182,400.72 C441.898182,400.72 440.138182,401.94 440.138182,404.12 L440.138182,404.16 C440.138182,406.24 441.838182,406.94 443.338182,407.38 C444.518182,407.74 445.558182,407.96 445.558182,408.62 L445.558182,408.66 C445.558182,409.14 445.158182,409.46 444.278182,409.46 C443.278182,409.46 442.058182,409.02 440.898182,408.18 L439.598182,410.18 C441.018182,411.3 442.698182,411.8 444.198182,411.8 Z M455.921818,411.84 C452.701818,411.84 450.321818,409.58 450.321818,406.3 L450.321818,406.26 C450.321818,403.2 452.501818,400.68 455.621818,400.68 C459.201818,400.68 460.841818,403.46 460.841818,406.5 C460.841818,406.74 460.821818,407.02 460.801818,407.3 L453.341818,407.3 C453.641818,408.68 454.601818,409.4 455.961818,409.4 C456.981818,409.4 457.721818,409.08 458.561818,408.3 L460.301818,409.84 C459.301818,411.08 457.861818,411.84 455.921818,411.84 Z M453.301818,405.4 L457.881818,405.4 C457.701818,404.04 456.901818,403.12 455.621818,403.12 C454.361818,403.12 453.541818,404.02 453.301818,405.4 Z" id="Analyse" fill="#2C2C2C"></path>
            <path d="M953,412 L953,398 L958.72,398 C962.06,398 964.08,399.98 964.08,402.84 L964.08,402.88 C964.08,406.12 961.56,407.8 958.42,407.8 L956.08,407.8 L956.08,412 L953,412 Z M956.08,405.06 L958.52,405.06 C960.06,405.06 960.96,404.14 960.96,402.94 L960.96,402.9 C960.96,401.52 960,400.78 958.46,400.78 L956.08,400.78 L956.08,405.06 Z M966.403636,412 L969.443636,412 L969.443636,408.04 C969.443636,405.48 970.683636,404.26 972.703636,404.26 L972.863636,404.26 L972.863636,401.08 C971.063636,401 970.063636,401.96 969.443636,403.44 L969.443636,401.28 L966.403636,401.28 L966.403636,412 Z M980.087273,412.24 C976.767273,412.24 974.307273,409.78 974.307273,406.7 L974.307273,406.66 C974.307273,403.58 976.787273,401.08 980.127273,401.08 C983.447273,401.08 985.907273,403.54 985.907273,406.62 L985.907273,406.66 C985.907273,409.74 983.427273,412.24 980.087273,412.24 Z M980.127273,409.62 C981.867273,409.62 982.907273,408.28 982.907273,406.7 L982.907273,406.66 C982.907273,405.08 981.767273,403.7 980.087273,403.7 C978.347273,403.7 977.307273,405.04 977.307273,406.62 L977.307273,406.66 C977.307273,408.24 978.447273,409.62 980.127273,409.62 Z M992.090909,412.18 C993.110909,412.18 993.850909,411.94 994.490909,411.56 L994.490909,409.12 C994.050909,409.36 993.550909,409.5 992.990909,409.5 C992.310909,409.5 992.010909,409.16 992.010909,408.46 L992.010909,403.88 L994.530909,403.88 L994.530909,401.28 L992.010909,401.28 L992.010909,398.54 L988.970909,398.54 L988.970909,401.28 L987.690909,401.28 L987.690909,403.88 L988.970909,403.88 L988.970909,408.96 C988.970909,411.44 990.230909,412.18 992.090909,412.18 Z M1002.09455,412.24 C998.774545,412.24 996.314545,409.78 996.314545,406.7 L996.314545,406.66 C996.314545,403.58 998.794545,401.08 1002.13455,401.08 C1005.45455,401.08 1007.91455,403.54 1007.91455,406.62 L1007.91455,406.66 C1007.91455,409.74 1005.43455,412.24 1002.09455,412.24 Z M1002.13455,409.62 C1003.87455,409.62 1004.91455,408.28 1004.91455,406.7 L1004.91455,406.66 C1004.91455,405.08 1003.77455,403.7 1002.09455,403.7 C1000.35455,403.7 999.314545,405.04 999.314545,406.62 L999.314545,406.66 C999.314545,408.24 1000.45455,409.62 1002.13455,409.62 Z M1014.09818,412.18 C1015.11818,412.18 1015.85818,411.94 1016.49818,411.56 L1016.49818,409.12 C1016.05818,409.36 1015.55818,409.5 1014.99818,409.5 C1014.31818,409.5 1014.01818,409.16 1014.01818,408.46 L1014.01818,403.88 L1016.53818,403.88 L1016.53818,401.28 L1014.01818,401.28 L1014.01818,398.54 L1010.97818,398.54 L1010.97818,401.28 L1009.69818,401.28 L1009.69818,403.88 L1010.97818,403.88 L1010.97818,408.96 C1010.97818,411.44 1012.23818,412.18 1014.09818,412.18 Z M1023.84182,408.58 L1021.40182,401.28 L1018.18182,401.28 L1022.38182,412.04 C1022.12182,412.58 1021.84182,412.74 1021.32182,412.74 C1020.92182,412.74 1020.42182,412.56 1020.02182,412.32 L1019.00182,414.52 C1019.78182,414.98 1020.60182,415.26 1021.70182,415.26 C1023.52182,415.26 1024.40182,414.44 1025.22182,412.26 L1029.34182,401.28 L1026.18182,401.28 L1023.84182,408.58 Z M1031.50545,415.2 L1031.50545,401.28 L1034.54545,401.28 L1034.54545,402.82 C1035.28545,401.82 1036.30545,401.08 1037.88545,401.08 C1040.38545,401.08 1042.76545,403.04 1042.76545,406.62 L1042.76545,406.66 C1042.76545,410.24 1040.42545,412.2 1037.88545,412.2 C1036.26545,412.2 1035.26545,411.46 1034.54545,410.6 L1034.54545,415.2 L1031.50545,415.2 Z M1037.10545,409.62 C1038.52545,409.62 1039.72545,408.46 1039.72545,406.66 L1039.72545,406.62 C1039.72545,404.84 1038.52545,403.66 1037.10545,403.66 C1035.68545,403.66 1034.50545,404.84 1034.50545,406.62 L1034.50545,406.66 C1034.50545,408.44 1035.68545,409.62 1037.10545,409.62 Z M1050.44909,412.24 C1047.22909,412.24 1044.84909,409.98 1044.84909,406.7 L1044.84909,406.66 C1044.84909,403.6 1047.02909,401.08 1050.14909,401.08 C1053.72909,401.08 1055.36909,403.86 1055.36909,406.9 C1055.36909,407.14 1055.34909,407.42 1055.32909,407.7 L1047.86909,407.7 C1048.16909,409.08 1049.12909,409.8 1050.48909,409.8 C1051.50909,409.8 1052.24909,409.48 1053.08909,408.7 L1054.82909,410.24 C1053.82909,411.48 1052.38909,412.24 1050.44909,412.24 Z M1047.82909,405.8 L1052.40909,405.8 C1052.22909,404.44 1051.42909,403.52 1050.14909,403.52 C1048.88909,403.52 1048.06909,404.42 1047.82909,405.8 Z" id="Prototype" fill="#2C2C2C"></path>
            <path d="M732,411.6 L735.08,411.6 L735.08,397.6 L732,397.6 L732,411.6 Z M743.023636,411.8 C740.523636,411.8 738.143636,409.84 738.143636,406.26 L738.143636,406.22 C738.143636,402.64 740.483636,400.68 743.023636,400.68 C744.643636,400.68 745.643636,401.42 746.363636,402.28 L746.363636,397 L749.403636,397 L749.403636,411.6 L746.363636,411.6 L746.363636,410.06 C745.623636,411.06 744.603636,411.8 743.023636,411.8 Z M743.803636,409.22 C745.223636,409.22 746.403636,408.04 746.403636,406.26 L746.403636,406.22 C746.403636,404.44 745.223636,403.26 743.803636,403.26 C742.383636,403.26 741.183636,404.42 741.183636,406.22 L741.183636,406.26 C741.183636,408.04 742.383636,409.22 743.803636,409.22 Z M757.567273,411.84 C754.347273,411.84 751.967273,409.58 751.967273,406.3 L751.967273,406.26 C751.967273,403.2 754.147273,400.68 757.267273,400.68 C760.847273,400.68 762.487273,403.46 762.487273,406.5 C762.487273,406.74 762.467273,407.02 762.447273,407.3 L754.987273,407.3 C755.287273,408.68 756.247273,409.4 757.607273,409.4 C758.627273,409.4 759.367273,409.08 760.207273,408.3 L761.947273,409.84 C760.947273,411.08 759.507273,411.84 757.567273,411.84 Z M754.947273,405.4 L759.527273,405.4 C759.347273,404.04 758.547273,403.12 757.267273,403.12 C756.007273,403.12 755.187273,404.02 754.947273,405.4 Z M768.150909,411.8 C766.130909,411.8 764.470909,410.64 764.470909,408.52 L764.470909,408.48 C764.470909,406.14 766.250909,405.06 768.790909,405.06 C769.870909,405.06 770.650909,405.24 771.410909,405.5 L771.410909,405.32 C771.410909,404.06 770.630909,403.36 769.110909,403.36 C767.950909,403.36 767.130909,403.58 766.150909,403.94 L765.390909,401.62 C766.570909,401.1 767.730909,400.76 769.550909,400.76 C771.210909,400.76 772.410909,401.2 773.170909,401.96 C773.970909,402.76 774.330909,403.94 774.330909,405.38 L774.330909,411.6 L771.390909,411.6 L771.390909,410.44 C770.650909,411.26 769.630909,411.8 768.150909,411.8 Z M769.070909,409.7 C770.490909,409.7 771.450909,408.92 771.450909,407.82 L771.450909,407.28 C770.930909,407.04 770.250909,406.88 769.510909,406.88 C768.210909,406.88 767.410909,407.4 767.410909,408.36 L767.410909,408.4 C767.410909,409.22 768.090909,409.7 769.070909,409.7 Z M780.834545,411.78 C781.854545,411.78 782.594545,411.54 783.234545,411.16 L783.234545,408.72 C782.794545,408.96 782.294545,409.1 781.734545,409.1 C781.054545,409.1 780.754545,408.76 780.754545,408.06 L780.754545,403.48 L783.274545,403.48 L783.274545,400.88 L780.754545,400.88 L780.754545,398.14 L777.714545,398.14 L777.714545,400.88 L776.434545,400.88 L776.434545,403.48 L777.714545,403.48 L777.714545,408.56 C777.714545,411.04 778.974545,411.78 780.834545,411.78 Z M790.658182,411.84 C787.438182,411.84 785.058182,409.58 785.058182,406.3 L785.058182,406.26 C785.058182,403.2 787.238182,400.68 790.358182,400.68 C793.938182,400.68 795.578182,403.46 795.578182,406.5 C795.578182,406.74 795.558182,407.02 795.538182,407.3 L788.078182,407.3 C788.378182,408.68 789.338182,409.4 790.698182,409.4 C791.718182,409.4 792.458182,409.08 793.298182,408.3 L795.038182,409.84 C794.038182,411.08 792.598182,411.84 790.658182,411.84 Z M788.038182,405.4 L792.618182,405.4 C792.438182,404.04 791.638182,403.12 790.358182,403.12 C789.098182,403.12 788.278182,404.02 788.038182,405.4 Z" id="Ideate" fill="#2C2C2C"></path>
            <rect id="Rectangle-12" fill="#FFFFFF" x="814" y="556" width="75" height="17"></rect>
            <path d="M818.82,568 L821.9,568 L821.9,554 L818.82,554 L818.82,568 Z M829.063636,568.18 C830.083636,568.18 830.823636,567.94 831.463636,567.56 L831.463636,565.12 C831.023636,565.36 830.523636,565.5 829.963636,565.5 C829.283636,565.5 828.983636,565.16 828.983636,564.46 L828.983636,559.88 L831.503636,559.88 L831.503636,557.28 L828.983636,557.28 L828.983636,554.54 L825.943636,554.54 L825.943636,557.28 L824.663636,557.28 L824.663636,559.88 L825.943636,559.88 L825.943636,564.96 C825.943636,567.44 827.203636,568.18 829.063636,568.18 Z M838.887273,568.24 C835.667273,568.24 833.287273,565.98 833.287273,562.7 L833.287273,562.66 C833.287273,559.6 835.467273,557.08 838.587273,557.08 C842.167273,557.08 843.807273,559.86 843.807273,562.9 C843.807273,563.14 843.787273,563.42 843.767273,563.7 L836.307273,563.7 C836.607273,565.08 837.567273,565.8 838.927273,565.8 C839.947273,565.8 840.687273,565.48 841.527273,564.7 L843.267273,566.24 C842.267273,567.48 840.827273,568.24 838.887273,568.24 Z M836.267273,561.8 L840.847273,561.8 C840.667273,560.44 839.867273,559.52 838.587273,559.52 C837.327273,559.52 836.507273,560.42 836.267273,561.8 Z M846.430909,568 L849.470909,568 L849.470909,564.04 C849.470909,561.48 850.710909,560.26 852.730909,560.26 L852.890909,560.26 L852.890909,557.08 C851.090909,557 850.090909,557.96 849.470909,559.44 L849.470909,557.28 L846.430909,557.28 L846.430909,568 Z M857.694545,568.2 C855.674545,568.2 854.014545,567.04 854.014545,564.92 L854.014545,564.88 C854.014545,562.54 855.794545,561.46 858.334545,561.46 C859.414545,561.46 860.194545,561.64 860.954545,561.9 L860.954545,561.72 C860.954545,560.46 860.174545,559.76 858.654545,559.76 C857.494545,559.76 856.674545,559.98 855.694545,560.34 L854.934545,558.02 C856.114545,557.5 857.274545,557.16 859.094545,557.16 C860.754545,557.16 861.954545,557.6 862.714545,558.36 C863.514545,559.16 863.874545,560.34 863.874545,561.78 L863.874545,568 L860.934545,568 L860.934545,566.84 C860.194545,567.66 859.174545,568.2 857.694545,568.2 Z M858.614545,566.1 C860.034545,566.1 860.994545,565.32 860.994545,564.22 L860.994545,563.68 C860.474545,563.44 859.794545,563.28 859.054545,563.28 C857.754545,563.28 856.954545,563.8 856.954545,564.76 L856.954545,564.8 C856.954545,565.62 857.634545,566.1 858.614545,566.1 Z M870.378182,568.18 C871.398182,568.18 872.138182,567.94 872.778182,567.56 L872.778182,565.12 C872.338182,565.36 871.838182,565.5 871.278182,565.5 C870.598182,565.5 870.298182,565.16 870.298182,564.46 L870.298182,559.88 L872.818182,559.88 L872.818182,557.28 L870.298182,557.28 L870.298182,554.54 L867.258182,554.54 L867.258182,557.28 L865.978182,557.28 L865.978182,559.88 L867.258182,559.88 L867.258182,564.96 C867.258182,567.44 868.518182,568.18 870.378182,568.18 Z M880.201818,568.24 C876.981818,568.24 874.601818,565.98 874.601818,562.7 L874.601818,562.66 C874.601818,559.6 876.781818,557.08 879.901818,557.08 C883.481818,557.08 885.121818,559.86 885.121818,562.9 C885.121818,563.14 885.101818,563.42 885.081818,563.7 L877.621818,563.7 C877.921818,565.08 878.881818,565.8 880.241818,565.8 C881.261818,565.8 882.001818,565.48 882.841818,564.7 L884.581818,566.24 C883.581818,567.48 882.141818,568.24 880.201818,568.24 Z M877.581818,561.8 L882.161818,561.8 C881.981818,560.44 881.181818,559.52 879.901818,559.52 C878.641818,559.52 877.821818,560.42 877.581818,561.8 Z" id="Iterate" fill="#A7A7A7"></path>
        </g>
    </g>
</svg>